<?xml version="1.0" standalone="no"?>
<!DOCTYPE svg PUBLIC "-//W3C//DTD SVG 1.1//EN" "http://www.w3.org/Graphics/SVG/1.1/DTD/svg11.dtd" >
<svg xmlns="http://www.w3.org/2000/svg" xmlns:xlink="http://www.w3.org/1999/xlink" version="1.1">
<metadata>
Created by FontForge 20170731 at Tue Feb  2 23:31:02 2021
 By Aleksey,,,
Copyright 2006 House Industries/Brand Design Co., Inc. All Rights Reserved.
</metadata>
<defs>
<font id="BurbankBigCondensed-Black" horiz-adv-x="950" >
  <font-face 
    font-family="Burbank Big Cd Bk"
    font-weight="700"
    font-stretch="normal"
    units-per-em="2048"
    panose-1="0 0 0 0 0 0 0 0 0 0"
    ascent="1536"
    descent="-512"
    x-height="1026"
    cap-height="1423"
    bbox="-174 -539 2021 1978"
    underline-thickness="102"
    underline-position="-307"
    unicode-range="U+0020-FB04"
  />
<missing-glyph horiz-adv-x="389" 
 />
    <glyph glyph-name="ff" unicode="ff" horiz-adv-x="1241" 
d="M1225 639q-50 2 -142 4v-680q-149 0 -352 -2q-4 316 -6 682h-84q6 93 0 326q37 -2 86 -2v49q0 271 129.5 369.5t394.5 33.5q-12 -82 -20 -315q-144 21 -144 -103v-36q91 0 146 2q-1 -15 -2.5 -42t-4 -112.5t-1.5 -173.5zM588 610q-37 2 -105 2v-587q-149 0 -352 -2
q-4 258 -6 591h-113q4 82 -2 324q47 -2 117 -4v45q0 117 31.5 203.5t98 142t169.5 67t246 -21.5q-13 -82 -21 -315q-88 13 -125 -12t-39 -91v-24h107q-1 -14 -2 -39.5t-3 -108t-1 -170.5z" />
    <glyph glyph-name="fi" unicode="fi" horiz-adv-x="1073" 
d="M625 637q-52 2 -142 4v-616q-149 0 -352 -2q-4 275 -6 618h-113q4 90 -2 332q47 -2 117 -6v49q2 213 78 320.5t241 107.5q75 0 181 -25q-13 -82 -21 -315q-63 9 -90 -15.5t-29 -87.5v-45q47 -2 144 -2q-1 -13 -2 -38.5t-3 -108t-1 -170.5zM690 -39q2 273 -6 1024
q118 -2 358 2q-1 -355 9 -1024q-154 0 -361 -2zM872 1094q-200 0 -200 217q0 94 49.5 147t150.5 53q92 0 141.5 -56t49.5 -148q0 -108 -53 -160.5t-138 -52.5z" />
    <glyph glyph-name="fl" unicode="fl" horiz-adv-x="1085" 
d="M614 618q-47 3 -131 5v-588q-149 0 -352 -2q-4 255 -6 590h-113q4 96 -2 338q45 -3 117 -7v17q2 213 77.5 320.5t244.5 107.5q74 0 180 -25q-13 -82 -21 -315q-64 9 -91.5 -14.5t-29.5 -88.5v-12q43 -2 134 -2q-1 -14 -2.5 -40.5t-3.5 -111t-1 -172.5zM1044 -4
q-66 2 -127.5 3.5t-102 2t-71.5 0.5h-45h-14q3 469 2.5 786.5t-2.5 479.5l-2 162l362 -11q-4 -447 -4 -803t2 -488z" />
    <glyph glyph-name="ffi" unicode="ffi" horiz-adv-x="1673" 
d="M1225 639q-56 2 -162 4v-670q-149 0 -352 -2q-4 311 -6 672h-64q6 93 0 326q29 -2 66 -4v51q0 269 129.5 367.5t390.5 35.5q-13 -82 -21 -315q-67 9 -103 -17.5t-36 -85.5v-47h164q-1 -13 -2 -38t-3 -107t-1 -170zM588 610q-37 2 -105 2v-587q-149 0 -352 -2
q-4 258 -6 591h-113q4 82 -2 324q47 -2 117 -4v45q0 241 132.5 348t391.5 43q-12 -82 -20 -315q-82 13 -112 -12t-32 -91v-24h107q-1 -14 -2 -39.5t-3 -108t-1 -170.5zM1290 8q2 226 -6 977q118 -2 358 2q-1 -308 9 -977q-154 0 -361 -2zM1473 1094q-201 0 -201 217
q0 94 50 147t151 53q92 0 141 -55.5t49 -148.5q0 -108 -52.5 -160.5t-137.5 -52.5z" />
    <glyph glyph-name="ffl" unicode="ffl" horiz-adv-x="1685" 
d="M1225 639q-50 2 -142 4v-680q-149 0 -352 -2q-4 318 -6 682h-84q6 93 0 326q37 -2 86 -2v69q0 103 16.5 179.5t53.5 133.5t95.5 84.5t142 31.5t194.5 -25q-13 -83 -21 -316q-65 9 -93 -14.5t-28 -87.5v-57q91 0 146 2q-1 -15 -2.5 -42t-4 -112.5t-1.5 -173.5zM588 610
q-37 2 -105 2v-602q-149 0 -352 -2q-4 267 -6 606h-113q4 82 -2 324q47 -2 117 -4v45q0 117 31.5 203.5t98 142t169.5 67t246 -21.5q-13 -82 -21 -315q-88 13 -125 -12t-39 -91v-24h107q-1 -14 -2 -39.5t-3 -108t-1 -170.5zM1645 -4q-105 4 -195 5t-128 1h-38
q3 468 2.5 779.5t-2.5 466.5l-2 155q106 -4 196.5 -6.5t128.5 -2.5l38 -1q-4 -447 -4 -796.5t2 -474.5z" />
    <glyph glyph-name=".notdef" horiz-adv-x="389" 
 />
    <glyph glyph-name=".null" horiz-adv-x="0" 
 />
    <glyph glyph-name="nonmarkingreturn" horiz-adv-x="682" 
 />
    <glyph glyph-name="space" unicode=" " horiz-adv-x="389" 
 />
    <glyph glyph-name="exclam" unicode="!" horiz-adv-x="479" 
d="M246 -23q-109 0 -172.5 61t-63.5 167q0 97 61.5 158t170.5 61q111 0 169 -65.5t58 -159.5q0 -99 -62 -160.5t-161 -61.5zM86 492q-18 437 -51 938q159 -4 401 0q-21 -338 -41 -941q-14 1 -39.5 2t-108.5 2t-161 -1z" />
    <glyph glyph-name="quotedbl" unicode="&#x22;" horiz-adv-x="641" 
d="M51 950q-14 204 -41 477q99 -1 281 7q-8 -161 -10 -471q-76 -1 -230 -13zM358 946q0 128 -14 510q97 -8 287 -8q-25 -194 -45 -508q-91 6 -228 6z" />
    <glyph glyph-name="numbersign" unicode="#" horiz-adv-x="856" 
d="M475 397q0 75 2 181h-92q0 -54 4 -156q-9 1 -26.5 2t-83 3t-144.5 1q2 57 2 145l-125 -2q8 72 -2 244q47 -2 127 -2q0 123 -2 203q-72 0 -115 -2q4 63 -2 243q47 -2 115 -2q0 48 -4 154q92 -4 252 2q-2 -62 -2 -156l94 2l-4 175q86 -6 252 2q-2 -86 -2 -172l121 4
q-1 -7 -2 -23t-2 -78t0 -139h-117q0 -148 2 -211l125 4q0 -6 -0.5 -21.5t-1.5 -75.5t0 -144l-119 2q0 -57 4 -183q-74 6 -254 0zM379 1022v-211l98 2q0 127 -2 211z" />
    <glyph glyph-name="dollar" unicode="$" horiz-adv-x="870" 
d="M612 -66l-340 5l11 165q-155 38 -221.5 158.5t-61.5 315.5q124 -13 379 -23q-28 -197 61 -197q62 0 62 86q0 29 -6.5 48.5t-29 43t-71.5 47t-129 50.5q-256 85 -256 362q0 132 72.5 217t206.5 113l-8 182q108 0 190.5 1.5t111.5 3.5l29 1q-13 -178 -14 -194
q135 -35 198.5 -142.5t57.5 -318.5q-131 12 -367 16q9 86 -7 137.5t-50 51.5q-51 0 -51 -88q0 -60 41.5 -95t159.5 -71q165 -52 227.5 -132t62.5 -214q0 -286 -262 -354z" />
    <glyph glyph-name="percent" unicode="%" horiz-adv-x="1343" 
d="M328 702q-89 0 -153 30.5t-99 87.5t-50.5 127t-15.5 161q0 167 82.5 261.5t239.5 94.5q160 0 239.5 -100.5t79.5 -286.5q0 -375 -323 -375zM330 868q21 0 33 15.5t19 63t7 134.5q0 85 -6 129.5t-18 61t-35 16.5q-32 0 -46 -45.5t-14 -155.5q0 -88 6.5 -135.5t19 -65.5
t34.5 -18zM326 -8l-168 12q248 409 457.5 763.5t294.5 504.5l85 151q47 -4 91 -5t64 -1h21q-339 -562 -550 -918t-253 -431zM1008 -25q-320 0 -320 398q0 165 84 264.5t240 99.5q165 0 243 -103t78 -278q0 -381 -325 -381zM1010 141q21 0 32.5 15.5t18 62.5t6.5 133
q0 122 -12 165.5t-45 43.5q-32 0 -45 -42.5t-13 -153.5q0 -91 7 -141.5t19 -66.5t32 -16z" />
    <glyph glyph-name="ampersand" unicode="&#x26;" horiz-adv-x="1148" 
d="M457 -57q-203 0 -325 113t-122 294q0 120 56 204t153 151q-119 179 -119 339q0 186 106.5 298t295.5 112q118 0 205 -54.5t128.5 -140t41.5 -188.5q0 -63 -15.5 -118t-37.5 -94t-59.5 -78t-67.5 -63t-76 -56q44 -48 135 -132q28 96 41 193q86 -17 167 -31t120 -19l38 -5
q-29 -212 -100 -367l127 -104q-68 -72 -201 -228q-49 45 -104 94q-151 -120 -387 -120zM416 1038q0 -85 45 -170q88 85 88 181q0 102 -66 102q-30 0 -48.5 -29t-18.5 -84zM512 248q50 0 94 33q-60 54 -196 190q-19 -40 -19 -84q0 -58 32.5 -98.5t88.5 -40.5z" />
    <glyph glyph-name="quotesingle" unicode="'" horiz-adv-x="307" 
d="M35 950q0 110 -25 492q97 -6 287 0q-21 -176 -35 -492q-90 4 -227 0z" />
    <glyph glyph-name="parenleft" unicode="(" horiz-adv-x="589" 
d="M268 -274q-117 182 -177 417.5t-60 466.5q0 273 63.5 515t194.5 405l301 -92q-178 -328 -178 -824q0 -392 178 -802q-89 -21 -169.5 -42.5t-116.5 -32.5z" />
    <glyph glyph-name="parenright" unicode=")" horiz-adv-x="589" 
d="M326 -293q-125 41 -326 88q85 204 131.5 420t46.5 406q0 505 -178 837q108 31 307 94q129 -167 190.5 -411t61.5 -510q0 -238 -58 -481t-175 -443z" />
    <glyph glyph-name="asterisk" unicode="*" horiz-adv-x="606" 
d="M242 770q-59 33 -113.5 60t-78.5 38l-25 11q33 56 67 117t37 65l-129 14q12 61 21.5 120t12.5 87l3 29q93 -31 149 -45q-6 61 -12 106.5t-9 60.5l-3 15q63 0 129.5 2.5t101.5 5.5l35 2q-22 -162 -25 -192q47 13 87.5 25.5t57.5 18.5l17 7q8 -64 18.5 -125.5t16.5 -91.5
l6 -29q-118 -9 -129 -10q32 -60 57.5 -105.5t35.5 -61.5l10 -15q-62 -23 -117 -45.5t-79 -33.5l-24 -12q-32 107 -55 170q-20 -55 -36 -102t-21 -66z" />
    <glyph glyph-name="plus" unicode="+" horiz-adv-x="659" 
d="M188 266q5 220 5 254l-170 -2q3 102 2 164t-3 88l-2 27q122 -4 175 -4l-2 266l274 -6l-4 -262l176 2q-4 -108 -5.5 -176.5t-1.5 -83.5l1 -15q-59 2 -170 2l4 -252z" />
    <glyph glyph-name="comma" unicode="," horiz-adv-x="428" 
d="M170 -258q-45 31 -82.5 58t-52.5 38l-15 12q78 78 115 160q-50 19 -77 63.5t-27 98.5q0 88 52.5 140.5t135.5 52.5t136 -62t53 -158q0 -186 -238 -403z" />
    <glyph glyph-name="hyphen" unicode="-" horiz-adv-x="505" 
d="M23 508l-3 299l465 -4l-6 -295q-117 2 -231 2t-170 -1z" />
    <glyph glyph-name="period" unicode="." horiz-adv-x="415" 
d="M207 -10q-91 0 -139 60t-48 149q0 94 51.5 149t137.5 55q87 0 136.5 -57.5t49.5 -146.5q0 -108 -52 -158.5t-136 -50.5z" />
    <glyph glyph-name="slash" unicode="/" horiz-adv-x="761" 
d="M-10 -266q112 409 229 852.5t179 683.5l61 239q104 -2 182 -2t105 1l26 1q-153 -562 -269.5 -1005.5t-156.5 -606.5l-41 -163q-96 2 -174.5 2t-109.5 -1z" />
    <glyph glyph-name="zero" unicode="0" horiz-adv-x="964" 
d="M479 -57q-236 0 -347.5 187.5t-111.5 567.5q0 385 112.5 562.5t346.5 177.5q245 0 355 -174.5t110 -558.5q0 -390 -109 -576t-356 -186zM477 229q19 0 30 14.5t19.5 65t11.5 146.5t3 260q0 170 -7 264.5t-20.5 131t-36.5 36.5q-20 0 -31.5 -16t-19 -68t-10 -137.5
t-2.5 -235.5q0 -142 3 -230t11 -140t19.5 -71.5t29.5 -19.5z" />
    <glyph glyph-name="one" unicode="1" horiz-adv-x="749" 
d="M264 -6q7 629 2 942q-50 -22 -91.5 -41.5t-58.5 -28.5l-16 -8q-25 99 -50 189t-38 130l-12 40q108 48 217.5 99t164.5 78l56 27q61 -6 110 -13.5t68 -11.5l19 -5q0 -320 3 -669t6 -538l3 -188q-108 -3 -204 -3.5t-137 0.5z" />
    <glyph glyph-name="two" unicode="2" horiz-adv-x="890" 
d="M842 -2q-196 5 -397.5 8t-304.5 4h-103q-5 108 -8.5 213t-4.5 156l-1 51q100 50 184.5 111t153.5 133.5t108 157t39 169.5q0 134 -57 134q-29 0 -45.5 -28t-23.5 -101.5t3 -200.5q-106 0 -354 -8q-38 324 72 487.5t360 163.5q208 0 313 -117t105 -332
q0 -191 -112.5 -365.5t-301.5 -275.5l369 4z" />
    <glyph glyph-name="three" unicode="3" horiz-adv-x="911" 
d="M463 -47q-519 0 -443 567q117 -12 367 -24q-14 -129 2 -184.5t60 -55.5q35 0 54 32t19 115q0 96 -47 136q-47 37 -182 26q-2 91 -12 281q145 -6 192 35q41 32 41 135q0 145 -61 145q-87 0 -64 -243l-366 -21q-17 154 5.5 263.5t84 175.5t153 96t219.5 30q129 0 222 -58
t137.5 -152t44.5 -212q0 -211 -174 -305q89 -36 142.5 -125t53.5 -215q0 -89 -24 -162.5t-65.5 -124.5t-98 -86.5t-122 -52t-138.5 -16.5z" />
    <glyph glyph-name="four" unicode="4" horiz-adv-x="948" 
d="M479 -2l2 242q-78 0 -240 -3t-221 -4q-4 71 -10 353q100 267 178 480t106 292l28 80q193 -5 323.5 -10.5t164.5 -7.5l34 -3q-4 -651 -2 -844q63 0 96 2q0 -9 -0.5 -30.5t-1.5 -104.5t0 -196q-45 2 -92 0l4 -244q-130 -4 -222.5 -4.5t-119.5 0.5zM485 1059
q-34 -113 -139 -486h137q2 281 2 486z" />
    <glyph glyph-name="five" unicode="5" horiz-adv-x="919" 
d="M465 -33q-134 0 -227.5 37.5t-142.5 108.5t-65.5 163.5t-4.5 212.5q92 -7 184.5 -11.5t138.5 -5.5l47 -1q0 -124 15.5 -172.5t52.5 -48.5q32 0 46.5 47t14.5 160q0 256 -63 256q-33 0 -47.5 -43t-16.5 -135q-175 11 -370 34q12 386 18 840q314 2 811 18q-6 -62 -6 -342
q-165 2 -457 -6q-2 -51 -2 -215q90 123 236 123q282 0 282 -495q0 -258 -111.5 -391.5t-332.5 -133.5z" />
    <glyph glyph-name="six" unicode="6" horiz-adv-x="927" 
d="M481 -41q-247 0 -354 180.5t-107 552.5q0 134 11.5 239.5t42.5 206.5t83 168t137 107.5t200 40.5q117 0 200.5 -36t130 -103t65 -154t11.5 -196q-108 5 -199 7.5t-128 2.5h-37q9 186 -45 186q-26 0 -41 -26.5t-23.5 -109t-9.5 -237.5q97 119 223 119q99 0 162.5 -58
t89 -150t25.5 -218q0 -112 -22.5 -200.5t-61.5 -148t-95 -99t-119.5 -57t-138.5 -17.5zM471 623q-26 0 -53 -17q1 -200 15 -271t50 -71q62 0 62 197q0 84 -17.5 123t-56.5 39z" />
    <glyph glyph-name="seven" unicode="7" horiz-adv-x="780" 
d="M154 -35q-18 369 55 656t211 438l-410 -10l8 366q288 4 474.5 8t229.5 7l42 2q-1 -140 0.5 -245t3.5 -140l2 -35q-140 -189 -194 -440t-39 -621z" />
    <glyph glyph-name="eight" unicode="8" horiz-adv-x="948" 
d="M487 -47q-487 0 -487 420q0 112 53 191t146 122q-77 58 -124.5 153t-47.5 208q0 193 122 304t334 111q219 0 336 -110.5t117 -304.5q0 -223 -197 -342q209 -102 209 -326q0 -115 -35 -199.5t-99 -133t-145 -71t-182 -22.5zM471 236q76 0 76 122q0 60 -23 110.5t-61 72.5
q-35 -22 -55.5 -70t-20.5 -98q0 -137 84 -137zM485 840q27 27 44.5 79t17.5 109q0 143 -74 143t-74 -131q0 -65 22.5 -118t63.5 -82z" />
    <glyph glyph-name="nine" unicode="9" horiz-adv-x="931" 
d="M438 -45q-96 0 -172 26.5t-125 74.5t-80 115.5t-37 148.5t3 174q119 -14 210.5 -22.5t123.5 -10.5l32 -2q-11 -103 5.5 -153t52.5 -50q27 0 40.5 26t20.5 97t8 213q-62 -68 -158 -68q-181 0 -266.5 121t-85.5 336q0 222 115 350.5t326 128.5q158 0 257.5 -74.5
t151 -245.5t51.5 -450q0 -202 -31 -345t-92.5 -228t-147 -123.5t-202.5 -38.5zM473 754q20 0 47 10q-1 174 -8 264.5t-20 121t-37 30.5q-66 0 -66 -209q0 -217 84 -217z" />
    <glyph glyph-name="colon" unicode=":" horiz-adv-x="421" 
d="M211 -31q-85 0 -135.5 60t-50.5 149q0 91 53.5 150t136.5 59q80 0 133 -58.5t53 -150.5q0 -102 -51.5 -155.5t-138.5 -53.5zM207 514q-88 0 -137.5 60.5t-49.5 148.5q0 92 55 148.5t134 56.5q87 0 136.5 -58t49.5 -147q0 -108 -52 -158.5t-136 -50.5z" />
    <glyph glyph-name="semicolon" unicode=";" horiz-adv-x="432" 
d="M162 -268q-41 30 -79 56t-55 37l-18 11q82 97 117 164q-41 22 -66.5 67.5t-25.5 102.5q0 86 50.5 139t141.5 53q87 0 136 -61t49 -151q0 -187 -250 -418zM221 504q-85 0 -135.5 60t-50.5 149q0 91 53.5 150t136.5 59q80 0 133.5 -59t53.5 -150q0 -102 -52 -155.5
t-139 -53.5z" />
    <glyph glyph-name="less" unicode="&#x3c;" horiz-adv-x="581" 
d="M555 236q-233 135 -535 299q1 7 2 25t2 89t-1 172q203 100 538 303q-1 -9 -2 -28.5t-3 -105t-1 -199.5q-107 -41 -283 -117q121 -53 289 -117q-1 -10 -2 -31.5t-3 -104t-1 -185.5z" />
    <glyph glyph-name="equal" unicode="=" horiz-adv-x="618" 
d="M27 350q1 23 -7 275q262 -2 578 4q-2 -62 -2 -279q-306 4 -569 0zM598 702l-578 5l7 274q117 -2 259.5 -2t225.5 1l84 1z" />
    <glyph glyph-name="greater" unicode="&#x3e;" horiz-adv-x="579" 
d="M27 229q1 103 -1 186.5t-4 115.5l-2 32q181 67 283 117q-61 30 -130 59t-107 43l-39 13q2 126 1 199.5t-3 102.5l-2 29q156 -93 289.5 -168.5t189.5 -105.5l55 -29q-2 -108 -1.5 -169.5t2.5 -83.5l1 -23q-136 -77 -269 -156.5t-198 -120.5z" />
    <glyph glyph-name="question" unicode="?" horiz-adv-x="899" 
d="M199 481q0 88 -1.5 172t-3.5 124l-1 40q173 -3 236 39t63 158q0 147 -52 147q-39 0 -48.5 -52t-6.5 -175q-154 -6 -369 -12q-30 276 83.5 403t373.5 127q103 0 184 -31t131 -85.5t75.5 -125.5t25.5 -155q0 -367 -326 -457l2 -113q-110 3 -191.5 2t-127.5 -3zM385 -25
q-116 0 -177 63.5t-61 164.5q0 102 65.5 161.5t166.5 59.5q113 0 171 -61t58 -168q0 -98 -60.5 -159t-162.5 -61z" />
    <glyph glyph-name="at" unicode="@" horiz-adv-x="1402" 
d="M893 -274q-424 -83 -648.5 127t-224.5 659q0 389 185 603t500 214q175 0 305.5 -56.5t211.5 -163t120.5 -253t39.5 -334.5q0 -153 -18 -259.5t-54.5 -168t-85 -88t-114.5 -26.5q-156 0 -199 149q-75 -141 -278 -141q-80 0 -141.5 26.5t-96.5 71.5t-52 97t-17 110
q0 150 103 227t319 78v29q0 159 -48 159q-26 0 -36.5 -33t-6.5 -116q-117 -2 -305 -14q-21 188 76.5 309t290.5 121q88 0 157 -32t111.5 -88.5t66 -127t27.5 -152.5q7 -140 2 -342q-3 -125 43 -125q20 0 32.5 23.5t21 99t8.5 209.5q0 323 -114 479t-367 156
q-232 0 -362 -168.5t-130 -470.5q0 -118 15.5 -213t49 -172.5t85 -128.5t123 -81t165 -31t209.5 22q15 -78 31 -184zM766 381l2 68q-139 -19 -139 -142q0 -35 16.5 -56.5t46.5 -21.5q36 0 51.5 31t22.5 121z" />
    <glyph glyph-name="A" unicode="A" horiz-adv-x="958" 
d="M0 31q90 545 205 1399q132 5 263 7t196 1h65q94 -691 229 -1469q-151 4 -391 -2q-4 68 -16 230q-37 2 -172 2l-12 -172q-13 1 -38.5 2t-120.5 2t-208 0zM463 1126q-41 -376 -62 -628h125z" />
    <glyph glyph-name="B" unicode="B" horiz-adv-x="923" 
d="M59 6q-4 666 -18 1415q207 39 371 39q249 0 369 -99t120 -304q0 -107 -51 -184t-139 -115q105 -43 159 -132.5t54 -219.5q0 -221 -146.5 -320.5t-417.5 -99.5q-119 0 -301 20zM422 260q68 -2 101.5 34t33.5 128q0 86 -34 129t-109 43q1 -102 3 -185.5t3 -116.5zM414 1176
v-316q143 -3 143 156q0 87 -35 125t-108 35z" />
    <glyph glyph-name="C" unicode="C" 
d="M481 -35q-247 0 -354 172t-107 574q0 391 116 574t370 183q99 0 175.5 -31.5t125.5 -85.5t80 -131t42 -164t7 -188q-106 0 -204.5 2t-144.5 4l-46 3q1 168 -10 226t-44 58q-19 0 -31 -20t-19.5 -72t-10 -138t-0.5 -222q0 -142 3 -227t10.5 -131.5t18 -61.5t27.5 -15
q21 0 32.5 23.5t17.5 95.5t4 205q59 2 122 3.5t111 2t87 0.5h60h21q1 -150 -22 -263t-62.5 -184t-99.5 -115t-126.5 -61t-148.5 -16z" />
    <glyph glyph-name="D" unicode="D" horiz-adv-x="948" 
d="M418 262q45 -3 65.5 19t32.5 115.5t12 293.5q0 177 -11 273t-37 136.5t-74 35.5q1 -193 4 -411t6 -340zM41 -8l2 1427q165 27 270 27q170 0 287 -45t190 -141.5t105.5 -239.5t32.5 -348q0 -374 -148.5 -539.5t-449.5 -165.5q-123 0 -289 25z" />
    <glyph glyph-name="E" unicode="E" horiz-adv-x="733" 
d="M57 6q-4 594 -16 1417q175 3 668 7q-2 -150 4 -363q-196 -2 -305 -6v-191q173 0 254 2q-2 -145 2 -346q-111 2 -248 2q0 -69 6 -180q115 -8 287 -14q-4 -115 -4 -342q-303 10 -648 14z" />
    <glyph glyph-name="F" unicode="F" horiz-adv-x="737" 
d="M57 6q0 590 -16 1415q274 1 676 9q-4 -123 -4 -367q-90 4 -301 -2q-2 -105 0 -287q173 0 278 4q-2 -147 2 -358q-84 4 -274 0q5 -283 8 -412z" />
    <glyph glyph-name="G" unicode="G" horiz-adv-x="962" 
d="M481 -37q-88 0 -155.5 20.5t-126.5 71.5t-97.5 134t-60 211.5t-21.5 299.5q0 393 114.5 572.5t359.5 179.5q115 0 202 -46t138.5 -127t74 -187.5t15.5 -233.5q-305 2 -375 4q2 107 -5.5 171.5t-21.5 90t-37 25.5q-21 0 -33.5 -18t-21.5 -68.5t-12 -138t-2 -228.5
q1 -190 10.5 -290.5t26.5 -134t47 -33.5q23 0 36.5 20.5t19.5 69t5 133.5q-35 -2 -86 -6q2 113 -2 303q287 -2 467 -2q6 -195 -12 -336.5t-54.5 -229t-97.5 -139t-130.5 -70t-164.5 -18.5z" />
    <glyph glyph-name="H" unicode="H" horiz-adv-x="929" 
d="M516 -41v461q-59 0 -102 -2l6 -373q-156 6 -371 -2q2 544 -8 1343q87 -1 365 3q2 -264 6 -658q49 -2 102 -2q0 124 -2.5 391.5t-3.5 339.5q133 -2 375 2q0 -669 6 -1505q-16 1 -45.5 2t-129 2t-198.5 -2z" />
    <glyph glyph-name="I" unicode="I" horiz-adv-x="483" 
d="M59 -2q2 628 -8 1423q127 0 371 2q4 -687 10 -1425q-123 2 -373 0z" />
    <glyph glyph-name="J" unicode="J" horiz-adv-x="858" 
d="M414 -20q-209 0 -306.5 122t-97.5 355q0 131 25 250q104 -13 325 -27q-10 -85 -10 -156q0 -200 56 -200q23 0 36 33t21 137.5t8 298.5q0 289 -47 639q133 12 360 28q54 -371 54 -688q0 -127 -8 -228t-26.5 -192.5t-50.5 -158t-78 -115.5t-111.5 -73.5t-149.5 -24.5z" />
    <glyph glyph-name="K" unicode="K" horiz-adv-x="972" 
d="M573 -53q-51 271 -81 415q-52 -137 -76 -215l4 -114q-135 2 -219 1.5t-122 -2.5l-38 -1q3 346 3 686.5t-2 508.5l-1 167l377 -2q-6 -414 -6 -697q55 234 97.5 426.5t57.5 267.5l15 76q111 -5 207.5 -8t136.5 -4h41q-148 -501 -211 -725q56 -209 110.5 -398.5t80.5 -274.5
l26 -85q-96 -4 -196 -9.5t-152 -9.5z" />
    <glyph glyph-name="L" unicode="L" horiz-adv-x="716" 
d="M53 8q0 567 -12 1403q121 -4 369 0q-6 -207 8 -1067l299 -6l-2 -338q-75 3 -240.5 5t-293.5 3h-128z" />
    <glyph glyph-name="M" unicode="M" horiz-adv-x="1384" 
d="M20 25q36 583 54 1361q236 -3 516 7q37 -337 90 -717q55 379 90 782q278 -10 535 -18q2 -574 59 -1465q-197 -10 -381 -16q11 451 -12 1077q-75 -467 -105 -839q-190 2 -364 10q-27 278 -101 754q0 -540 9 -945q-234 7 -390 9z" />
    <glyph glyph-name="N" unicode="N" horiz-adv-x="991" 
d="M47 37q8 504 -6 1329q147 10 348 16q86 -261 244 -696q-15 307 -53 776q14 -1 40.5 -2t113.5 -3t179 -1q10 -549 37 -1460q-103 -17 -332 -35q-102 292 -256 703q7 -244 31 -633q-135 6 -346 6z" />
    <glyph glyph-name="O" unicode="O" horiz-adv-x="970" 
d="M485 -39q-248 0 -355.5 180t-109.5 547q0 143 12.5 254.5t44.5 210t83.5 163t133 101.5t189.5 37q112 0 194 -34.5t134 -95.5t83.5 -159t43.5 -210.5t12 -264.5q-2 -267 -53.5 -428t-151 -231t-260.5 -70zM489 242q23 0 34 28t17.5 130t6.5 307q0 150 -3 239.5t-11.5 137
t-19 62.5t-28.5 15q-40 0 -50.5 -83t-10.5 -386q0 -197 7 -294.5t19.5 -126.5t38.5 -29z" />
    <glyph glyph-name="P" unicode="P" horiz-adv-x="915" 
d="M41 12q1 61 2.5 175.5t4 481t1.5 748.5q154 15 225 15q331 0 481 -138.5t150 -433.5q0 -257 -130 -404.5t-363 -150.5q4 -186 8 -291q-160 4 -379 -2zM406 1100q-4 -171 0 -506q66 8 94 62t28 192q0 136 -30.5 196.5t-91.5 55.5z" />
    <glyph glyph-name="Q" unicode="Q" horiz-adv-x="970" 
d="M635 -287q-52 140 -100 246q-40 -4 -62 -4q-221 0 -337 178t-116 531q0 283 47.5 455t145.5 250.5t258 78.5q106 0 181 -22t134 -75.5t94 -146.5t52.5 -230.5t17.5 -332.5q0 -373 -143 -545q36 -58 71 -111t52 -77l16 -23q-107 -56 -184.5 -99t-101.5 -58zM485 227
q20 0 30.5 13.5t18.5 59.5t10.5 127t2.5 224q0 139 -2.5 233t-7 149.5t-13.5 84.5t-17.5 37t-23.5 8q-18 0 -28 -16t-17.5 -68.5t-10.5 -153t-3 -268.5q0 -179 7 -274.5t19.5 -125.5t34.5 -30z" />
    <glyph glyph-name="R" unicode="R" horiz-adv-x="937" 
d="M573 -45q-47 202 -133 516q-14 -2 -28 -2l8 -440q-160 2 -379 -2q1 61 2.5 175t4 480.5t1.5 749.5q182 34 328 34q280 0 414.5 -129.5t134.5 -386.5q0 -249 -172 -372q65 -216 204 -598q-139 -11 -385 -25zM412 717q127 3 127 207q0 111 -33 172t-100 55z" />
    <glyph glyph-name="S" unicode="S" horiz-adv-x="905" 
d="M455 -27q-255 0 -358 135.5t-85 401.5q152 -4 381 -4q-18 -240 60 -240q30 0 42.5 25t12.5 90q0 60 -37.5 105.5t-138.5 97.5q-177 89 -246.5 198t-69.5 279q0 105 33.5 182t94.5 122.5t140.5 67t178.5 21.5q234 0 336 -138t75 -405q-188 17 -370 21q12 86 6.5 137.5
t-19 72.5t-34.5 21q-54 0 -54 -119q0 -131 142 -194q140 -63 215.5 -127.5t105 -142t29.5 -195.5q0 -211 -117 -311.5t-323 -100.5z" />
    <glyph glyph-name="T" unicode="T" horiz-adv-x="827" 
d="M12 1067q4 91 -2 354q278 -1 807 9q-1 -15 -2 -43.5t-3 -123t-1 -196.5q-82 2 -217 2q0 -383 8 -1079q-121 4 -369 -2q4 420 -2 1081z" />
    <glyph glyph-name="U" unicode="U" 
d="M492 -29q-249 0 -360.5 202.5t-111.5 647.5q0 277 46 586q106 -18 354 -49q-33 -280 -33 -520q0 -190 10.5 -306.5t28.5 -162t45 -45.5q26 0 40.5 27.5t24 123.5t9.5 275q0 316 -47 684q139 3 368 30q64 -366 64 -737q0 -389 -106 -572.5t-332 -183.5z" />
    <glyph glyph-name="V" unicode="V" horiz-adv-x="901" 
d="M164 -23q-41 385 -82 733.5t-62 505.5l-20 156q93 0 185.5 1.5t138.5 2.5l47 2q28 -602 67 -1097q28 346 47.5 634t24.5 403l6 116q110 -1 206.5 0t137.5 2l41 2q-73 -524 -121.5 -891t-60.5 -473l-12 -105q-259 -2 -543 8z" />
    <glyph glyph-name="W" unicode="W" horiz-adv-x="1388" 
d="M756 -61q-33 530 -62 862q-34 -249 -58.5 -438.5t-31.5 -254.5l-8 -65q-165 9 -282 12.5t-152 2.5l-35 -1q-27 388 -56.5 721.5t-44.5 473.5l-16 139l400 8q0 -355 10 -918q46 332 77 543t39 256l7 45q101 2 172.5 0.5t110.5 -3.5l38 -3q62 -599 119 -997q4 386 4 665
t-2 365l-2 86q96 -4 195 -7t150 -3l50 -1q-36 -420 -63.5 -788.5t-36.5 -526.5l-10 -159q-169 -10 -297 -13.5t-171 -1.5z" />
    <glyph glyph-name="X" unicode="X" horiz-adv-x="1021" 
d="M436 31q-125 7 -234 11.5t-156 5.5l-46 1q152 463 201 629q-55 240 -172 702q111 1 397 13q19 -153 76 -502q21 160 37 301.5t22 202.5l6 61q108 -4 213.5 -6t157.5 -2h51q-110 -448 -174 -737q62 -221 113.5 -400t72.5 -247l21 -68q-147 -7 -256 -14t-144 -10l-36 -3
q-29 285 -66 537q-23 -116 -44 -235t-30 -179z" />
    <glyph glyph-name="Y" unicode="Y" horiz-adv-x="983" 
d="M315 -31q6 42 -4 307q-65 287 -311 1106q68 -1 403 13q23 -194 99 -615q55 327 100 656q11 -1 36 -2t123 -3t222 -1q-127 -450 -301 -1145q-4 -28 6 -314q-75 6 -373 -2z" />
    <glyph glyph-name="Z" unicode="Z" horiz-adv-x="786" 
d="M760 -10q-219 7 -404 11t-260 5h-76q3 117 3.5 210.5t0.5 127.5l-1 35q230 428 350 674l-346 -13q1 142 0.5 225t-1.5 115l-1 33l733 19q2 -60 3.5 -124t2 -112.5t0.5 -88v-60.5v-21q-197 -379 -338 -678q71 -4 155.5 -6.5t133.5 -3.5h49q-4 -126 -5 -213t0 -111z" />
    <glyph glyph-name="bracketleft" unicode="[" horiz-adv-x="581" 
d="M551 -262q-23 1 -64 2t-167 3t-250 1q3 547 -9 1755q121 -2 482 4q-2 -112 6 -307q-43 0 -119 -6q-8 -582 0 -1120q45 -4 131 -4q-6 -99 -10 -328z" />
    <glyph glyph-name="backslash" unicode="\" horiz-adv-x="761" 
d="M772 -266q-100 4 -315 0q-124 513 -467 1775q80 -4 313 0q217 -857 469 -1775z" />
    <glyph glyph-name="bracketright" unicode="]" horiz-adv-x="581" 
d="M31 -254q-2 102 -4.5 184.5t-4.5 113.5l-2 32l132 4q4 240 4.5 524t-0.5 448l-2 165h-121l2 307l485 -4q-8 -536 -11 -977.5t-2 -614.5l1 -174q-76 1 -195 -1t-201 -5z" />
    <glyph glyph-name="asciicircum" unicode="^" horiz-adv-x="753" 
d="M754 592q-11 1 -32.5 3t-97.5 5t-163 2q-27 169 -84 465q-31 -139 -92 -483q-95 10 -285 14q80 241 244 813q10 -1 30 -2t89.5 -2t146.5 0q58 -232 244 -815z" />
    <glyph glyph-name="underscore" unicode="_" horiz-adv-x="600" 
d="M12 -236l-2 279q141 -3 286 -4t220 -1l74 1q-2 -55 -3.5 -103t-2 -78.5t-0.5 -52.5v-31v-10q-117 2 -260 2t-228 -1z" />
    <glyph glyph-name="grave" unicode="`" horiz-adv-x="915" 
d="M504 1065q-61 76 -262 297q61 41 211 156q57 -98 219 -334q-57 -33 -168 -119z" />
    <glyph glyph-name="a" unicode="a" horiz-adv-x="866" 
d="M305 -31q-130 0 -212.5 74.5t-82.5 204.5q0 182 123 272.5t346 85.5v29q-1 82 -13 113.5t-36 31.5q-26 0 -38 -33.5t-15 -105.5q-15 -1 -42 -1.5t-116.5 -1.5t-179.5 1q-3 174 99 282.5t306 108.5q380 0 390 -420q3 -136 3 -294t-1 -248l-2 -91q-81 -2 -269 -4
q6 62 8 144q-64 -148 -268 -148zM496 408l-2 41q-71 -10 -102.5 -50t-31.5 -96q0 -84 62 -84q37 0 55.5 41t18.5 148z" />
    <glyph glyph-name="b" unicode="b" horiz-adv-x="933" 
d="M45 -31q2 445 -4 1430q12 0 38.5 -0.5t122 -1.5t214.5 0q-15 -196 -19 -494q81 125 224 125q292 0 292 -522q0 -125 -26.5 -221.5t-74 -156t-108 -90t-131.5 -30.5q-92 0 -154 34.5t-93 94.5q0 -48 4 -166q-99 0 -285 -2zM465 225q55 0 55 287q0 149 -12.5 211.5
t-42.5 62.5q-57 0 -57 -266q0 -168 12 -231.5t45 -63.5z" />
    <glyph glyph-name="c" unicode="c" horiz-adv-x="890" 
d="M459 -25q-439 0 -439 537q0 253 115.5 390.5t337.5 137.5q104 0 187 -39t132.5 -104.5t72.5 -150t14 -177.5q-116 4 -207 6.5t-124 2.5h-34q6 204 -57 204q-31 0 -43.5 -62t-12.5 -220q0 -130 13.5 -187t46.5 -57q61 0 51 184q81 -4 369 6q3 -130 -29 -224t-92.5 -146.5
t-134.5 -76.5t-166 -24z" />
    <glyph glyph-name="d" unicode="d" horiz-adv-x="935" 
d="M889 -35q-105 2 -289 2q2 70 4 176q-69 -153 -235 -153q-165 0 -257 132.5t-92 418.5q0 228 80.5 362.5t241.5 134.5q121 0 195 -112q-7 191 -23 475q75 -6 381 2q-1 -73 -2.5 -197t-4 -516.5t0.5 -724.5zM471 223q17 0 27.5 18t19 86.5t8.5 192.5q0 137 -14 202.5
t-47 65.5q-18 0 -29 -24t-16.5 -87.5t-5.5 -176.5q0 -277 57 -277z" />
    <glyph glyph-name="e" unicode="e" horiz-adv-x="911" 
d="M461 -20q-101 0 -178.5 27.5t-126.5 75t-80 117t-43.5 146t-12.5 170.5q0 111 24.5 203t75.5 165t137.5 113.5t201.5 40.5q470 0 426 -614q-196 0 -492 -4q4 -101 20.5 -144t49.5 -43q54 0 59 117q191 -2 369 -8q-23 -173 -138 -267.5t-292 -94.5zM457 803
q-32 0 -46.5 -43t-17.5 -162q78 0 119 2q3 203 -55 203z" />
    <glyph glyph-name="f" unicode="f" horiz-adv-x="641" 
d="M625 639q-52 2 -142 4v-639q-149 0 -352 -2q-4 288 -6 641h-113q4 96 -2 338q47 -2 117 -6v20q2 212 77 321t247 109q90 0 200 -26q-12 -83 -20 -316q-32 4 -45 4q-53 0 -75 -26.5t-24 -79.5v-16q45 -2 144 -2q-1 -14 -2 -40.5t-3 -111t-1 -172.5z" />
    <glyph glyph-name="g" unicode="g" horiz-adv-x="856" 
d="M432 -535q-198 0 -310 66t-112 188q0 74 51 131t129 76q-98 59 -98 160q0 47 31 93.5t90 82.5q-193 96 -193 389q0 190 110 302t308 112l37 -2q1 11 13 121t20 202q98 -28 321 -75q-53 -105 -149 -310q80 -51 122 -140.5t42 -209.5q0 -213 -107.5 -324.5t-277.5 -111.5
q-32 0 -90 4q-11 -11 -11 -24q0 -18 30.5 -28.5t131.5 -21.5q196 -22 281.5 -101.5t85.5 -213.5q0 -92 -38 -163.5t-103 -114.5t-145 -65t-169 -22zM436 406q56 0 56 204q0 217 -56 217q-63 0 -63 -215q0 -117 16 -161.5t47 -44.5zM551 -236q0 38 -43 58t-121 22
q-21 -13 -34 -37t-13 -45q0 -35 27.5 -55t74.5 -20q51 0 80 20t29 57z" />
    <glyph glyph-name="h" unicode="h" horiz-adv-x="888" 
d="M41 41q1 66 2.5 180.5t4 478.5t-2.5 682q104 -2 348 2q-8 -207 -8 -487q84 141 238 141q107 0 165.5 -85.5t63.5 -231.5q4 -146 5.5 -336t0.5 -307v-117q-124 4 -362 4q4 357 0 680q0 37 -10.5 52.5t-32.5 15.5q-24 0 -34.5 -14.5t-10.5 -53.5l-2 -602q-113 2 -365 -2z
" />
    <glyph glyph-name="i" unicode="i" horiz-adv-x="452" 
d="M53 2q2 283 -6 1034q119 -2 359 2q-2 -365 8 -1034q-154 0 -361 -2zM231 1114q-109 0 -165 56t-56 161q0 95 58.5 148t162.5 53q99 0 155 -58.5t56 -146.5q0 -94 -54.5 -153.5t-156.5 -59.5z" />
    <glyph glyph-name="j" unicode="j" horiz-adv-x="454" 
d="M223 1112q-109 0 -161 60t-52 151q0 98 53.5 153.5t163.5 55.5q100 0 158.5 -55t58.5 -146q0 -99 -59 -159t-162 -60zM-174 -469q8 125 8 336q16 -2 47 -2q94 0 132 44t40 138q3 193 3 412t-2 396l-3 177l350 2q2 -44 4 -125.5t6 -355.5t-1 -553q-1 -87 -16.5 -156.5
t-51 -129.5t-92 -100t-142 -62.5t-198.5 -22.5q-55 0 -84 2z" />
    <glyph glyph-name="k" unicode="k" horiz-adv-x="931" 
d="M545 -49q-18 79 -44 190t-32 140q-37 -64 -66 -125l3 -123l-365 4q3 420 3 758.5t-2 466.5l-1 129q115 -4 206.5 -5t126.5 0h34q-5 -435 -5 -774l129 424l400 -20q-39 -79 -207 -430q54 -171 105.5 -328t76.5 -228l25 -71q-118 -1 -215 -3t-135 -4z" />
    <glyph glyph-name="l" unicode="l" horiz-adv-x="444" 
d="M403 37q-66 2 -127.5 3.5t-102 2t-71.5 0.5h-45h-14q3 466 2.5 765t-2.5 440l-2 141l362 -11q-4 -447 -4 -782.5t2 -447.5z" />
    <glyph glyph-name="m" unicode="m" horiz-adv-x="1347" 
d="M47 35q0 413 -6 983l295 -2q-2 -70 -4 -158q42 79 112 127.5t158 48.5q89 0 144 -47t77 -123q37 74 104.5 118t159.5 44q112 0 167.5 -74.5t58.5 -210.5q3 -158 4 -351.5t1 -307.5l-1 -115q-123 2 -361 0q-2 370 -6 670q0 82 -41 82q-47 0 -47 -92q-2 -124 -2 -268.5
t1 -226.5l1 -83q-173 0 -368 -2q1 36 2 96.5t3 214t1 267.5q0 88 -47 88t-47 -99q-1 -110 0.5 -255t3.5 -235l2 -89q-193 2 -365 0z" />
    <glyph glyph-name="n" unicode="n" horiz-adv-x="886" 
d="M492 -37q4 359 4 682q0 36 -10 52t-33 16q-25 0 -34 -16t-11 -52q-2 -67 -2.5 -220t0.5 -273v-119q-164 2 -365 0q1 43 2 120.5t3 335t-1 508.5q119 -4 283 2l-2 -155q36 83 112 136.5t164 53.5q119 0 182 -78.5t68 -224.5q2 -49 3 -240.5t1 -358.5v-167z" />
    <glyph glyph-name="o" unicode="o" horiz-adv-x="915" 
d="M455 -16q-120 0 -206 38.5t-135 112t-71.5 170t-22.5 223.5q0 244 114 378t327 134q222 0 328 -139t106 -389q0 -280 -112.5 -404t-327.5 -124zM459 217q20 0 30.5 18.5t17.5 84t7 190.5q0 120 -6 182.5t-17 83.5t-32 21q-23 0 -34.5 -21t-17.5 -79.5t-6 -172.5
q0 -134 6.5 -201t18 -86.5t33.5 -19.5z" />
    <glyph glyph-name="p" unicode="p" horiz-adv-x="935" 
d="M41 -393q4 284 4 631.5t-2 553.5l-2 205q81 -2 146 -1.5t106 2.5l41 1q-6 -111 -6 -155q34 91 99 144.5t159 53.5q160 0 244.5 -148.5t84.5 -391.5q0 -258 -84 -384t-219 -126q-75 0 -131 29t-84 83q4 -172 8.5 -295.5t7.5 -161.5l3 -38q-132 3 -215.5 3t-121.5 -2z
M469 231q19 0 29 17t17 82t7 188q0 108 -5.5 168t-16.5 82.5t-29 22.5q-34 0 -45.5 -56.5t-11.5 -210.5q0 -99 2.5 -155t9.5 -88t16.5 -41t26.5 -9z" />
    <glyph glyph-name="q" unicode="q" horiz-adv-x="935" 
d="M524 -436q12 381 15 534q-57 -106 -197 -106q-151 0 -236.5 129t-85.5 414q0 230 94.5 373t250.5 143q83 0 146 -47t91 -117l-6 174q107 -2 181.5 -2t96.5 1l21 1q-4 -405 -4 -778.5t2 -544.5l2 -172zM469 231q31 0 43 64t12 227q0 269 -55 269q-33 0 -45 -63t-12 -206
q0 -156 13 -223.5t44 -67.5z" />
    <glyph glyph-name="r" unicode="r" horiz-adv-x="626" 
d="M45 -8q4 523 -4 1034q53 -4 299 2q-6 -76 -8 -180q40 91 123.5 149t171.5 56q-11 -100 -15 -369q-111 -18 -157 -82t-49 -182q-2 -90 -1.5 -185t1.5 -168l2 -73q-94 2 -363 -2z" />
    <glyph glyph-name="s" unicode="s" horiz-adv-x="819" 
d="M420 -31q-416 0 -410 412q115 0 344 -14q-2 -72 12 -106t54 -34q22 0 36.5 17t14.5 49q0 35 -31 61t-118 52q-165 49 -233.5 124.5t-68.5 200.5q0 141 106 230.5t292 89.5q190 0 289.5 -111.5t93.5 -304.5q-16 1 -45 2.5t-115 4t-168 1.5q7 139 -59 139
q-29 0 -43.5 -17.5t-14.5 -41.5q0 -75 140 -119q170 -52 241.5 -125t71.5 -188q0 -84 -31 -147.5t-85.5 -100.5t-123 -55.5t-149.5 -18.5z" />
    <glyph glyph-name="t" unicode="t" horiz-adv-x="657" 
d="M14 682l-4 311q35 -2 99 -2l4 275q115 -2 203 -2t118 1l31 1q-2 -119 -4 -279h157l-2 -307l-157 2q0 -92 4 -244q3 -90 96 -90q25 0 59 6l19 -327q-121 -27 -199 -27q-326 0 -329 334q-3 185 -3 348h-92z" />
    <glyph glyph-name="u" unicode="u" horiz-adv-x="888" 
d="M324 -20q-103 0 -166 56t-95 186t-32 349q0 230 26 461q88 -14 338 -24q-12 -122 -12 -306q0 -106 3.5 -181t8.5 -120t14.5 -70.5t19 -33.5t22.5 -8q43 0 43 90q2 161 -2 326.5t-8 250.5l-5 86q11 -1 35 -2t118 -3t212 -1q-4 -404 4 -1079q-10 1 -30 1.5t-93.5 1.5
t-163.5 -1q2 77 2 186q-33 -80 -97.5 -122.5t-141.5 -42.5z" />
    <glyph glyph-name="v" unicode="v" horiz-adv-x="849" 
d="M702 23q-152 -5 -289 -8.5t-198 -4.5h-61q-41 271 -79.5 511.5t-56.5 344.5l-18 105q93 0 185.5 2.5t138.5 4.5l47 3q14 -240 26 -421t17 -242l6 -60q29 261 48 461t24 269l4 69q99 -6 187.5 -9.5t127.5 -3.5h39q-50 -328 -87 -583t-49 -347z" />
    <glyph glyph-name="w" unicode="w" horiz-adv-x="1343" 
d="M729 -16q-13 163 -29 319.5t-26 231.5l-10 75q-21 -176 -35 -322t-17 -204l-4 -57q-146 6 -263.5 8t-162.5 1l-45 -1q-37 284 -71.5 524.5t-49.5 338.5l-16 99l367 7q7 -221 15.5 -389t13.5 -225l5 -58q31 221 52 395t27 237l5 64q120 3 209 3t118 -1l30 -2
q37 -297 62 -482.5t32 -223.5l6 -37q13 275 18.5 469t5.5 250l-1 57q111 -4 205.5 -5t133.5 -1h39q-45 -320 -79.5 -587.5t-45.5 -374.5l-12 -107q-169 2 -275 1.5t-154 -1.5z" />
    <glyph glyph-name="x" unicode="x" 
d="M0 25q128 302 195 475q-49 143 -94 266.5t-65 175.5l-20 51q119 -4 213 -4.5t128 1.5l34 1q24 -108 78 -319q32 116 55 207.5t30 124.5l7 34q120 -4 213 -5.5t126 -0.5h34q-126 -327 -186 -518q57 -160 107.5 -295.5t72.5 -191.5l22 -56q-110 4 -205 4t-135 -2l-39 -2
q-35 130 -98 357q-21 -79 -39 -154t-26 -110l-7 -35q-130 3 -219 2t-136 -3z" />
    <glyph glyph-name="y" unicode="y" horiz-adv-x="925" 
d="M600 -449l-356 43l49 297q-79 307 -152.5 578t-106.5 389l-34 117q108 0 206.5 4t143.5 8l45 4q17 -187 36 -344.5t29 -222.5l11 -64q21 208 34 380.5t16 241.5l3 69l402 -17q-123 -535 -204.5 -906t-101.5 -474z" />
    <glyph glyph-name="z" unicode="z" horiz-adv-x="749" 
d="M725 4q-214 9 -390 13t-245 3h-70q4 76 5 140t1 90l-1 26q98 128 170.5 230t96.5 140l23 38q-91 0 -160 -2t-93 -4l-23 -2q-1 110 -3.5 193.5t-4.5 112.5l-2 28q208 1 381.5 5t243.5 7l69 4q-1 -108 0.5 -179.5t3.5 -89.5l2 -18q-103 -136 -177.5 -242t-97.5 -144
l-24 -38q104 -4 178.5 -5t97.5 0l23 1q-4 -121 -5 -197.5t0 -93.5z" />
    <glyph glyph-name="braceleft" unicode="{" horiz-adv-x="661" 
d="M633 -246q-115 -28 -213 -28q-151 0 -214 76t-63 241l7 268q0 97 -30.5 133.5t-109.5 36.5q1 12 2 36.5t2 107.5t0 176q75 -4 105.5 31.5t30.5 119.5q0 43 -6.5 144.5t-6.5 150.5q0 136 71 204.5t234 68.5q85 0 191 -25q-1 -108 1 -183.5t4 -97.5l3 -22
q-88 8 -116.5 -9.5t-28.5 -80.5q0 -39 7 -128.5t7 -135.5q0 -72 -34 -118t-107 -81q76 -33 106.5 -83.5t30.5 -139.5q0 -35 -4 -119t-4 -125q0 -76 27.5 -98.5t115.5 -16.5q-5 -94 -7 -169.5t-2 -104.5z" />
    <glyph glyph-name="bar" unicode="|" horiz-adv-x="452" 
d="M68 -264q3 915 -7 1773q13 -1 39 -2t111.5 -3t179.5 -1q-1 -84 -2.5 -231t-4 -622.5t0.5 -909.5q-94 6 -317 -4z" />
    <glyph glyph-name="braceright" unicode="}" horiz-adv-x="661" 
d="M29 -258q3 84 -9 295q80 -8 114 13t34 85q0 37 -7 139t-7 152q0 92 37.5 147.5t119.5 81.5q-79 25 -118 69.5t-39 127.5q0 48 8 132.5t8 125.5q0 60 -31.5 77.5t-118.5 12.5q1 8 3 25.5t4.5 96.5t1.5 187q91 21 174 21q173 0 247 -66.5t74 -197.5q0 -57 -8 -161t-8 -147
q0 -82 30 -112.5t109 -30.5q-1 -93 0 -170.5t3 -108.5l1 -32q-84 4 -115.5 -30.5t-31.5 -125.5q0 -60 7 -172.5t7 -165.5q0 -148 -67 -224t-222 -73q-78 0 -200 29z" />
    <glyph glyph-name="asciitilde" unicode="~" horiz-adv-x="788" 
d="M203 1077q-82 3 -193 13q-1 192 62.5 278t173.5 86q44 0 88.5 -19.5t74 -43t62.5 -43t57 -19.5q30 0 43 27.5t17 101.5q53 -8 190 -14q1 -182 -57 -273.5t-170 -91.5q-44 0 -87.5 18t-72.5 39.5t-62.5 39.5t-58.5 18q-38 0 -53.5 -27t-13.5 -90z" />
    <glyph glyph-name="exclamdown" unicode="&#xa1;" horiz-adv-x="479" 
d="M43 -186q21 337 41 940q14 -1 39.5 -1.5t108.5 -1.5t161 1q18 -437 51 -938q-159 4 -401 0zM238 819q-112 0 -170 65.5t-58 159.5q0 99 62 160.5t161 61.5q109 0 172.5 -61t63.5 -167q0 -97 -61 -158t-170 -61z" />
    <glyph glyph-name="cent" unicode="&#xa2;" horiz-adv-x="886" 
d="M287 -63q2 26 10 184q-277 95 -277 602q0 269 65 415t220 185l-8 182q101 0 184 1.5t115 3.5l33 1q-11 -149 -13 -200q275 -90 248 -512q-118 4 -208 5.5t-121 1.5l-31 -1q5 129 -6.5 193.5t-46.5 64.5q-39 0 -47.5 -62t-8.5 -251q0 -125 2.5 -195.5t9.5 -113t18.5 -55.5
t31.5 -13q34 0 46.5 61t2.5 205q118 -4 358 6q12 -230 -50 -356.5t-196 -167.5l11 -184q-100 2 -185.5 2t-121.5 -1z" />
    <glyph glyph-name="sterling" unicode="&#xa3;" horiz-adv-x="946" 
d="M33 457q2 109 1.5 185t-2.5 116l-1 41l82 -2q-18 57 -25.5 81t-16 72t-8.5 92q0 87 26.5 162t79.5 135t140.5 94.5t200.5 34.5q88 0 158 -22t117.5 -61t81.5 -94t48.5 -121.5t19 -141.5t-6.5 -156q-146 -1 -373 7q25 290 -49 290q-31 0 -45.5 -38t-14.5 -123
q0 -103 33 -211l328 6q0 -105 1.5 -191t3.5 -120l1 -33q-121 2 -317 2q-15 -52 -56 -107q190 -3 482 0q-1 -10 -2.5 -31.5t-3.5 -113.5t-1 -213q-299 8 -882 8q1 14 2 38.5t2 102t0 154.5q80 73 110 160z" />
    <glyph glyph-name="yen" unicode="&#xa5;" horiz-adv-x="983" 
d="M76 397q2 62 -8 236q43 0 176 2q-87 293 -244 747q68 -1 403 13q19 -151 99 -576q55 288 100 617q11 -1 36 -2t123 -3t222 -1q-84 -260 -225 -783q35 0 157 4q-1 -7 -1.5 -22.5t-1.5 -75t1 -137.5q-65 0 -241 -4v-60l248 6q-2 -47 2 -225q-68 0 -248 -2q-2 -58 4 -160
q-54 6 -352 -2q2 68 2 156l-262 -6q2 61 2 227q65 -2 258 0l-2 60q-32 -1 -114.5 -4.5t-133.5 -4.5z" />
    <glyph glyph-name="section" unicode="&#xa7;" horiz-adv-x="894" 
d="M463 -254q-235 0 -347.5 130.5t-97.5 365.5q102 -14 196 -22t138 -10l43 -1q-10 -82 6.5 -132t63.5 -50q29 0 46 24t17 64q0 63 -46.5 100t-170.5 66q-166 38 -233.5 103t-67.5 185q0 70 42 122.5t108 80.5q-69 43 -102 127.5t-33 183.5q0 169 109.5 269t291.5 100
q230 0 333 -120.5t91 -360.5q-112 10 -199.5 16t-118.5 7l-32 1q13 88 -2.5 130t-51.5 42q-25 0 -41 -25t-16 -67q0 -59 43 -96.5t143 -60.5q93 -21 155 -48.5t95.5 -64t46.5 -76.5t13 -94q0 -75 -37.5 -137.5t-99.5 -98.5q135 -79 135 -260q0 -171 -113 -282t-307 -111z
M356 608q0 -42 35 -66.5t117 -39.5q29 29 29 67q0 92 -138 115q-43 -37 -43 -76z" />
    <glyph glyph-name="dieresis" unicode="&#xa8;" horiz-adv-x="915" 
d="M279 1104q-72 0 -111 49t-39 117q0 72 42.5 118t109.5 46q73 0 110 -47t37 -117q0 -85 -42 -125.5t-107 -40.5zM643 1112q-65 0 -104 46t-39 122q0 67 39 111.5t108 44.5q68 0 104.5 -46.5t36.5 -115.5q0 -77 -39.5 -119.5t-105.5 -42.5z" />
    <glyph glyph-name="copyright" unicode="&#xa9;" horiz-adv-x="1146" 
d="M575 166q-186 0 -267 122t-81 410q0 273 88 402t279 129q72 0 128.5 -22.5t92.5 -61t58 -93t30 -116t4 -133.5q-49 2 -97 3.5t-82 2t-60.5 0.5h-39.5h-14q1 72 -3.5 113t-13 56t-22.5 15q-29 0 -39 -58.5t-10 -240.5q0 -130 6 -194.5t14.5 -80.5t26.5 -16q15 0 24 13
t14 60.5t1 133.5q86 -1 160.5 0t106.5 2l32 2q1 -131 -22 -221t-70.5 -138.5t-105.5 -68.5t-138 -20zM553 -37q-172 0 -288 74t-180.5 242t-64.5 432q0 368 142.5 552.5t435.5 184.5q121 0 213 -35t151 -97.5t96.5 -156.5t52.5 -202.5t15 -245.5q0 -186 -30 -322t-79 -217
t-125.5 -129t-155.5 -64t-183 -16zM565 61q89 0 154.5 15t125 57t97 113t59 186.5t21.5 274.5q0 156 -20.5 268.5t-68 198.5t-132 129t-207.5 43q-243 0 -356 -160t-113 -481q0 -329 100.5 -486.5t339.5 -157.5z" />
    <glyph glyph-name="ordfeminine" unicode="&#xaa;" horiz-adv-x="704" 
d="M242 649q-104 0 -168 61.5t-64 172.5q0 124 100.5 188.5t280.5 61.5v22q0 56 -7 78t-28 22q-38 0 -47 -102q-116 10 -272 12q1 134 90.5 207.5t237.5 73.5q292 0 313 -324q6 -103 6 -216t-3 -174l-3 -62q-82 -2 -227 -2q4 45 6 104q-50 -123 -215 -123zM403 965
q0 29 -2 49q-102 -13 -102 -107q0 -78 49 -78q29 0 42 28t13 108z" />
    <glyph glyph-name="guillemotleft" unicode="&#xab;" horiz-adv-x="745" 
d="M162 311q-64 164 -162 391q75 132 184 361q82 -6 254 -8q-92 -168 -184 -365q41 -122 156 -364q-55 -1 -248 -15zM481 317q-50 135 -159 377q56 105 165 336q58 -8 248 -10q-80 -145 -168 -340q47 -116 164 -358q-62 3 -250 -5z" />
    <glyph glyph-name="registered" unicode="&#xae;" horiz-adv-x="763" 
d="M387 555q-197 0 -287 117.5t-90 339.5q0 213 88 333.5t277 120.5q103 0 178.5 -36.5t118.5 -102.5t62.5 -147t19.5 -181q0 -227 -95.5 -335.5t-271.5 -108.5zM389 647q132 0 200 83t68 261q0 191 -67.5 288t-218.5 97q-138 0 -201.5 -91.5t-63.5 -278.5q0 -185 61 -272
t222 -87zM424 729q-12 61 -37 172l-29 -4q0 -70 4 -164q-52 2 -165 0q4 208 4 555q87 17 143 17q118 0 182 -52.5t64 -156.5q0 -92 -70 -146q10 -32 66 -190q-66 -11 -162 -31zM358 1004q28 -2 41 17t13 62q0 44 -12.5 66.5t-43.5 19.5q-1 -58 -0.5 -94.5t1.5 -53.5z" />
    <glyph glyph-name="macron" unicode="&#xaf;" horiz-adv-x="915" 
d="M197 1135q2 63 -4 227q132 -2 532 4q-4 -59 -4 -227q-140 2 -524 -4z" />
    <glyph glyph-name="degree" unicode="&#xb0;" horiz-adv-x="552" 
d="M281 887q-113 0 -192 75.5t-79 215.5q0 118 68.5 195t195.5 77q130 0 199.5 -72.5t69.5 -199.5t-70 -209t-192 -82zM279 1024q47 0 76.5 37t29.5 108q0 70 -27.5 110t-81.5 40q-51 0 -78.5 -39.5t-27.5 -110.5q0 -65 29 -105t80 -40z" />
    <glyph glyph-name="twosuperior" unicode="&#xb2;" horiz-adv-x="620" 
d="M586 641l-559 6l-11 246q143 50 241.5 133.5t98.5 179.5q0 76 -43 76q-63 0 -47 -180q-111 0 -252 -4q-21 179 59 273.5t244 94.5q133 0 213 -66t80 -181q0 -114 -83 -211t-218 -160l279 16z" />
    <glyph glyph-name="threesuperior" unicode="&#xb3;" horiz-adv-x="663" 
d="M334 612q-181 0 -258.5 83t-63.5 245q109 -8 250 -16q-4 -61 12.5 -94t49.5 -33q25 0 41 17.5t16 55.5q0 56 -35 74q-43 24 -137 17q-2 54 -8 163q41 -4 80 1t59 16q35 21 35 71q0 38 -17 54t-39 16q-67 0 -55 -117l-252 -12q-9 86 13.5 150.5t70 101.5t108 54.5
t134.5 17.5q128 0 210.5 -65.5t82.5 -174.5q0 -68 -31 -113.5t-88 -64.5q62 -21 96.5 -73t34.5 -118q0 -121 -89 -188.5t-220 -67.5z" />
    <glyph glyph-name="acute" unicode="&#xb4;" horiz-adv-x="915" 
d="M412 1065q-49 38 -91 68t-59 41l-18 10q72 105 127 188.5t73 114.5l19 31q67 -51 119.5 -90t71.5 -52l20 -14q-89 -98 -154.5 -172.5t-86.5 -99.5z" />
    <glyph glyph-name="paragraph" unicode="&#xb6;" horiz-adv-x="1001" 
d="M618 1106q-37 -2 -98 -10q-12 -504 -12 -955q-229 23 -363.5 185t-134.5 454q0 325 177.5 485t508.5 160q131 0 248 -16q-6 -520 17 -1610q-12 1 -36 2.5t-116 4t-205 1.5q12 806 14 1299z" />
    <glyph glyph-name="periodcentered" unicode="&#xb7;" horiz-adv-x="417" 
d="M207 512q-85 0 -136 60t-51 149q0 91 54 150t137 59q80 0 133 -58.5t53 -150.5q0 -102 -51.5 -155.5t-138.5 -53.5z" />
    <glyph glyph-name="cedilla" unicode="&#xb8;" horiz-adv-x="915" 
d="M352 16l129 2q-4 -39 -8 -100q96 -4 150.5 -46.5t54.5 -111.5q0 -91 -73 -144.5t-195 -53.5q-95 0 -174 28q10 66 20 156q75 -35 164 -35q27 0 45 9.5t18 27.5q0 50 -172 39q25 100 41 229z" />
    <glyph glyph-name="onesuperior" unicode="&#xb9;" horiz-adv-x="512" 
d="M182 637q3 383 0 504l-110 -49l-72 231l281 129l161 -16q0 -183 2 -382.5t4 -307.5l3 -107z" />
    <glyph glyph-name="ordmasculine" unicode="&#xba;" horiz-adv-x="729" 
d="M362 635q-352 0 -352 426q0 186 96 288.5t261 102.5q178 0 265 -104t87 -299q0 -215 -94 -314.5t-263 -99.5zM369 829q16 0 26 18t15.5 66t5.5 131q0 114 -11.5 163.5t-37.5 49.5q-29 0 -41.5 -45.5t-12.5 -154.5q0 -135 12.5 -181.5t43.5 -46.5z" />
    <glyph glyph-name="guillemotright" unicode="&#xbb;" horiz-adv-x="768" 
d="M260 315q-78 7 -250 9q58 97 185 356q-66 170 -156 356q51 1 244 15q48 -137 161 -383q-84 -148 -184 -353zM602 334q-62 8 -252 10q55 99 168 332q-49 123 -164 350q66 -4 254 4q49 -124 160 -368q-64 -111 -166 -328z" />
    <glyph glyph-name="onequarter" unicode="&#xbc;" horiz-adv-x="1406" 
d="M182 637q3 383 0 504l-110 -49l-72 231l281 129l161 -16q0 -183 2 -382.5t4 -307.5l3 -107zM352 -8l-168 12q248 409 457.5 763.5t294.5 504.5l86 151q47 -4 91 -5t65 -1h20q-339 -562 -550.5 -918t-253.5 -431zM1090 -6q0 94 2 139q-119 0 -349 -4q0 39 -6 201l209 483
q109 -5 206 -7.5t139 -2.5h42q-2 -209 -2 -481q35 2 55 2q-2 -50 -2 -189h-51l2 -141q-76 -3 -137 -3t-84 1zM1094 655q-10 -24 -131 -333q51 -2 131 0v333z" />
    <glyph glyph-name="onehalf" unicode="&#xbd;" horiz-adv-x="1409" 
d="M182 637q3 383 0 504l-110 -49l-72 231l281 129l161 -16q0 -183 2 -382.5t4 -307.5l3 -107zM352 -8l-168 12q248 409 457.5 763.5t294.5 504.5l86 151q47 -4 91 -5t65 -1h20q-339 -562 -550.5 -918t-253.5 -431zM1374 -6l-559 6l-10 246q143 50 241.5 133.5t98.5 179.5
q0 76 -43 76q-63 0 -47 -180q-111 0 -252 -4q-21 179 59 273.5t244 94.5q132 0 212.5 -66.5t80.5 -181.5q0 -114 -82.5 -210.5t-218.5 -159.5l278 16z" />
    <glyph glyph-name="threequarters" unicode="&#xbe;" horiz-adv-x="1476" 
d="M334 612q-181 0 -258.5 83t-63.5 245q109 -8 250 -16q-4 -61 12.5 -94t49.5 -33q25 0 41 17.5t16 55.5q0 56 -35 74q-43 24 -137 17q-2 54 -8 163q41 -4 80 1t59 16q35 21 35 71q0 38 -17 54t-39 16q-67 0 -55 -117l-252 -12q-9 86 13.5 150.5t70 101.5t108 54.5
t134.5 17.5q128 0 210.5 -65.5t82.5 -174.5q0 -68 -31 -113.5t-88 -64.5q62 -21 96.5 -73t34.5 -118q0 -121 -89 -188.5t-220 -67.5zM422 -8l-168 12q248 409 457.5 763.5t294.5 504.5l86 151q47 -4 91 -5t65 -1h20q-339 -562 -550.5 -918t-253.5 -431zM1159 -6q0 94 2 139
q-118 0 -348 -4q0 39 -6 201l209 483q109 -5 206 -7.5t139 -2.5h42q-2 -209 -2 -481q35 2 55 2q-2 -50 -2 -189h-51l2 -141q-76 -3 -137.5 -3t-85.5 1zM1163 655q-10 -24 -131 -333q51 -2 131 0v333z" />
    <glyph glyph-name="questiondown" unicode="&#xbf;" horiz-adv-x="899" 
d="M426 -209q-103 0 -184 31t-131 85.5t-75.5 125.5t-25.5 155q0 367 326 457l-2 113q110 -3 191.5 -2t128.5 4l46 2q0 -88 2 -172t4 -124l1 -40q-173 3 -236 -39t-63 -158q0 -147 51 -147q39 0 48.5 52t6.5 175q154 7 369 13q30 -276 -83.5 -403.5t-373.5 -127.5zM520 819
q-113 0 -171 61.5t-58 168.5q0 98 60.5 158.5t162.5 60.5q116 0 177 -63.5t61 -164.5q0 -102 -65.5 -161.5t-166.5 -59.5z" />
    <glyph glyph-name="Agrave" unicode="&#xc0;" horiz-adv-x="958" 
d="M0 31q90 545 205 1399q132 5 263 7t196 1h65q94 -691 229 -1469q-151 4 -391 -2q-4 68 -16 230q-37 2 -172 2l-12 -172q-13 1 -38.5 2t-120.5 2t-208 0zM463 1126q-41 -376 -62 -628h125zM451 1495q-62 76 -263 297q61 41 211 156q57 -98 219 -334q-56 -33 -167 -119z
" />
    <glyph glyph-name="Aacute" unicode="&#xc1;" horiz-adv-x="958" 
d="M0 31q90 545 205 1399q132 5 263 7t196 1h65q94 -691 229 -1469q-151 4 -391 -2q-4 68 -16 230q-37 2 -172 2l-12 -172q-13 1 -38.5 2t-120.5 2t-208 0zM463 1126q-41 -376 -62 -628h125zM498 1495q-49 38 -91 68t-59 41l-18 10q72 105 127 188.5t73 114.5l19 31
q67 -51 119.5 -90t71.5 -52l20 -14q-89 -98 -154.5 -172.5t-86.5 -99.5z" />
    <glyph glyph-name="Acircumflex" unicode="&#xc2;" horiz-adv-x="958" 
d="M0 31q90 545 205 1399q132 5 263 7t196 1h65q94 -691 229 -1469q-151 4 -391 -2q-4 68 -16 230q-37 2 -172 2l-12 -172q-13 1 -38.5 2t-120.5 2t-208 0zM463 1126q-41 -376 -62 -628h125zM268 1485q-38 41 -151 133q67 63 221 229q51 1 223 21q56 -57 244 -221
q-56 -51 -150 -160q-53 53 -200 172q-62 -51 -187 -174z" />
    <glyph glyph-name="Atilde" unicode="&#xc3;" horiz-adv-x="958" 
d="M0 31q90 545 205 1399q132 5 263 7t196 1h65q94 -691 229 -1469q-151 4 -391 -2q-4 68 -16 230q-37 2 -172 2l-12 -172q-13 1 -38.5 2t-120.5 2t-208 0zM463 1126q-41 -376 -62 -628h125zM324 1528q-54 0 -191 -8q-8 144 43.5 234.5t157.5 90.5q36 0 68.5 -15.5
t52.5 -34.5t46 -34.5t50 -15.5q32 0 46.5 19.5t8.5 70.5q51 0 174 12q24 -154 -23 -239.5t-147 -85.5q-44 0 -80 14t-56.5 30t-46 30t-50.5 14q-29 0 -43.5 -22.5t-9.5 -59.5z" />
    <glyph glyph-name="Adieresis" unicode="&#xc4;" horiz-adv-x="958" 
d="M0 31q90 545 205 1399q132 5 263 7t196 1h65q94 -691 229 -1469q-151 4 -391 -2q-4 68 -16 230q-37 2 -172 2l-12 -172q-13 1 -38.5 2t-120.5 2t-208 0zM463 1126q-41 -376 -62 -628h125zM281 1534q-72 0 -111 49t-39 117q0 72 42.5 118t109.5 46q73 0 110 -47t37 -117
q0 -85 -42 -125.5t-107 -40.5zM645 1542q-65 0 -104 46t-39 122q0 67 39 111.5t108 44.5q68 0 105 -46.5t37 -115.5q0 -76 -40 -119t-106 -43z" />
    <glyph glyph-name="Aring" unicode="&#xc5;" horiz-adv-x="958" 
d="M0 31q90 545 205 1399q132 5 263 7t196 1h65q94 -691 229 -1469q-151 4 -391 -2q-4 68 -16 230q-37 2 -172 2l-12 -172q-13 1 -38.5 2t-120.5 2t-208 0zM463 1126q-41 -376 -62 -628h125zM459 1513q-103 0 -159 59.5t-56 151.5q0 93 60.5 148t156.5 55q102 0 160.5 -58.5
t58.5 -144.5q0 -109 -63 -160t-158 -51zM463 1636q67 0 67 88q0 36 -18 62t-49 26q-33 0 -50.5 -26t-17.5 -64q0 -37 19 -61.5t49 -24.5z" />
    <glyph glyph-name="AE" unicode="&#xc6;" horiz-adv-x="1226" 
d="M1157 526q-133 2 -268 2q4 -122 8 -194q125 -6 305 0q-4 -115 -4 -342q-238 -3 -616 -15q-5 83 -11 220q-19 0 -78.5 1t-101.5 1l-18 -172q-13 1 -40 2t-123.5 2t-209.5 0q98 522 225 1376q240 2 484 9.5t369 14.5l124 7q-2 -158 4 -371q-214 -2 -323 -6q-2 -70 -2 -191
q201 0 274 2q-2 -145 2 -346zM514 1139q-34 -212 -86 -641h125q-6 109 -20.5 344.5t-18.5 296.5z" />
    <glyph glyph-name="Ccedilla" unicode="&#xc7;" 
d="M940 604q1 -170 -27 -292.5t-82.5 -193.5t-123 -106t-158.5 -43q-2 -33 -2 -51q96 -3 150.5 -45.5t54.5 -112.5q0 -90 -73.5 -144t-195.5 -54q-95 0 -174 28q11 66 21 156q75 -35 164 -35q27 0 45 9.5t18 27.5q0 50 -172 39q19 76 35 180q-213 20 -306.5 194t-93.5 550
q0 391 116 574t370 183q99 0 175.5 -31.5t125.5 -85.5t80 -131t42 -164t7 -188q-106 0 -204.5 2t-144.5 4l-46 3q1 168 -10 226t-44 58q-19 0 -31 -20t-19.5 -72t-10 -138t-0.5 -222q0 -142 3 -227t10.5 -131.5t18 -61.5t27.5 -15q21 0 32.5 23.5t17.5 95.5t4 205
q59 2 122 3.5t111 2t87 0.5h60h21z" />
    <glyph glyph-name="Egrave" unicode="&#xc8;" horiz-adv-x="733" 
d="M57 6q-4 594 -16 1417q175 3 668 7q-2 -150 4 -363q-196 -2 -305 -6v-191q173 0 254 2q-2 -145 2 -346q-111 2 -248 2q0 -69 6 -180q115 -8 287 -14q-4 -115 -4 -342q-303 10 -648 14zM367 1495q-62 76 -263 297q61 41 211 156q58 -98 220 -334q-57 -33 -168 -119z" />
    <glyph glyph-name="Eacute" unicode="&#xc9;" horiz-adv-x="733" 
d="M57 6q-4 594 -16 1417q175 3 668 7q-2 -150 4 -363q-196 -2 -305 -6v-191q173 0 254 2q-2 -145 2 -346q-111 2 -248 2q0 -69 6 -180q115 -8 287 -14q-4 -115 -4 -342q-303 10 -648 14zM414 1495q-49 38 -91 68t-59 41l-18 10q72 105 127 188.5t73 114.5l19 31
q67 -51 119.5 -90t71.5 -52l20 -14q-89 -98 -154.5 -172.5t-86.5 -99.5z" />
    <glyph glyph-name="Ecircumflex" unicode="&#xca;" horiz-adv-x="733" 
d="M57 6q-4 594 -16 1417q175 3 668 7q-2 -150 4 -363q-196 -2 -305 -6v-191q173 0 254 2q-2 -145 2 -346q-111 2 -248 2q0 -69 6 -180q115 -8 287 -14q-4 -115 -4 -342q-303 10 -648 14zM184 1485q-38 41 -151 133q67 63 221 229q51 1 223 21q56 -57 244 -221
q-56 -51 -150 -160q-53 53 -200 172q-62 -51 -187 -174z" />
    <glyph glyph-name="Edieresis" unicode="&#xcb;" horiz-adv-x="733" 
d="M57 6q-4 594 -16 1417q175 3 668 7q-2 -150 4 -363q-196 -2 -305 -6v-191q173 0 254 2q-2 -145 2 -346q-111 2 -248 2q0 -69 6 -180q115 -8 287 -14q-4 -115 -4 -342q-303 10 -648 14zM197 1534q-72 0 -111 49t-39 117q0 72 42.5 118t109.5 46q73 0 110 -47t37 -117
q0 -85 -42 -125.5t-107 -40.5zM561 1542q-65 0 -104 46t-39 122q0 67 39 111.5t108 44.5q68 0 105 -46.5t37 -115.5q0 -76 -40 -119t-106 -43z" />
    <glyph glyph-name="Igrave" unicode="&#xcc;" horiz-adv-x="483" 
d="M59 -2q2 628 -8 1423q127 0 371 2q4 -687 10 -1425q-123 2 -373 0zM231 1495q-61 76 -262 297q61 41 211 156q57 -98 219 -334q-57 -33 -168 -119z" />
    <glyph glyph-name="Iacute" unicode="&#xcd;" horiz-adv-x="483" 
d="M59 -2q2 628 -8 1423q127 0 371 2q4 -687 10 -1425q-123 2 -373 0zM279 1495q-49 38 -91 68t-60 41l-17 10q72 105 127 188.5t74 114.5l18 31q67 -51 119.5 -90t72.5 -52l19 -14q-89 -98 -154.5 -172.5t-86.5 -99.5z" />
    <glyph glyph-name="Icircumflex" unicode="&#xce;" horiz-adv-x="483" 
d="M59 -2q2 628 -8 1423q127 0 371 2q4 -687 10 -1425q-123 2 -373 0zM49 1485q-38 41 -151 133q67 63 221 229q51 1 223 21q56 -57 244 -221q-56 -51 -150 -160q-53 53 -200 172q-62 -51 -187 -174z" />
    <glyph glyph-name="Idieresis" unicode="&#xcf;" horiz-adv-x="483" 
d="M59 -2q2 628 -8 1423q127 0 371 2q4 -687 10 -1425q-123 2 -373 0zM61 1534q-72 0 -110.5 48.5t-38.5 117.5q0 72 42 118t109 46q74 0 111 -47t37 -117q0 -85 -42.5 -125.5t-107.5 -40.5zM426 1542q-65 0 -104 46t-39 122q0 67 39 111.5t108 44.5q68 0 104.5 -46.5
t36.5 -115.5q0 -77 -39.5 -119.5t-105.5 -42.5z" />
    <glyph glyph-name="Eth" unicode="&#xd0;" horiz-adv-x="999" 
d="M92 -8l2 528l-84 -2q1 13 2 38.5t2 119t0 203.5q27 -3 80 -5v545q162 27 266 27q171 0 288.5 -44.5t191.5 -141t106.5 -239.5t32.5 -349q0 -193 -38 -328.5t-116.5 -218.5t-190 -120.5t-267.5 -37.5q-96 0 -275 25zM469 248q44 -4 66 25.5t33.5 124.5t11.5 286
q0 263 -25.5 363.5t-97.5 93.5q0 -183 2 -271h57q-4 -85 2 -344h-55z" />
    <glyph glyph-name="Ntilde" unicode="&#xd1;" horiz-adv-x="991" 
d="M47 37q8 504 -6 1329q147 10 348 16q86 -261 244 -696q-15 307 -53 776q14 -1 40.5 -2t113.5 -3t179 -1q10 -549 37 -1460q-103 -17 -332 -35q-102 292 -256 703q7 -244 31 -633q-135 6 -346 6zM358 1548q-53 0 -190 -8q-8 145 43.5 235.5t157.5 90.5q36 0 68.5 -16
t52.5 -34.5t46 -34.5t50 -16q32 0 46.5 19.5t8.5 70.5q51 1 174 13q24 -154 -23 -240t-147 -86q-44 0 -80 14t-56.5 30t-46 30t-50.5 14q-29 0 -44 -22.5t-10 -59.5z" />
    <glyph glyph-name="Ograve" unicode="&#xd2;" horiz-adv-x="970" 
d="M485 -39q-248 0 -355.5 180t-109.5 547q0 143 12.5 254.5t44.5 210t83.5 163t133 101.5t189.5 37q112 0 194 -34.5t134 -95.5t83.5 -159t43.5 -210.5t12 -264.5q-2 -267 -53.5 -428t-151 -231t-260.5 -70zM489 242q23 0 34 28t17.5 130t6.5 307q0 150 -3 239.5t-11.5 137
t-19 62.5t-28.5 15q-40 0 -50.5 -83t-10.5 -386q0 -197 7 -294.5t19.5 -126.5t38.5 -29zM475 1495q-61 76 -262 297q61 41 211 156q57 -98 219 -334q-57 -33 -168 -119z" />
    <glyph glyph-name="Oacute" unicode="&#xd3;" horiz-adv-x="970" 
d="M485 -39q-248 0 -355.5 180t-109.5 547q0 143 12.5 254.5t44.5 210t83.5 163t133 101.5t189.5 37q112 0 194 -34.5t134 -95.5t83.5 -159t43.5 -210.5t12 -264.5q-2 -267 -53.5 -428t-151 -231t-260.5 -70zM489 242q23 0 34 28t17.5 130t6.5 307q0 150 -3 239.5t-11.5 137
t-19 62.5t-28.5 15q-40 0 -50.5 -83t-10.5 -386q0 -197 7 -294.5t19.5 -126.5t38.5 -29zM522 1495q-49 38 -91 68t-59 41l-18 10q72 105 127 188.5t73 114.5l19 31q67 -51 119.5 -90t71.5 -52l20 -14q-89 -98 -154.5 -172.5t-86.5 -99.5z" />
    <glyph glyph-name="Ocircumflex" unicode="&#xd4;" horiz-adv-x="970" 
d="M485 -39q-248 0 -355.5 180t-109.5 547q0 143 12.5 254.5t44.5 210t83.5 163t133 101.5t189.5 37q112 0 194 -34.5t134 -95.5t83.5 -159t43.5 -210.5t12 -264.5q-2 -267 -53.5 -428t-151 -231t-260.5 -70zM489 242q23 0 34 28t17.5 130t6.5 307q0 150 -3 239.5t-11.5 137
t-19 62.5t-28.5 15q-40 0 -50.5 -83t-10.5 -386q0 -197 7 -294.5t19.5 -126.5t38.5 -29zM293 1485q-39 41 -152 133q67 63 221 229q52 1 224 21q55 -57 243 -221q-55 -51 -149 -160q-54 53 -201 172q-61 -51 -186 -174z" />
    <glyph glyph-name="Otilde" unicode="&#xd5;" horiz-adv-x="970" 
d="M485 -39q-248 0 -355.5 180t-109.5 547q0 143 12.5 254.5t44.5 210t83.5 163t133 101.5t189.5 37q112 0 194 -34.5t134 -95.5t83.5 -159t43.5 -210.5t12 -264.5q-2 -267 -53.5 -428t-151 -231t-260.5 -70zM489 242q23 0 34 28t17.5 130t6.5 307q0 150 -3 239.5t-11.5 137
t-19 62.5t-28.5 15q-40 0 -50.5 -83t-10.5 -386q0 -197 7 -294.5t19.5 -126.5t38.5 -29zM348 1528q-53 0 -190 -8q-8 145 43 235t157 90q36 0 68.5 -15.5t52.5 -34.5t46 -34.5t50 -15.5q32 0 47 19.5t9 70.5q51 0 174 12q24 -154 -23 -239.5t-147 -85.5q-44 0 -80.5 14
t-56.5 30t-46 30t-51 14q-29 0 -43.5 -22.5t-9.5 -59.5z" />
    <glyph glyph-name="Odieresis" unicode="&#xd6;" horiz-adv-x="970" 
d="M485 -39q-248 0 -355.5 180t-109.5 547q0 143 12.5 254.5t44.5 210t83.5 163t133 101.5t189.5 37q112 0 194 -34.5t134 -95.5t83.5 -159t43.5 -210.5t12 -264.5q-2 -267 -53.5 -428t-151 -231t-260.5 -70zM489 242q23 0 34 28t17.5 130t6.5 307q0 150 -3 239.5t-11.5 137
t-19 62.5t-28.5 15q-40 0 -50.5 -83t-10.5 -386q0 -197 7 -294.5t19.5 -126.5t38.5 -29zM305 1534q-72 0 -110.5 48.5t-38.5 117.5q0 72 42 118t109 46q74 0 111 -47t37 -117q0 -85 -42.5 -125.5t-107.5 -40.5zM670 1542q-65 0 -104.5 46t-39.5 122q0 67 39 111.5t109 44.5
q68 0 104.5 -46.5t36.5 -115.5q0 -77 -39.5 -119.5t-105.5 -42.5z" />
    <glyph glyph-name="multiply" unicode="&#xd7;" horiz-adv-x="776" 
d="M188 293q-35 49 -168 176q8 4 197 184q-48 50 -96 98.5t-72 71.5l-24 23q183 172 182 176l188 -193l191 195q49 -54 168 -160l-26.5 -26.5t-74.5 -74t-96 -95.5q57 -56 106.5 -103t70.5 -65l20 -19q-68 -68 -114.5 -115.5t-58.5 -61.5l-12 -13q-16 17 -86 89.5
t-106 108.5z" />
    <glyph glyph-name="Oslash" unicode="&#xd8;" horiz-adv-x="997" 
d="M322 -221q-116 59 -302 137q35 57 119 215q-119 194 -119 567q0 385 112.5 562.5t346.5 177.5q57 0 117 -13q26 68 59 174q101 -51 322 -141q-55 -72 -139 -203q106 -173 106 -550q0 -390 -109 -576t-356 -186q-55 0 -102 12q-18 -49 -55 -176zM477 227q20 0 31.5 18
t19.5 73t10.5 146.5t2.5 248.5q0 248 -14 340t-50 92q-20 0 -32 -18.5t-19 -73.5t-9.5 -137.5t-2.5 -227.5q0 -263 13.5 -362t49.5 -99z" />
    <glyph glyph-name="Ugrave" unicode="&#xd9;" 
d="M492 -29q-249 0 -360.5 202.5t-111.5 647.5q0 277 46 586q106 -18 354 -49q-33 -280 -33 -520q0 -190 10.5 -306.5t28.5 -162t45 -45.5q26 0 40.5 27.5t24 123.5t9.5 275q0 316 -47 684q139 3 368 30q64 -366 64 -737q0 -389 -106 -572.5t-332 -183.5zM465 1487
q-61 76 -262 297q61 40 211 155q57 -97 219 -333q-57 -33 -168 -119z" />
    <glyph glyph-name="Uacute" unicode="&#xda;" 
d="M492 -29q-249 0 -360.5 202.5t-111.5 647.5q0 277 46 586q106 -18 354 -49q-33 -280 -33 -520q0 -190 10.5 -306.5t28.5 -162t45 -45.5q26 0 40.5 27.5t24 123.5t9.5 275q0 316 -47 684q139 3 368 30q64 -366 64 -737q0 -389 -106 -572.5t-332 -183.5zM512 1487
q-49 38 -91 68t-59 41l-18 10q72 105 126.5 188t73.5 114l19 31q67 -51 119.5 -90t71.5 -52l20 -13q-89 -98 -154.5 -172.5t-86.5 -99.5z" />
    <glyph glyph-name="Ucircumflex" unicode="&#xdb;" 
d="M492 -29q-249 0 -360.5 202.5t-111.5 647.5q0 277 46 586q106 -18 354 -49q-33 -280 -33 -520q0 -190 10.5 -306.5t28.5 -162t45 -45.5q26 0 40.5 27.5t24 123.5t9.5 275q0 316 -47 684q139 3 368 30q64 -366 64 -737q0 -389 -106 -572.5t-332 -183.5zM283 1485
q-39 41 -152 133q67 63 221 229q51 1 223 21q56 -57 244 -221q-55 -51 -149 -160q-54 53 -201 172q-61 -51 -186 -174z" />
    <glyph glyph-name="Udieresis" unicode="&#xdc;" 
d="M492 -29q-249 0 -360.5 202.5t-111.5 647.5q0 277 46 586q106 -18 354 -49q-33 -280 -33 -520q0 -190 10.5 -306.5t28.5 -162t45 -45.5q26 0 40.5 27.5t24 123.5t9.5 275q0 316 -47 684q139 3 368 30q64 -366 64 -737q0 -389 -106 -572.5t-332 -183.5zM295 1534
q-72 0 -111 49t-39 117q0 72 42.5 118t109.5 46q73 0 110 -47t37 -117q0 -85 -42 -125.5t-107 -40.5zM659 1542q-65 0 -104 46t-39 122q0 67 39 111.5t109 44.5q68 0 104.5 -46.5t36.5 -115.5q0 -76 -40 -119t-106 -43z" />
    <glyph glyph-name="Yacute" unicode="&#xdd;" horiz-adv-x="983" 
d="M315 -31q6 42 -4 307q-65 287 -311 1106q68 -1 403 13q23 -194 99 -615q55 327 100 656q11 -1 36 -2t123 -3t222 -1q-127 -450 -301 -1145q-4 -28 6 -314q-75 6 -373 -2zM528 1462q-49 38 -91 68t-59 40l-18 11q72 105 127 188.5t74 114.5l19 31q67 -51 119.5 -90
t72.5 -53l19 -13q-89 -98 -155 -172.5t-87 -99.5z" />
    <glyph glyph-name="Thorn" unicode="&#xde;" horiz-adv-x="911" 
d="M41 12q1 64 2.5 182.5t4 492t1.5 755.5q140 -13 357 -15q-3 -69 -3 -139q255 -17 376.5 -158.5t121.5 -404.5q0 -521 -487 -555l6 -156q-160 4 -379 -2zM403 1012q0 -174 7 -590q66 12 93 71.5t27 211.5q0 162 -28 229t-99 78z" />
    <glyph glyph-name="germandbls" unicode="&#xdf;" horiz-adv-x="915" 
d="M47 47q-16 515 8 907q15 237 122 350t323 113q175 0 288 -106.5t113 -288.5q0 -229 -170 -320q86 -40 130 -125.5t44 -197.5q0 -119 -36 -201t-100.5 -123.5t-141 -56t-170.5 -6.5q6 59 8 278q38 3 57 31.5t19 93.5q0 71 -21.5 98.5t-62.5 30.5q4 76 -4 326q49 6 67.5 36
t18.5 105q0 137 -58 137q-34 0 -50.5 -33t-22.5 -110q-32 -378 4 -942q-132 -1 -223 0t-117 3z" />
    <glyph glyph-name="agrave" unicode="&#xe0;" horiz-adv-x="866" 
d="M305 -31q-130 0 -212.5 74.5t-82.5 204.5q0 182 123 272.5t346 85.5v29q-1 82 -13 113.5t-36 31.5q-26 0 -38 -33.5t-15 -105.5q-15 -1 -42 -1.5t-116.5 -1.5t-179.5 1q-3 174 99 282.5t306 108.5q380 0 390 -420q3 -136 3 -294t-1 -248l-2 -91q-81 -2 -269 -4
q6 62 8 144q-64 -148 -268 -148zM496 408l-2 41q-71 -10 -102.5 -50t-31.5 -96q0 -84 62 -84q37 0 55.5 41t18.5 148zM414 1065q-61 76 -262 297q60 41 210 156q58 -98 220 -334q-57 -33 -168 -119z" />
    <glyph glyph-name="aacute" unicode="&#xe1;" horiz-adv-x="866" 
d="M305 -31q-130 0 -212.5 74.5t-82.5 204.5q0 182 123 272.5t346 85.5v29q-1 82 -13 113.5t-36 31.5q-26 0 -38 -33.5t-15 -105.5q-15 -1 -42 -1.5t-116.5 -1.5t-179.5 1q-3 174 99 282.5t306 108.5q380 0 390 -420q3 -136 3 -294t-1 -248l-2 -91q-81 -2 -269 -4
q6 62 8 144q-64 -148 -268 -148zM496 408l-2 41q-71 -10 -102.5 -50t-31.5 -96q0 -84 62 -84q37 0 55.5 41t18.5 148zM459 1065q-49 38 -91 68t-60 41l-17 10q72 105 126.5 188.5t73.5 114.5l19 31q67 -51 119.5 -90t72.5 -52l19 -14q-89 -98 -154.5 -172.5t-86.5 -99.5z
" />
    <glyph glyph-name="acircumflex" unicode="&#xe2;" horiz-adv-x="866" 
d="M305 -31q-130 0 -212.5 74.5t-82.5 204.5q0 182 123 272.5t346 85.5v29q-1 82 -13 113.5t-36 31.5q-26 0 -38 -33.5t-15 -105.5q-15 -1 -42 -1.5t-116.5 -1.5t-179.5 1q-3 174 99 282.5t306 108.5q380 0 390 -420q3 -136 3 -294t-1 -248l-2 -91q-81 -2 -269 -4
q6 62 8 144q-64 -148 -268 -148zM496 408l-2 41q-71 -10 -102.5 -50t-31.5 -96q0 -84 62 -84q37 0 55.5 41t18.5 148zM231 1055q-38 41 -151 133q67 63 221 229q51 1 223 21q56 -57 244 -221q-56 -51 -150 -160q-53 53 -200 172q-62 -51 -187 -174z" />
    <glyph glyph-name="atilde" unicode="&#xe3;" horiz-adv-x="866" 
d="M305 -31q-130 0 -212.5 74.5t-82.5 204.5q0 182 123 272.5t346 85.5v29q-1 82 -13 113.5t-36 31.5q-26 0 -38 -33.5t-15 -105.5q-15 -1 -42 -1.5t-116.5 -1.5t-179.5 1q-3 174 99 282.5t306 108.5q380 0 390 -420q3 -136 3 -294t-1 -248l-2 -91q-81 -2 -269 -4
q6 62 8 144q-64 -148 -268 -148zM496 408l-2 41q-71 -10 -102.5 -50t-31.5 -96q0 -84 62 -84q37 0 55.5 41t18.5 148zM287 1098q-54 0 -191 -8q-8 144 43.5 234.5t157.5 90.5q36 0 68.5 -15.5t52.5 -34.5t46 -34.5t50 -15.5q32 0 46.5 19.5t8.5 70.5q51 0 174 12
q24 -154 -23 -239.5t-147 -85.5q-44 0 -80 14t-56.5 30t-46 30t-50.5 14q-29 0 -43.5 -22.5t-9.5 -59.5z" />
    <glyph glyph-name="adieresis" unicode="&#xe4;" horiz-adv-x="866" 
d="M305 -31q-130 0 -212.5 74.5t-82.5 204.5q0 182 123 272.5t346 85.5v29q-1 82 -13 113.5t-36 31.5q-26 0 -38 -33.5t-15 -105.5q-15 -1 -42 -1.5t-116.5 -1.5t-179.5 1q-3 174 99 282.5t306 108.5q380 0 390 -420q3 -136 3 -294t-1 -248l-2 -91q-81 -2 -269 -4
q6 62 8 144q-64 -148 -268 -148zM496 408l-2 41q-71 -10 -102.5 -50t-31.5 -96q0 -84 62 -84q37 0 55.5 41t18.5 148zM244 1092q-72 0 -111 48.5t-39 116.5q0 72 42.5 118t109.5 46q73 0 110 -47t37 -117q0 -85 -42 -125t-107 -40zM608 1100q-65 0 -104 46t-39 122
q0 67 38.5 111t108.5 44q69 0 105.5 -46t36.5 -115q0 -76 -40 -119t-106 -43z" />
    <glyph glyph-name="aring" unicode="&#xe5;" horiz-adv-x="866" 
d="M305 -31q-130 0 -212.5 74.5t-82.5 204.5q0 182 123 272.5t346 85.5v29q-1 82 -13 113.5t-36 31.5q-26 0 -38 -33.5t-15 -105.5q-15 -1 -42 -1.5t-116.5 -1.5t-179.5 1q-3 174 99 282.5t306 108.5q380 0 390 -420q3 -136 3 -294t-1 -248l-2 -91q-81 -2 -269 -4
q6 62 8 144q-64 -148 -268 -148zM496 408l-2 41q-71 -10 -102.5 -50t-31.5 -96q0 -84 62 -84q37 0 55.5 41t18.5 148zM422 1083q-103 0 -159 59.5t-56 151.5q0 93 60.5 148t156.5 55q102 0 160.5 -58.5t58.5 -144.5q0 -109 -63 -160t-158 -51zM426 1206q34 0 51 24t17 64
q0 36 -18.5 62t-49.5 26q-33 0 -50.5 -26t-17.5 -64q0 -37 19 -61.5t49 -24.5z" />
    <glyph glyph-name="ae" unicode="&#xe6;" horiz-adv-x="1386" 
d="M950 -29q-215 0 -301 129q-42 -62 -119 -96.5t-176 -34.5q-154 0 -249 82t-95 223q0 327 469 318v43q-1 82 -13 113.5t-36 31.5q-26 0 -38 -33.5t-15 -105.5q-15 -1 -42 -1.5t-116.5 -1.5t-179.5 1q-3 172 95.5 281.5t287.5 109.5q177 0 256 -112q94 112 270 112
q239 0 336 -150t76 -444q-196 0 -492 -4q3 -114 19.5 -160.5t50.5 -46.5q54 0 59 117q191 -2 369 -8q-23 -174 -132 -268.5t-284 -94.5zM496 408v26q-73 -7 -104.5 -39.5t-31.5 -91.5q0 -84 62 -84q37 0 55.5 41t18.5 148zM932 795q-32 0 -46.5 -41.5t-17.5 -155.5l119 2
q3 195 -55 195z" />
    <glyph glyph-name="ccedilla" unicode="&#xe7;" horiz-adv-x="890" 
d="M881 446q2 -119 -24.5 -207.5t-76.5 -142t-114 -81.5t-144 -35q-2 -21 -4 -62q96 -3 150.5 -45.5t54.5 -112.5q0 -91 -73 -144.5t-195 -53.5q-95 0 -174 28q10 66 20 156q75 -35 164 -35q27 0 45 9.5t18 27.5q0 50 -172 39q19 82 35 193q-371 39 -371 532
q0 253 115.5 390.5t337.5 137.5q104 0 187 -39t132.5 -104.5t72.5 -150t14 -177.5q-116 4 -207 6.5t-124 2.5h-34q6 204 -57 204q-31 0 -43.5 -62t-12.5 -220q0 -130 13.5 -187t46.5 -57q61 0 51 184q81 -4 369 6z" />
    <glyph glyph-name="egrave" unicode="&#xe8;" horiz-adv-x="911" 
d="M461 -20q-101 0 -178.5 27.5t-126.5 75t-80 117t-43.5 146t-12.5 170.5q0 111 24.5 203t75.5 165t137.5 113.5t201.5 40.5q470 0 426 -614q-196 0 -492 -4q4 -101 20.5 -144t49.5 -43q54 0 59 117q191 -2 369 -8q-23 -173 -138 -267.5t-292 -94.5zM457 803
q-32 0 -46.5 -43t-17.5 -162q78 0 119 2q3 203 -55 203zM444 1085q-61 76 -262 297q61 41 211 156q57 -98 219 -334q-57 -33 -168 -119z" />
    <glyph glyph-name="eacute" unicode="&#xe9;" horiz-adv-x="911" 
d="M461 -20q-101 0 -178.5 27.5t-126.5 75t-80 117t-43.5 146t-12.5 170.5q0 111 24.5 203t75.5 165t137.5 113.5t201.5 40.5q470 0 426 -614q-196 0 -492 -4q4 -101 20.5 -144t49.5 -43q54 0 59 117q191 -2 369 -8q-23 -173 -138 -267.5t-292 -94.5zM457 803
q-32 0 -46.5 -43t-17.5 -162q78 0 119 2q3 203 -55 203zM492 1085q-49 38 -91 68t-59 41l-18 10q72 105 127 188.5t73 114.5l19 31q67 -51 119.5 -90t71.5 -52l20 -14q-89 -98 -154.5 -172.5t-86.5 -99.5z" />
    <glyph glyph-name="ecircumflex" unicode="&#xea;" horiz-adv-x="911" 
d="M461 -20q-101 0 -178.5 27.5t-126.5 75t-80 117t-43.5 146t-12.5 170.5q0 111 24.5 203t75.5 165t137.5 113.5t201.5 40.5q470 0 426 -614q-196 0 -492 -4q4 -101 20.5 -144t49.5 -43q54 0 59 117q191 -2 369 -8q-23 -173 -138 -267.5t-292 -94.5zM457 803
q-32 0 -46.5 -43t-17.5 -162q78 0 119 2q3 203 -55 203zM262 1069q-38 41 -151 133q67 64 221 230q51 0 223 20q56 -57 244 -221q-56 -51 -150 -160q-53 53 -200 172q-62 -51 -187 -174z" />
    <glyph glyph-name="edieresis" unicode="&#xeb;" horiz-adv-x="911" 
d="M461 -20q-101 0 -178.5 27.5t-126.5 75t-80 117t-43.5 146t-12.5 170.5q0 111 24.5 203t75.5 165t137.5 113.5t201.5 40.5q470 0 426 -614q-196 0 -492 -4q4 -101 20.5 -144t49.5 -43q54 0 59 117q191 -2 369 -8q-23 -173 -138 -267.5t-292 -94.5zM457 803
q-32 0 -46.5 -43t-17.5 -162q78 0 119 2q3 203 -55 203zM274 1096q-72 0 -110.5 48.5t-38.5 117.5q0 72 42 117.5t109 45.5q74 0 111 -46.5t37 -116.5q0 -85 -42.5 -125.5t-107.5 -40.5zM639 1104q-65 0 -104 46t-39 122q0 67 38.5 111t108.5 44q68 0 104.5 -46t36.5 -115
q0 -77 -39.5 -119.5t-105.5 -42.5z" />
    <glyph glyph-name="igrave" unicode="&#xec;" horiz-adv-x="452" 
d="M53 2q2 283 -6 1034q119 -2 359 2q-2 -365 8 -1034q-154 0 -361 -2zM219 1096q-61 76 -262 297q61 40 211 155q57 -98 219 -334q-57 -32 -168 -118z" />
    <glyph glyph-name="iacute" unicode="&#xed;" horiz-adv-x="452" 
d="M53 2q2 283 -6 1034q119 -2 359 2q-2 -365 8 -1034q-154 0 -361 -2zM266 1096q-49 38 -91 67.5t-59 40.5l-18 10q72 105 126.5 188.5t73.5 114.5l19 31q67 -51 119.5 -90t71.5 -52l20 -13q-89 -98 -154.5 -172.5t-86.5 -99.5z" />
    <glyph glyph-name="icircumflex" unicode="&#xee;" horiz-adv-x="452" 
d="M53 2q2 283 -6 1034q119 -2 359 2q-2 -365 8 -1034q-154 0 -361 -2zM37 1085q-39 42 -152 134q67 63 221 229q52 0 224 20q55 -57 243 -221q-55 -51 -149 -160q-54 54 -201 173q-61 -52 -186 -175z" />
    <glyph glyph-name="idieresis" unicode="&#xef;" horiz-adv-x="452" 
d="M53 2q2 283 -6 1034q119 -2 359 2q-2 -365 8 -1034q-154 0 -361 -2zM49 1135q-72 0 -110.5 48t-38.5 117q0 72 42 118t109 46q74 0 111 -47t37 -117q0 -85 -42.5 -125t-107.5 -40zM414 1143q-65 0 -104.5 46t-39.5 122q0 67 39 111t109 44q68 0 104.5 -46t36.5 -115
q0 -77 -39.5 -119.5t-105.5 -42.5z" />
    <glyph glyph-name="eth" unicode="&#xf0;" horiz-adv-x="915" 
d="M451 -31q-210 0 -320.5 150t-110.5 416q0 233 80 368t217 135q108 0 179 -100q-55 156 -203 289l229 209q73 -58 133 -129l82 90q56 -82 199 -256q-45 -27 -133 -88q94 -234 94 -506q0 -578 -446 -578zM467 217q30 0 42.5 62t12.5 235q0 31 -2.5 68.5t-8 81t-18 72
t-28.5 28.5q-32 0 -44.5 -58t-12.5 -200q0 -156 14.5 -222.5t44.5 -66.5z" />
    <glyph glyph-name="ntilde" unicode="&#xf1;" horiz-adv-x="886" 
d="M492 -37q4 359 4 682q0 36 -10 52t-33 16q-25 0 -34 -16t-11 -52q-2 -67 -2.5 -220t0.5 -273v-119q-164 2 -365 0q1 43 2 120.5t3 335t-1 508.5q119 -4 283 2l-2 -155q36 83 112 136.5t164 53.5q119 0 182 -78.5t68 -224.5q2 -49 3 -240.5t1 -358.5v-167zM332 1098
q-54 0 -191 -8q-8 144 43.5 234.5t157.5 90.5q36 0 68.5 -15.5t52.5 -34.5t46 -34.5t50 -15.5q32 0 46.5 19.5t8.5 70.5q51 0 174 12q24 -154 -23 -239.5t-147 -85.5q-44 0 -80 14t-56.5 30t-46 30t-50.5 14q-29 0 -43.5 -22.5t-9.5 -59.5z" />
    <glyph glyph-name="ograve" unicode="&#xf2;" horiz-adv-x="915" 
d="M455 -16q-120 0 -206 38.5t-135 112t-71.5 170t-22.5 223.5q0 244 114 378t327 134q222 0 328 -139t106 -389q0 -280 -112.5 -404t-327.5 -124zM459 217q20 0 30.5 18.5t17.5 84t7 190.5q0 120 -6 182.5t-17 83.5t-32 21q-23 0 -34.5 -21t-17.5 -79.5t-6 -172.5
q0 -134 6.5 -201t18 -86.5t33.5 -19.5zM446 1075q-61 76 -262 297q61 41 211 156q57 -98 219 -334q-57 -33 -168 -119z" />
    <glyph glyph-name="oacute" unicode="&#xf3;" horiz-adv-x="915" 
d="M455 -16q-120 0 -206 38.5t-135 112t-71.5 170t-22.5 223.5q0 244 114 378t327 134q222 0 328 -139t106 -389q0 -280 -112.5 -404t-327.5 -124zM459 217q20 0 30.5 18.5t17.5 84t7 190.5q0 120 -6 182.5t-17 83.5t-32 21q-23 0 -34.5 -21t-17.5 -79.5t-6 -172.5
q0 -134 6.5 -201t18 -86.5t33.5 -19.5zM494 1075q-49 38 -91 68t-59 41l-18 10q72 105 127 188.5t73 114.5l19 31q67 -51 119.5 -90t71.5 -52l20 -14q-89 -98 -154.5 -172.5t-86.5 -99.5z" />
    <glyph glyph-name="ocircumflex" unicode="&#xf4;" horiz-adv-x="915" 
d="M455 -16q-120 0 -206 38.5t-135 112t-71.5 170t-22.5 223.5q0 244 114 378t327 134q222 0 328 -139t106 -389q0 -280 -112.5 -404t-327.5 -124zM459 217q20 0 30.5 18.5t17.5 84t7 190.5q0 120 -6 182.5t-17 83.5t-32 21q-23 0 -34.5 -21t-17.5 -79.5t-6 -172.5
q0 -134 6.5 -201t18 -86.5t33.5 -19.5zM266 1069q-38 41 -151 133q67 64 221 230q51 0 223 20q56 -57 244 -221q-56 -51 -150 -160q-53 53 -200 172q-62 -51 -187 -174z" />
    <glyph glyph-name="otilde" unicode="&#xf5;" horiz-adv-x="915" 
d="M455 -16q-120 0 -206 38.5t-135 112t-71.5 170t-22.5 223.5q0 244 114 378t327 134q222 0 328 -139t106 -389q0 -280 -112.5 -404t-327.5 -124zM459 217q20 0 30.5 18.5t17.5 84t7 190.5q0 120 -6 182.5t-17 83.5t-32 21q-23 0 -34.5 -21t-17.5 -79.5t-6 -172.5
q0 -134 6.5 -201t18 -86.5t33.5 -19.5zM322 1108q-54 0 -191 -8q-8 144 43.5 234.5t157.5 90.5q36 0 68.5 -15.5t52.5 -34.5t46 -34.5t50 -15.5q32 0 46.5 19.5t8.5 70.5q51 0 174 12q24 -154 -23 -239.5t-147 -85.5q-44 0 -80 14t-56.5 30t-46 30t-50.5 14
q-29 0 -43.5 -22.5t-9.5 -59.5z" />
    <glyph glyph-name="odieresis" unicode="&#xf6;" horiz-adv-x="915" 
d="M455 -16q-120 0 -206 38.5t-135 112t-71.5 170t-22.5 223.5q0 244 114 378t327 134q222 0 328 -139t106 -389q0 -280 -112.5 -404t-327.5 -124zM459 217q20 0 30.5 18.5t17.5 84t7 190.5q0 120 -6 182.5t-17 83.5t-32 21q-23 0 -34.5 -21t-17.5 -79.5t-6 -172.5
q0 -134 6.5 -201t18 -86.5t33.5 -19.5zM276 1114q-72 0 -110.5 48.5t-38.5 117.5q0 72 42.5 118t109.5 46q73 0 110 -47t37 -117q0 -85 -42.5 -125.5t-107.5 -40.5zM641 1122q-65 0 -104 46t-39 122q0 67 39 111.5t108 44.5q68 0 104.5 -46.5t36.5 -115.5
q0 -77 -39.5 -119.5t-105.5 -42.5z" />
    <glyph glyph-name="divide" unicode="&#xf7;" horiz-adv-x="649" 
d="M20 795q164 -4 316 -5t222 0l71 1q-2 -49 -3.5 -95t-2 -77.5t-0.5 -55.5v-35v-12q-195 4 -345 4t-202 -2l-53 -2q1 98 0 160t-2 90zM324 1165q71 0 110 -46t39 -111q0 -70 -44.5 -113t-109.5 -43q-61 0 -104 42.5t-43 113.5q0 76 39.5 116.5t112.5 40.5zM328 459
q147 0 147 -158q0 -70 -43 -112t-106 -42q-67 0 -108.5 42.5t-41.5 111.5q0 74 38.5 116t113.5 42z" />
    <glyph glyph-name="oslash" unicode="&#xf8;" horiz-adv-x="958" 
d="M473 -10q-49 0 -104 10q-18 -46 -62 -170q-125 67 -287 141q45 55 119 164q-100 131 -100 383q0 280 112.5 404.5t327.5 124.5q53 0 99 -9q21 54 63 172q111 -61 297 -149q-47 -60 -121 -164q96 -132 96 -395q0 -244 -113.5 -378t-326.5 -134zM475 223q23 0 34.5 21
t17 79.5t5.5 172.5q0 134 -6 201t-17.5 86.5t-33.5 19.5q-20 0 -30.5 -18.5t-17.5 -84t-7 -190.5q0 -120 6 -182.5t17 -83.5t32 -21z" />
    <glyph glyph-name="ugrave" unicode="&#xf9;" horiz-adv-x="888" 
d="M324 -20q-103 0 -166 56t-95 186t-32 349q0 230 26 461q88 -14 338 -24q-12 -122 -12 -306q0 -106 3.5 -181t8.5 -120t14.5 -70.5t19 -33.5t22.5 -8q43 0 43 90q2 161 -2 326.5t-8 250.5l-5 86q11 -1 35 -2t118 -3t212 -1q-4 -404 4 -1079q-10 1 -30 1.5t-93.5 1.5
t-163.5 -1q2 77 2 186q-33 -80 -97.5 -122.5t-141.5 -42.5zM428 1085q-61 76 -262 297q61 41 211 156q57 -98 219 -334q-57 -33 -168 -119z" />
    <glyph glyph-name="uacute" unicode="&#xfa;" horiz-adv-x="888" 
d="M324 -20q-103 0 -166 56t-95 186t-32 349q0 230 26 461q88 -14 338 -24q-12 -122 -12 -306q0 -106 3.5 -181t8.5 -120t14.5 -70.5t19 -33.5t22.5 -8q43 0 43 90q2 161 -2 326.5t-8 250.5l-5 86q11 -1 35 -2t118 -3t212 -1q-4 -404 4 -1079q-10 1 -30 1.5t-93.5 1.5
t-163.5 -1q2 77 2 186q-33 -80 -97.5 -122.5t-141.5 -42.5zM475 1085q-49 38 -91 68t-60 41l-17 10q72 105 127 188.5t74 114.5l18 31q67 -51 119.5 -90t72.5 -52l19 -14q-89 -98 -154.5 -172.5t-86.5 -99.5z" />
    <glyph glyph-name="ucircumflex" unicode="&#xfb;" horiz-adv-x="888" 
d="M324 -20q-103 0 -166 56t-95 186t-32 349q0 230 26 461q88 -14 338 -24q-12 -122 -12 -306q0 -106 3.5 -181t8.5 -120t14.5 -70.5t19 -33.5t22.5 -8q43 0 43 90q2 161 -2 326.5t-8 250.5l-5 86q11 -1 35 -2t118 -3t212 -1q-4 -404 4 -1079q-10 1 -30 1.5t-93.5 1.5
t-163.5 -1q2 77 2 186q-33 -80 -97.5 -122.5t-141.5 -42.5zM246 1075q-39 41 -152 133q67 64 221 230q52 0 224 20q55 -57 243 -221q-55 -51 -149 -160q-54 53 -201 172q-61 -51 -186 -174z" />
    <glyph glyph-name="udieresis" unicode="&#xfc;" horiz-adv-x="888" 
d="M324 -20q-103 0 -166 56t-95 186t-32 349q0 230 26 461q88 -14 338 -24q-12 -122 -12 -306q0 -106 3.5 -181t8.5 -120t14.5 -70.5t19 -33.5t22.5 -8q43 0 43 90q2 161 -2 326.5t-8 250.5l-5 86q11 -1 35 -2t118 -3t212 -1q-4 -404 4 -1079q-10 1 -30 1.5t-93.5 1.5
t-163.5 -1q2 77 2 186q-33 -80 -97.5 -122.5t-141.5 -42.5zM258 1124q-72 0 -110.5 48.5t-38.5 117.5q0 72 42 118t109 46q74 0 111 -47t37 -117q0 -85 -42.5 -125.5t-107.5 -40.5zM623 1133q-65 0 -104.5 45.5t-39.5 121.5q0 67 39 111.5t109 44.5q68 0 104.5 -46.5
t36.5 -115.5q0 -76 -39.5 -118.5t-105.5 -42.5z" />
    <glyph glyph-name="yacute" unicode="&#xfd;" horiz-adv-x="925" 
d="M600 -449l-356 43l49 297q-79 307 -152.5 578t-106.5 389l-34 117q108 0 206.5 4t143.5 8l45 4q17 -187 36 -344.5t29 -222.5l11 -64q21 208 34 380.5t16 241.5l3 69l402 -17q-123 -535 -204.5 -906t-101.5 -474zM500 1085q-49 38 -91 68t-59 41l-18 10
q72 105 126.5 188.5t73.5 114.5l19 31q67 -51 119.5 -90t71.5 -52l20 -14q-89 -98 -154.5 -172.5t-86.5 -99.5z" />
    <glyph glyph-name="thorn" unicode="&#xfe;" horiz-adv-x="935" 
d="M41 -393q4 401 4 845t-2 687l-2 243q83 -2 160.5 -1.5t132.5 1.5l55 2q-6 -178 -6 -514q71 172 235 172q148 0 222.5 -144t74.5 -396q0 -258 -84 -384t-219 -126q-75 0 -131 29t-84 83q4 -172 8.5 -295.5t7.5 -161.5l3 -38q-132 3 -215.5 3t-121.5 -2zM469 231
q19 0 29 17t17 82t7 188q0 108 -5.5 168t-16.5 82.5t-29 22.5q-34 0 -45.5 -56.5t-11.5 -210.5q0 -99 2.5 -155t9.5 -88t16.5 -41t26.5 -9z" />
    <glyph glyph-name="ydieresis" unicode="&#xff;" horiz-adv-x="925" 
d="M600 -449l-356 43l49 297q-79 307 -152.5 578t-106.5 389l-34 117q108 0 206.5 4t143.5 8l45 4q17 -187 36 -344.5t29 -222.5l11 -64q21 208 34 380.5t16 241.5l3 69l402 -17q-123 -535 -204.5 -906t-101.5 -474zM283 1124q-72 0 -111 49t-39 117q0 72 42.5 118t109.5 46
q73 0 110 -47t37 -117q0 -85 -42 -125.5t-107 -40.5zM647 1133q-65 0 -104 45.5t-39 121.5q0 67 39 111.5t108 44.5q68 0 105 -46.5t37 -115.5q0 -76 -40 -118.5t-106 -42.5z" />
    <glyph glyph-name="Amacron" unicode="&#x100;" horiz-adv-x="958" 
d="M0 31q90 545 205 1399q132 5 263 7t196 1h65q94 -691 229 -1469q-151 4 -391 -2q-4 68 -16 230q-37 2 -172 2l-12 -172q-13 1 -38.5 2t-120.5 2t-208 0zM463 1126q-41 -376 -62 -628h125zM199 1565q2 63 -4 227q132 -2 532 4q-4 -59 -4 -227q-140 2 -524 -4z" />
    <glyph glyph-name="amacron" unicode="&#x101;" horiz-adv-x="866" 
d="M305 -31q-130 0 -212.5 74.5t-82.5 204.5q0 182 123 272.5t346 85.5v29q-1 82 -13 113.5t-36 31.5q-26 0 -38 -33.5t-15 -105.5q-15 -1 -42 -1.5t-116.5 -1.5t-179.5 1q-3 174 99 282.5t306 108.5q380 0 390 -420q3 -136 3 -294t-1 -248l-2 -91q-81 -2 -269 -4
q6 62 8 144q-64 -148 -268 -148zM496 408l-2 41q-71 -10 -102.5 -50t-31.5 -96q0 -84 62 -84q37 0 55.5 41t18.5 148zM162 1118q2 64 -4 228q132 -2 532 4q-4 -60 -4 -228q-140 2 -524 -4z" />
    <glyph glyph-name="Abreve" unicode="&#x102;" horiz-adv-x="958" 
d="M0 31q90 545 205 1399q132 5 263 7t196 1h65q94 -691 229 -1469q-151 4 -391 -2q-4 68 -16 230q-37 2 -172 2l-12 -172q-13 1 -38.5 2t-120.5 2t-208 0zM463 1126q-41 -376 -62 -628h125zM455 1520q-82 0 -141.5 24.5t-90.5 66.5t-44 90.5t-9 102.5q61 1 219 11
q-3 -44 16.5 -71.5t55.5 -27.5q32 0 51.5 28t9.5 89q64 -2 226 2q7 -81 -14 -143t-63.5 -98.5t-97 -55t-118.5 -18.5z" />
    <glyph glyph-name="abreve" unicode="&#x103;" horiz-adv-x="866" 
d="M305 -31q-130 0 -212.5 74.5t-82.5 204.5q0 182 123 272.5t346 85.5v29q-1 82 -13 113.5t-36 31.5q-26 0 -38 -33.5t-15 -105.5q-15 -1 -42 -1.5t-116.5 -1.5t-179.5 1q-3 174 99 282.5t306 108.5q380 0 390 -420q3 -136 3 -294t-1 -248l-2 -91q-81 -2 -269 -4
q6 62 8 144q-64 -148 -268 -148zM496 408l-2 41q-71 -10 -102.5 -50t-31.5 -96q0 -84 62 -84q37 0 55.5 41t18.5 148zM420 1085q-82 0 -141.5 25t-90.5 67t-44 90.5t-9 102.5q61 0 219 10q-3 -43 16.5 -70.5t55.5 -27.5q32 0 51.5 28t9.5 89q64 -2 226 2q7 -81 -14 -143
t-63.5 -99t-97 -55.5t-118.5 -18.5z" />
    <glyph glyph-name="Aogonek" unicode="&#x104;" horiz-adv-x="958" 
d="M774 -426q-155 -15 -240 41.5t-85 177.5q0 120 116 203q-4 74 -14 201q-37 2 -172 2l-12 -172q-13 1 -38.5 2t-120.5 2t-208 0q90 545 205 1399q132 5 263 7t196 1h65q94 -691 229 -1469l-260 2q-49 -49 -49 -94q0 -89 142 -86q-11 -59 -17 -217zM463 1126
q-41 -376 -62 -628h125z" />
    <glyph glyph-name="aogonek" unicode="&#x105;" horiz-adv-x="866" 
d="M305 -31q-130 0 -212.5 74.5t-82.5 204.5q0 182 123 272.5t346 85.5v29q-1 82 -13 113.5t-36 31.5q-26 0 -38 -33.5t-15 -105.5q-15 -1 -42 -1.5t-116.5 -1.5t-179.5 1q-3 174 99 282.5t306 108.5q380 0 390 -420q3 -136 3 -294t-1 -248l-2 -91q-41 -2 -121 -2
q-56 -50 -56 -98q0 -89 142 -86q-11 -59 -17 -217q-155 -15 -240 41.5t-85 177.5q0 117 110 197q3 27 6 127q-64 -148 -268 -148zM496 408l-2 41q-71 -10 -102.5 -50t-31.5 -96q0 -84 62 -84q37 0 55.5 41t18.5 148z" />
    <glyph glyph-name="Cacute" unicode="&#x106;" 
d="M481 -35q-247 0 -354 172t-107 574q0 391 116 574t370 183q99 0 175.5 -31.5t125.5 -85.5t80 -131t42 -164t7 -188q-106 0 -204.5 2t-144.5 4l-46 3q1 168 -10 226t-44 58q-19 0 -31 -20t-19.5 -72t-10 -138t-0.5 -222q0 -142 3 -227t10.5 -131.5t18 -61.5t27.5 -15
q21 0 32.5 23.5t17.5 95.5t4 205q59 2 122 3.5t111 2t87 0.5h60h21q1 -150 -22 -263t-62.5 -184t-99.5 -115t-126.5 -61t-148.5 -16zM516 1516q-49 38 -91 67.5t-59 40.5l-18 10q72 105 127 188.5t73 114.5l19 31q67 -51 119.5 -90t71.5 -52l20 -14q-89 -98 -154.5 -172
t-86.5 -99z" />
    <glyph glyph-name="cacute" unicode="&#x107;" horiz-adv-x="890" 
d="M459 -25q-439 0 -439 537q0 253 115.5 390.5t337.5 137.5q104 0 187 -39t132.5 -104.5t72.5 -150t14 -177.5q-116 4 -207 6.5t-124 2.5h-34q6 204 -57 204q-31 0 -43.5 -62t-12.5 -220q0 -130 13.5 -187t46.5 -57q61 0 51 184q81 -4 369 6q3 -130 -29 -224t-92.5 -146.5
t-134.5 -76.5t-166 -24zM487 1085q-49 38 -91 68t-60 41l-17 10q72 105 127 188.5t74 114.5l19 31q67 -51 119.5 -90t71.5 -52l20 -14q-89 -98 -155 -172.5t-87 -99.5z" />
    <glyph glyph-name="Ccircumflex" unicode="&#x108;" 
d="M481 -35q-247 0 -354 172t-107 574q0 391 116 574t370 183q99 0 175.5 -31.5t125.5 -85.5t80 -131t42 -164t7 -188q-106 0 -204.5 2t-144.5 4l-46 3q1 168 -10 226t-44 58q-19 0 -31 -20t-19.5 -72t-10 -138t-0.5 -222q0 -142 3 -227t10.5 -131.5t18 -61.5t27.5 -15
q21 0 32.5 23.5t17.5 95.5t4 205q59 2 122 3.5t111 2t87 0.5h60h21q1 -150 -22 -263t-62.5 -184t-99.5 -115t-126.5 -61t-148.5 -16zM287 1503q-39 41 -152 133q67 64 221 230q52 0 224 20q55 -57 243 -221q-55 -51 -149 -160q-54 53 -201 172q-61 -51 -186 -174z" />
    <glyph glyph-name="ccircumflex" unicode="&#x109;" horiz-adv-x="890" 
d="M459 -25q-439 0 -439 537q0 253 115.5 390.5t337.5 137.5q104 0 187 -39t132.5 -104.5t72.5 -150t14 -177.5q-116 4 -207 6.5t-124 2.5h-34q6 204 -57 204q-31 0 -43.5 -62t-12.5 -220q0 -130 13.5 -187t46.5 -57q61 0 51 184q81 -4 369 6q3 -130 -29 -224t-92.5 -146.5
t-134.5 -76.5t-166 -24zM260 1063q-38 41 -151 133q67 63 221 229q51 1 223 21q56 -57 244 -221q-56 -51 -150 -160q-54 53 -201 172q-61 -51 -186 -174z" />
    <glyph glyph-name="Ccaron" unicode="&#x10c;" 
d="M481 -35q-247 0 -354 172t-107 574q0 391 116 574t370 183q99 0 175.5 -31.5t125.5 -85.5t80 -131t42 -164t7 -188q-106 0 -204.5 2t-144.5 4l-46 3q1 168 -10 226t-44 58q-19 0 -31 -20t-19.5 -72t-10 -138t-0.5 -222q0 -142 3 -227t10.5 -131.5t18 -61.5t27.5 -15
q21 0 32.5 23.5t17.5 95.5t4 205q59 2 122 3.5t111 2t87 0.5h60h21q1 -150 -22 -263t-62.5 -184t-99.5 -115t-126.5 -61t-148.5 -16zM379 1505q-56 57 -244 221q56 51 150 160q53 -53 200 -172q62 51 187 174q38 -41 151 -133q-67 -63 -221 -229q-51 -1 -223 -21z" />
    <glyph glyph-name="ccaron" unicode="&#x10d;" horiz-adv-x="890" 
d="M459 -25q-439 0 -439 537q0 253 115.5 390.5t337.5 137.5q104 0 187 -39t132.5 -104.5t72.5 -150t14 -177.5q-116 4 -207 6.5t-124 2.5h-34q6 204 -57 204q-31 0 -43.5 -62t-12.5 -220q0 -130 13.5 -187t46.5 -57q61 0 51 184q81 -4 369 6q3 -130 -29 -224t-92.5 -146.5
t-134.5 -76.5t-166 -24zM352 1083q-55 58 -243 222q55 50 149 159q54 -53 201 -172q61 51 186 174q39 -41 152 -133q-68 -63 -222 -229q-51 -1 -223 -21z" />
    <glyph glyph-name="Dcaron" unicode="&#x10e;" horiz-adv-x="948" 
d="M418 262q45 -3 65.5 19t32.5 115.5t12 293.5q0 177 -11 273t-37 136.5t-74 35.5q1 -193 4 -411t6 -340zM41 -8l2 1427q165 27 270 27q170 0 287 -45t190 -141.5t105.5 -239.5t32.5 -348q0 -374 -148.5 -539.5t-449.5 -165.5q-123 0 -289 25zM301 1505q-56 57 -244 221
q56 51 150 160q54 -53 201 -172q61 51 186 174q38 -41 151 -133q-67 -63 -221 -229q-51 -1 -223 -21z" />
    <glyph glyph-name="dcaron" unicode="&#x10f;" horiz-adv-x="935" 
d="M889 -35q-105 2 -289 2q2 70 4 176q-69 -153 -235 -153q-165 0 -257 132.5t-92 418.5q0 228 80.5 362.5t241.5 134.5q121 0 195 -112q-7 191 -23 475q75 -6 381 2q-1 -73 -2.5 -197t-4 -516.5t0.5 -724.5zM471 223q17 0 27.5 18t19 86.5t8.5 192.5q0 137 -14 202.5
t-47 65.5q-18 0 -29 -24t-16.5 -87.5t-5.5 -176.5q0 -277 57 -277zM1262 1262q0 -137 -195 -293q-30 24 -58 45t-41 30l-12 9q58 55 82 104q-37 12 -58.5 43.5t-21.5 75.5q0 56 42.5 91.5t111.5 35.5q67 0 108.5 -37t41.5 -104z" />
    <glyph glyph-name="Dcroat" unicode="&#x110;" horiz-adv-x="999" 
d="M92 -8l2 528l-84 -2q1 13 2 38.5t2 119t0 203.5q27 -3 80 -5v545q162 27 266 27q171 0 288.5 -44.5t191.5 -141t106.5 -239.5t32.5 -349q0 -193 -38 -328.5t-116.5 -218.5t-190 -120.5t-267.5 -37.5q-96 0 -275 25zM469 248q44 -4 66 25.5t33.5 124.5t11.5 286
q0 263 -25.5 363.5t-97.5 93.5q0 -183 2 -271h57q-4 -85 2 -344h-55z" />
    <glyph glyph-name="dcroat" unicode="&#x111;" horiz-adv-x="925" 
d="M995 1030q-49 4 -104 6q-4 -573 -2 -1071q-105 2 -289 2q2 70 4 176q-69 -153 -235 -153q-165 0 -257 132.5t-92 418.5q0 228 80.5 362.5t241.5 134.5q121 0 195 -112q-7 191 -23 475q75 -6 381 2q-2 -42 -2 -103l115 9q-5 -79 -8.5 -149t-3.5 -100zM471 223
q17 0 27.5 18t19 86.5t8.5 192.5q0 137 -14 202.5t-47 65.5q-18 0 -29 -24t-16.5 -87.5t-5.5 -176.5q0 -277 57 -277z" />
    <glyph glyph-name="Emacron" unicode="&#x112;" horiz-adv-x="733" 
d="M57 6q-4 594 -16 1417q175 3 668 7q-2 -150 4 -363q-196 -2 -305 -6v-191q173 0 254 2q-2 -145 2 -346q-111 2 -248 2q0 -69 6 -180q115 -8 287 -14q-4 -115 -4 -342q-303 10 -648 14zM115 1565q2 63 -4 227q132 -2 532 4q-4 -59 -4 -227q-140 2 -524 -4z" />
    <glyph glyph-name="emacron" unicode="&#x113;" horiz-adv-x="911" 
d="M461 -20q-101 0 -178.5 27.5t-126.5 75t-80 117t-43.5 146t-12.5 170.5q0 111 24.5 203t75.5 165t137.5 113.5t201.5 40.5q470 0 426 -614q-196 0 -492 -4q4 -101 20.5 -144t49.5 -43q54 0 59 117q191 -2 369 -8q-23 -173 -138 -267.5t-292 -94.5zM457 803
q-32 0 -46.5 -43t-17.5 -162q78 0 119 2q3 203 -55 203zM193 1135q1 63 -5 227q133 -2 533 4q-4 -59 -4 -227q-140 2 -524 -4z" />
    <glyph glyph-name="Edotaccent" unicode="&#x116;" horiz-adv-x="733" 
d="M57 6q-4 594 -16 1417q175 3 668 7q-2 -150 4 -363q-196 -2 -305 -6v-191q173 0 254 2q-2 -145 2 -346q-111 2 -248 2q0 -69 6 -180q115 -8 287 -14q-4 -115 -4 -342q-303 10 -648 14zM377 1530q-88 0 -135 54.5t-47 125.5q0 73 48.5 124.5t133.5 51.5q86 0 134 -53
t48 -123q0 -88 -51 -134t-131 -46z" />
    <glyph glyph-name="edotaccent" unicode="&#x117;" horiz-adv-x="911" 
d="M461 -20q-101 0 -178.5 27.5t-126.5 75t-80 117t-43.5 146t-12.5 170.5q0 111 24.5 203t75.5 165t137.5 113.5t201.5 40.5q470 0 426 -614q-196 0 -492 -4q4 -101 20.5 -144t49.5 -43q54 0 59 117q191 -2 369 -8q-23 -173 -138 -267.5t-292 -94.5zM457 803
q-32 0 -46.5 -43t-17.5 -162q78 0 119 2q3 203 -55 203zM455 1108q-88 0 -135.5 54.5t-47.5 125.5q0 73 49 124.5t134 51.5q86 0 134 -53t48 -123q0 -88 -51 -134t-131 -46z" />
    <glyph glyph-name="Eogonek" unicode="&#x118;" horiz-adv-x="733" 
d="M696 -434q-148 -14 -236.5 44t-88.5 175q0 67 41.5 122t126.5 91q-36 1 -128.5 2.5t-181.5 3t-172 2.5q-4 594 -16 1417q175 3 668 7q-2 -150 4 -363q-196 -2 -305 -6v-191q173 0 254 2q-2 -145 2 -346q-111 2 -248 2l6 -180q115 -8 287 -14q-4 -115 -4 -342
q-70 -22 -102 -54.5t-32 -68.5q0 -89 142 -86q-11 -59 -17 -217z" />
    <glyph glyph-name="eogonek" unicode="&#x119;" horiz-adv-x="911" 
d="M610 -426q-155 -15 -240 41.5t-85 177.5q0 111 102 191q-104 12 -177.5 57.5t-114 119.5t-58 160t-17.5 195q0 111 24.5 203t75.5 165t137.5 113.5t201.5 40.5q470 0 426 -614q-196 0 -492 -4q4 -101 20.5 -144t49.5 -43q54 0 59 117q191 -2 369 -8
q-20 -149 -108.5 -240.5t-227.5 -113.5q-70 -58 -70 -111q0 -89 142 -86q-11 -59 -17 -217zM457 803q-32 0 -46.5 -43t-17.5 -162q78 0 119 2q3 203 -55 203z" />
    <glyph glyph-name="Ecaron" unicode="&#x11a;" horiz-adv-x="733" 
d="M57 6q-4 594 -16 1417q175 3 668 7q-2 -150 4 -363q-196 -2 -305 -6v-191q173 0 254 2q-2 -145 2 -346q-111 2 -248 2q0 -69 6 -180q115 -8 287 -14q-4 -115 -4 -342q-303 10 -648 14zM276 1485q-55 57 -243 221q55 51 149 160q54 -53 201 -172q61 51 186 174
q39 -41 152 -133q-67 -64 -221 -230q-52 0 -224 -20z" />
    <glyph glyph-name="ecaron" unicode="&#x11b;" horiz-adv-x="911" 
d="M461 -20q-101 0 -178.5 27.5t-126.5 75t-80 117t-43.5 146t-12.5 170.5q0 111 24.5 203t75.5 165t137.5 113.5t201.5 40.5q470 0 426 -614q-196 0 -492 -4q4 -101 20.5 -144t49.5 -43q54 0 59 117q191 -2 369 -8q-23 -173 -138 -267.5t-292 -94.5zM457 803
q-32 0 -46.5 -43t-17.5 -162q78 0 119 2q3 203 -55 203zM354 1081q-55 58 -243 222q55 50 149 159q54 -53 201 -172q61 51 186 174q39 -41 152 -133q-67 -63 -221 -229q-52 -1 -224 -21z" />
    <glyph glyph-name="Gcircumflex" unicode="&#x11c;" horiz-adv-x="962" 
d="M481 -37q-88 0 -155.5 20.5t-126.5 71.5t-97.5 134t-60 211.5t-21.5 299.5q0 393 114.5 572.5t359.5 179.5q115 0 202 -46t138.5 -127t74 -187.5t15.5 -233.5q-305 2 -375 4q2 107 -5.5 171.5t-21.5 90t-37 25.5q-21 0 -33.5 -18t-21.5 -68.5t-12 -138t-2 -228.5
q1 -190 10.5 -290.5t26.5 -134t47 -33.5q23 0 36.5 20.5t19.5 69t5 133.5q-35 -2 -86 -6q2 113 -2 303q287 -2 467 -2q6 -195 -12 -336.5t-54.5 -229t-97.5 -139t-130.5 -70t-164.5 -18.5zM287 1489q-39 41 -152 133q67 63 221 229q52 1 224 21q55 -57 243 -221
q-55 -51 -149 -160q-54 53 -201 172q-61 -51 -186 -174z" />
    <glyph glyph-name="gcircumflex" unicode="&#x11d;" horiz-adv-x="856" 
d="M369 219q-11 -11 -11 -24q0 -18 30.5 -28.5t131.5 -21.5q196 -22 281.5 -101.5t85.5 -213.5q0 -92 -38 -163.5t-103 -114.5t-145 -65t-169 -22q-198 0 -310 66t-112 188q0 74 51 131t129 76q-98 59 -98 160q0 47 31 93.5t90 82.5q-193 96 -193 389q0 190 110 302t308 112
q195 0 300.5 -110t105.5 -304q0 -213 -107.5 -324.5t-277.5 -111.5q-32 0 -90 4zM436 406q56 0 56 204q0 217 -56 217q-63 0 -63 -215q0 -117 16 -161.5t47 -44.5zM551 -236q0 38 -43 58t-121 22q-21 -13 -34 -37t-13 -45q0 -35 27.5 -55t74.5 -20q51 0 80 20t29 57z
M256 1096q-39 41 -152 133q68 63 222 229q51 1 223 21q56 -58 244 -222q-56 -50 -150 -159q-54 53 -201 172q-61 -51 -186 -174z" />
    <glyph glyph-name="Gbreve" unicode="&#x11e;" horiz-adv-x="962" 
d="M481 -37q-88 0 -155.5 20.5t-126.5 71.5t-97.5 134t-60 211.5t-21.5 299.5q0 393 114.5 572.5t359.5 179.5q115 0 202 -46t138.5 -127t74 -187.5t15.5 -233.5q-305 2 -375 4q2 107 -5.5 171.5t-21.5 90t-37 25.5q-21 0 -33.5 -18t-21.5 -68.5t-12 -138t-2 -228.5
q1 -190 10.5 -290.5t26.5 -134t47 -33.5q23 0 36.5 20.5t19.5 69t5 133.5q-35 -2 -86 -6q2 113 -2 303q287 -2 467 -2q6 -195 -12 -336.5t-54.5 -229t-97.5 -139t-130.5 -70t-164.5 -18.5zM475 1509q-82 0 -141.5 25t-90.5 67t-44 90.5t-9 102.5q62 0 220 10q-3 -44 16 -71
t55 -27q32 0 52 28.5t10 88.5q63 -2 225 2q7 -81 -14 -143t-63.5 -99t-97 -55.5t-118.5 -18.5z" />
    <glyph glyph-name="gbreve" unicode="&#x11f;" horiz-adv-x="856" 
d="M369 219q-11 -11 -11 -24q0 -18 30.5 -28.5t131.5 -21.5q196 -22 281.5 -101.5t85.5 -213.5q0 -92 -38 -163.5t-103 -114.5t-145 -65t-169 -22q-198 0 -310 66t-112 188q0 74 51 131t129 76q-98 59 -98 160q0 47 31 93.5t90 82.5q-193 96 -193 389q0 190 110 302t308 112
q195 0 300.5 -110t105.5 -304q0 -213 -107.5 -324.5t-277.5 -111.5q-32 0 -90 4zM436 406q56 0 56 204q0 217 -56 217q-63 0 -63 -215q0 -117 16 -161.5t47 -44.5zM551 -236q0 38 -43 58t-121 22q-21 -13 -34 -37t-13 -45q0 -35 27.5 -55t74.5 -20q51 0 80 20t29 57z
M442 1120q-82 0 -141 25t-90 67t-44 90.5t-9 102.5q61 0 219 10q-3 -43 16.5 -70.5t55.5 -27.5q32 0 51.5 28t9.5 89q63 -2 225 2q7 -81 -14 -143t-63.5 -99t-97 -55.5t-118.5 -18.5z" />
    <glyph glyph-name="Gcommaaccent" unicode="&#x122;" horiz-adv-x="962" 
d="M481 -37q-88 0 -155.5 20.5t-126.5 71.5t-97.5 134t-60 211.5t-21.5 299.5q0 393 114.5 572.5t359.5 179.5q115 0 202 -46t138.5 -127t74 -187.5t15.5 -233.5q-305 2 -375 4q2 107 -5.5 171.5t-21.5 90t-37 25.5q-21 0 -33.5 -18t-21.5 -68.5t-12 -138t-2 -228.5
q1 -190 10.5 -290.5t26.5 -134t47 -33.5q23 0 36.5 20.5t19.5 69t5 133.5q-35 -2 -86 -6q2 113 -2 303q287 -2 467 -2q6 -195 -12 -336.5t-54.5 -229t-97.5 -139t-130.5 -70t-164.5 -18.5zM633 -225q0 -137 -195 -293l-110 84q58 55 82 104q-37 12 -58.5 43.5t-21.5 75.5
q0 56 42.5 91.5t110.5 35.5q67 0 108.5 -37t41.5 -104z" />
    <glyph glyph-name="gcommaaccent" unicode="&#x123;" horiz-adv-x="856" 
d="M369 219q-11 -11 -11 -24q0 -18 30.5 -28.5t131.5 -21.5q196 -22 281.5 -101.5t85.5 -213.5q0 -92 -38 -163.5t-103 -114.5t-145 -65t-169 -22q-198 0 -310 66t-112 188q0 74 51 131t129 76q-98 59 -98 160q0 47 31 93.5t90 82.5q-193 96 -193 389q0 190 110 302t308 112
q195 0 300.5 -110t105.5 -304q0 -213 -107.5 -324.5t-277.5 -111.5q-32 0 -90 4zM297 1266q0 137 195 293q71 -59 108 -84q-53 -51 -80 -105q37 -12 58.5 -43.5t21.5 -75.5q0 -56 -42.5 -91.5t-111.5 -35.5q-66 0 -107.5 37.5t-41.5 104.5zM436 406q56 0 56 204
q0 217 -56 217q-63 0 -63 -215q0 -117 16 -161.5t47 -44.5zM551 -236q0 38 -43 58t-121 22q-21 -13 -34 -37t-13 -45q0 -35 27.5 -55t74.5 -20q51 0 80 20t29 57z" />
    <glyph glyph-name="Hcircumflex" unicode="&#x124;" horiz-adv-x="929" 
d="M516 -41v461q-59 0 -102 -2l6 -373q-156 6 -371 -2q2 544 -8 1343q87 -1 365 3q2 -264 6 -658q49 -2 102 -2q0 124 -2.5 391.5t-3.5 339.5q133 -2 375 2q0 -669 6 -1505q-16 1 -45.5 2t-129 2t-198.5 -2zM272 1505q-38 41 -151 133q67 64 221 230q51 0 223 20
q56 -57 244 -221q-56 -51 -150 -160q-53 53 -200 172q-62 -51 -187 -174z" />
    <glyph glyph-name="hcircumflex" unicode="&#x125;" horiz-adv-x="888" 
d="M41 41q1 66 2.5 180.5t4 478.5t-2.5 682q104 -2 348 2q-8 -207 -8 -487q84 141 238 141q107 0 165.5 -85.5t63.5 -231.5q4 -146 5.5 -336t0.5 -307v-117q-124 4 -362 4q4 357 0 680q0 37 -10.5 52.5t-32.5 15.5q-24 0 -34.5 -14.5t-10.5 -53.5l-2 -602q-113 2 -365 -2z
M25 1413q-39 41 -152 133q67 64 221 230q51 0 223 20q56 -57 244 -221q-55 -51 -149 -160q-54 53 -201 172q-61 -51 -186 -174z" />
    <glyph glyph-name="Imacron" unicode="&#x12a;" horiz-adv-x="483" 
d="M59 -2q2 628 -8 1423q127 0 371 2q4 -687 10 -1425q-123 2 -373 0zM-20 1554q1 64 -5 228q133 -2 533 4q-4 -59 -4 -227q-140 1 -524 -5z" />
    <glyph glyph-name="imacron" unicode="&#x12b;" horiz-adv-x="452" 
d="M53 2q2 283 -6 1034q119 -2 359 2q-2 -365 8 -1034q-154 0 -361 -2zM-33 1165q2 64 -4 228q133 -2 533 4q-4 -60 -4 -228q-141 2 -525 -4z" />
    <glyph glyph-name="Iogonek" unicode="&#x12e;" horiz-adv-x="483" 
d="M360 -436q-155 -15 -240 41.5t-85 177.5q0 131 137 217l-113 -2q2 628 -8 1423q127 0 371 2q4 -687 10 -1425q-45 2 -96 2q-48 -30 -74 -65.5t-26 -67.5q0 -89 141 -86q-11 -59 -17 -217z" />
    <glyph glyph-name="iogonek" unicode="&#x12f;" horiz-adv-x="452" 
d="M53 2q2 283 -6 1034q119 -2 359 2q-2 -365 8 -1034q-42 2 -97 0q-42 -27 -67 -62t-25 -65q0 -89 142 -86q-11 -59 -17 -217q-155 -15 -240 41.5t-85 177.5q0 125 129 209q-42 2 -101 0zM231 1114q-109 0 -165 56t-56 161q0 95 58.5 148t162.5 53q99 0 155 -58.5
t56 -146.5q0 -94 -54.5 -153.5t-156.5 -59.5z" />
    <glyph glyph-name="Idotaccent" unicode="&#x130;" horiz-adv-x="483" 
d="M59 -2q2 628 -8 1423q127 0 371 2q4 -687 10 -1425q-123 2 -373 0zM242 1530q-88 0 -135.5 54.5t-47.5 125.5q0 73 49 124.5t134 51.5q86 0 134 -53t48 -123q0 -88 -51 -134t-131 -46z" />
    <glyph glyph-name="dotlessi" unicode="&#x131;" horiz-adv-x="452" 
d="M53 2q2 283 -6 1034q119 -2 359 2q-2 -365 8 -1034q-154 0 -361 -2z" />
    <glyph glyph-name="Jcircumflex" unicode="&#x134;" horiz-adv-x="858" 
d="M414 -20q-209 0 -306.5 122t-97.5 355q0 131 25 250q104 -13 325 -27q-10 -85 -10 -156q0 -200 56 -200q23 0 36 33t21 137.5t8 298.5q0 289 -47 639q133 12 360 28q54 -371 54 -688q0 -127 -8 -228t-26.5 -192.5t-50.5 -158t-78 -115.5t-111.5 -73.5t-149.5 -24.5z
M414 1493q-39 41 -152 133q67 63 221 229q52 1 224 21q55 -57 243 -221q-55 -51 -149 -160q-54 53 -201 172q-61 -51 -186 -174z" />
    <glyph glyph-name="jcircumflex" unicode="&#x135;" horiz-adv-x="454" 
d="M-174 -469q8 125 8 336q14 -2 43 -2q96 0 135 44t41 138q3 193 3 412t-2 396l-3 177l350 2q2 -44 4 -125.5t6 -355.5t-1 -553q-2 -109 -27.5 -192t-82 -147.5t-154.5 -98t-236 -33.5q-55 0 -84 2zM39 1085q-39 42 -152 134q68 63 222 229q51 0 223 20q55 -57 243 -221
q-55 -51 -149 -160q-54 54 -201 173q-61 -52 -186 -175z" />
    <glyph glyph-name="Kcommaaccent" unicode="&#x136;" horiz-adv-x="972" 
d="M573 -53q-51 271 -81 415q-52 -137 -76 -215l4 -114q-135 2 -219 1.5t-122 -2.5l-38 -1q3 346 3 686.5t-2 508.5l-1 167l377 -2q-6 -414 -6 -697q55 234 97.5 426.5t57.5 267.5l15 76q111 -5 207.5 -8t136.5 -4h41q-148 -501 -211 -725q56 -209 110.5 -398.5t80.5 -274.5
l26 -85q-96 -4 -196 -9.5t-152 -9.5zM659 -246q0 -138 -194 -293q-30 24 -58 45t-41 30l-12 9q57 54 82 105q-37 12 -58.5 43.5t-21.5 75.5q0 56 42.5 91.5t111.5 35.5q66 0 107.5 -37.5t41.5 -104.5z" />
    <glyph glyph-name="kcommaaccent" unicode="&#x137;" horiz-adv-x="931" 
d="M545 -49q-18 79 -44 190t-32 140q-37 -64 -66 -125l3 -123l-365 4q3 420 3 758.5t-2 466.5l-1 129q115 -4 206.5 -5t126.5 0h34q-5 -435 -5 -774l129 424l400 -20q-39 -79 -207 -430q54 -171 105.5 -328t76.5 -228l25 -71q-118 -1 -215 -3t-135 -4zM639 -221
q0 -137 -195 -293l-110 84q58 55 82 104q-37 12 -58.5 43.5t-21.5 75.5q0 56 42.5 91.5t110.5 35.5q67 0 108.5 -37t41.5 -104z" />
    <glyph glyph-name="Lacute" unicode="&#x139;" horiz-adv-x="716" 
d="M53 8q0 567 -12 1403q121 -4 369 0q-6 -207 8 -1067l299 -6l-2 -338q-75 3 -240.5 5t-293.5 3h-128zM268 1475q-49 38 -91 67.5t-59 39.5l-18 11q72 105 127 188.5t73 114.5l19 31q67 -51 119.5 -90t71.5 -52l20 -13q-89 -98 -154.5 -172.5t-86.5 -99.5z" />
    <glyph glyph-name="lacute" unicode="&#x13a;" horiz-adv-x="444" 
d="M403 37q-66 2 -127.5 3.5t-102 2t-71.5 0.5h-45h-14q3 466 2.5 765t-2.5 440l-2 141l362 -11q-4 -447 -4 -782.5t2 -447.5zM248 1421q-49 38 -91 68t-59 41l-18 10q72 105 127 188.5t73 114.5l19 31q67 -51 119.5 -90t71.5 -52l20 -14q-89 -98 -154.5 -172.5t-86.5 -99.5
z" />
    <glyph glyph-name="Lcommaaccent" unicode="&#x13b;" horiz-adv-x="716" 
d="M53 8q0 567 -12 1403q121 -4 369 0q-6 -207 8 -1067l299 -6l-2 -338q-75 3 -240.5 5t-293.5 3h-128zM532 -195q0 -137 -194 -292q-70 57 -111 84q58 55 82 104q-37 12 -58.5 43.5t-21.5 75.5q0 56 42.5 91.5t111.5 35.5q66 0 107.5 -37.5t41.5 -104.5z" />
    <glyph glyph-name="lcommaaccent" unicode="&#x13c;" horiz-adv-x="444" 
d="M403 37q-66 2 -127.5 3.5t-102 2t-71.5 0.5h-45h-14q3 466 2.5 765t-2.5 440l-2 141l362 -11q-4 -447 -4 -782.5t2 -447.5zM375 -195q0 -136 -195 -292q-75 60 -110 84q58 55 82 104q-37 12 -58.5 43.5t-21.5 75.5q0 56 42.5 91.5t110.5 35.5q67 0 108.5 -37.5
t41.5 -104.5z" />
    <glyph glyph-name="Lcaron" unicode="&#x13d;" horiz-adv-x="716" 
d="M53 8q0 567 -12 1403q121 -4 369 0q-6 -207 8 -1067l299 -6l-2 -338q-75 3 -240.5 5t-293.5 3h-128zM797 1364q0 -137 -195 -293l-110 84q55 53 81 105q-37 12 -58 43t-21 75q0 56 42.5 91.5t110.5 35.5q67 0 108.5 -37t41.5 -104z" />
    <glyph glyph-name="lcaron" unicode="&#x13e;" horiz-adv-x="444" 
d="M403 37q-66 2 -127.5 3.5t-102 2t-71.5 0.5h-45h-14q3 466 2.5 765t-2.5 440l-2 141l362 -11q-4 -447 -4 -782.5t2 -447.5zM770 1247q0 -137 -195 -293l-110 84q57 54 82 105q-37 12 -58.5 43.5t-21.5 75.5q0 56 42.5 91.5t111.5 35.5q66 0 107.5 -37.5t41.5 -104.5z" />
    <glyph glyph-name="Lslash" unicode="&#x141;" horiz-adv-x="737" 
d="M0 506q1 13 2 38t2 118.5t0 203.5l64 17l-7 528q121 -4 369 0q-2 -110 0 -428l102 31q-3 -85 3 -344q-40 -11 -103 -29l6 -297l299 -6l-2 -338q-75 3 -240 5t-293 3h-128q0 193 -2 520z" />
    <glyph glyph-name="lslash" unicode="&#x142;" horiz-adv-x="491" 
d="M4 516l-4 307q30 8 68 21l-5 545l363 -11l-4 -415l70 26q-4 -80 -6.5 -160t-2.5 -119v-40l-61 -19l4 -614q-66 2 -127.5 3.5t-102 2t-71.5 0.5h-45h-14l2 494z" />
    <glyph glyph-name="Nacute" unicode="&#x143;" horiz-adv-x="991" 
d="M47 37q8 504 -6 1329q147 10 348 16q86 -261 244 -696q-15 307 -53 776q14 -1 40.5 -2t113.5 -3t179 -1q10 -549 37 -1460q-103 -17 -332 -35q-102 292 -256 703q7 -244 31 -633q-135 6 -346 6zM532 1499q-49 38 -91 68t-59 41l-17 10q72 105 126.5 188.5t73.5 114.5
l19 31q67 -51 119.5 -90t72.5 -52l19 -14q-89 -98 -155 -172.5t-87 -99.5z" />
    <glyph glyph-name="nacute" unicode="&#x144;" horiz-adv-x="886" 
d="M492 -37q4 359 4 682q0 36 -10 52t-33 16q-25 0 -34 -16t-11 -52q-2 -67 -2.5 -220t0.5 -273v-119q-164 2 -365 0q1 43 2 120.5t3 335t-1 508.5q119 -4 283 2l-2 -155q36 83 112 136.5t164 53.5q119 0 182 -78.5t68 -224.5q2 -49 3 -240.5t1 -358.5v-167zM506 1065
q-49 38 -91 68t-59 41l-18 10q72 105 127 188.5t73 114.5l19 31q67 -51 119.5 -90t71.5 -52l20 -14q-89 -98 -154.5 -172.5t-86.5 -99.5z" />
    <glyph glyph-name="Ncommaaccent" unicode="&#x145;" horiz-adv-x="991" 
d="M47 37q8 504 -6 1329q147 10 348 16q86 -261 244 -696q-15 307 -53 776q14 -1 40.5 -2t113.5 -3t179 -1q10 -549 37 -1460q-103 -17 -332 -35q-102 292 -256 703q7 -244 31 -633q-135 6 -346 6zM649 -195q0 -137 -194 -292q-30 24 -58 45t-41 30l-12 9q58 55 82 104
q-37 12 -58.5 43.5t-21.5 75.5q0 56 42.5 91.5t111.5 35.5q66 0 107.5 -37.5t41.5 -104.5z" />
    <glyph glyph-name="ncommaaccent" unicode="&#x146;" horiz-adv-x="886" 
d="M492 -37q4 359 4 682q0 36 -10 52t-33 16q-25 0 -34 -16t-11 -52q-2 -67 -2.5 -220t0.5 -273v-119q-164 2 -365 0q1 43 2 120.5t3 335t-1 508.5q119 -4 283 2l-2 -155q36 83 112 136.5t164 53.5q119 0 182 -78.5t68 -224.5q2 -49 3 -240.5t1 -358.5v-167zM623 -215
q0 -137 -195 -293q-30 24 -58 45l-40 30l-13 9q57 54 82 105q-37 12 -58.5 43t-21.5 75q0 56 42.5 91.5t111.5 35.5q67 0 108.5 -37t41.5 -104z" />
    <glyph glyph-name="Ncaron" unicode="&#x147;" horiz-adv-x="991" 
d="M47 37q8 504 -6 1329q147 10 348 16q86 -261 244 -696q-15 307 -53 776q14 -1 40.5 -2t113.5 -3t179 -1q10 -549 37 -1460q-103 -17 -332 -35q-102 292 -256 703q7 -244 31 -633q-135 6 -346 6zM395 1505q-55 57 -243 221q55 51 149 160q54 -53 201 -172q61 51 186 174
q39 -41 152 -133q-68 -63 -222 -229q-51 -1 -223 -21z" />
    <glyph glyph-name="ncaron" unicode="&#x148;" horiz-adv-x="886" 
d="M492 -37q4 359 4 682q0 36 -10 52t-33 16q-25 0 -34 -16t-11 -52q-2 -67 -2.5 -220t0.5 -273v-119q-164 2 -365 0q1 43 2 120.5t3 335t-1 508.5q119 -4 283 2l-2 -155q36 83 112 136.5t164 53.5q119 0 182 -78.5t68 -224.5q2 -49 3 -240.5t1 -358.5v-167zM369 1075
q-56 57 -244 221q55 51 149 160q54 -53 201 -172q62 51 187 174q38 -41 151 -133q-67 -63 -221 -229q-51 -1 -223 -21z" />
    <glyph glyph-name="Omacron" unicode="&#x14c;" horiz-adv-x="970" 
d="M485 -39q-248 0 -355.5 180t-109.5 547q0 143 12.5 254.5t44.5 210t83.5 163t133 101.5t189.5 37q112 0 194 -34.5t134 -95.5t83.5 -159t43.5 -210.5t12 -264.5q-2 -267 -53.5 -428t-151 -231t-260.5 -70zM489 242q23 0 34 28t17.5 130t6.5 307q0 150 -3 239.5t-11.5 137
t-19 62.5t-28.5 15q-40 0 -50.5 -83t-10.5 -386q0 -197 7 -294.5t19.5 -126.5t38.5 -29zM223 1552q2 64 -4 228q133 -2 533 4q-4 -60 -4 -228q-141 2 -525 -4z" />
    <glyph glyph-name="omacron" unicode="&#x14d;" horiz-adv-x="915" 
d="M455 -16q-120 0 -206 38.5t-135 112t-71.5 170t-22.5 223.5q0 244 114 378t327 134q222 0 328 -139t106 -389q0 -280 -112.5 -404t-327.5 -124zM459 217q20 0 30.5 18.5t17.5 84t7 190.5q0 120 -6 182.5t-17 83.5t-32 21q-23 0 -34.5 -21t-17.5 -79.5t-6 -172.5
q0 -134 6.5 -201t18 -86.5t33.5 -19.5zM195 1133q1 63 -5 227q133 -2 533 4q-4 -59 -4 -227q-140 2 -524 -4z" />
    <glyph glyph-name="Ohungarumlaut" unicode="&#x150;" horiz-adv-x="970" 
d="M485 -39q-248 0 -355.5 180t-109.5 547q0 143 12.5 254.5t44.5 210t83.5 163t133 101.5t189.5 37q112 0 194 -34.5t134 -95.5t83.5 -159t43.5 -210.5t12 -264.5q-2 -267 -53.5 -428t-151 -231t-260.5 -70zM489 242q23 0 34 28t17.5 130t6.5 307q0 150 -3 239.5t-11.5 137
t-19 62.5t-28.5 15q-40 0 -50.5 -83t-10.5 -386q0 -197 7 -294.5t19.5 -126.5t38.5 -29zM655 1487q-53 33 -95.5 57.5t-58.5 32.5l-16 8q64 106 113.5 192.5t67.5 120.5l18 33l201 -121q-78 -108 -135.5 -188.5t-75.5 -107.5zM358 1493q-53 33 -95 56t-57 29l-16 7
q60 112 105 199.5t59 119.5l15 31q71 -44 121.5 -73.5t65.5 -37.5l15 -7z" />
    <glyph glyph-name="ohungarumlaut" unicode="&#x151;" horiz-adv-x="915" 
d="M455 -16q-120 0 -206 38.5t-135 112t-71.5 170t-22.5 223.5q0 244 114 378t327 134q222 0 328 -139t106 -389q0 -280 -112.5 -404t-327.5 -124zM459 217q20 0 30.5 18.5t17.5 84t7 190.5q0 120 -6 182.5t-17 83.5t-32 21q-23 0 -34.5 -21t-17.5 -79.5t-6 -172.5
q0 -134 6.5 -201t18 -86.5t33.5 -19.5zM627 1073q-53 33 -95.5 57.5t-58.5 32.5l-16 8q64 106 113.5 192.5t67.5 120.5l17 34l201 -121q-78 -108 -135.5 -189t-75.5 -108zM330 1079q-53 33 -95 56t-57 29l-16 7q60 112 104.5 199.5t59.5 119.5l14 32q71 -44 122 -73.5
t66 -37.5l15 -8z" />
    <glyph glyph-name="OE" unicode="&#x152;" horiz-adv-x="1245" 
d="M1176 526q-120 2 -265 2q0 -112 2 -180q136 -8 308 -14q-4 -115 -4 -342q-180 14 -560 24q-77 -55 -190 -55q-123 0 -210.5 51t-138.5 149t-74.5 227.5t-23.5 299.5q0 179 23 316t73.5 240t136 156.5t204.5 53.5q90 0 174 -43q115 0 590 19q-2 -150 4 -363
q-196 -2 -305 -6q-3 -74 -5 -191q93 -2 259 2q-2 -145 2 -346zM487 244q22 0 33.5 29.5t18 130.5t6.5 303q0 194 -7 293t-19.5 129t-35.5 30q-20 0 -31 -17t-18.5 -71t-9.5 -140t-2 -239q0 -145 3 -232t11.5 -135.5t19.5 -64.5t31 -16z" />
    <glyph glyph-name="oe" unicode="&#x153;" horiz-adv-x="1421" 
d="M997 -29q-206 0 -295 125q-92 -116 -260 -116q-111 0 -193.5 39.5t-132 113.5t-73 172t-23.5 223q0 251 110 381.5t308 130.5q168 0 264 -122q93 114 279 114q456 0 414 -616q-139 0 -492 -6q4 -100 20.5 -142.5t49.5 -42.5q54 0 59 117q191 -2 369 -8
q-23 -176 -126.5 -269.5t-277.5 -93.5zM459 217q20 0 30.5 18.5t17.5 84t7 190.5q0 120 -6 182.5t-17 83.5t-32 21q-23 0 -34.5 -21t-17.5 -79.5t-6 -172.5q0 -134 6.5 -201t18 -86.5t33.5 -19.5zM967 795q-34 0 -47.5 -43.5t-16.5 -161.5q70 0 119 2q2 110 -10.5 156.5
t-44.5 46.5z" />
    <glyph glyph-name="Racute" unicode="&#x154;" horiz-adv-x="937" 
d="M573 -45q-47 202 -133 516q-14 -2 -28 -2l8 -440q-160 2 -379 -2q1 61 2.5 175t4 480.5t1.5 749.5q182 34 328 34q280 0 414.5 -129.5t134.5 -386.5q0 -249 -172 -372q65 -216 204 -598q-139 -11 -385 -25zM412 717q127 3 127 207q0 111 -33 172t-100 55zM477 1526
q-49 38 -91 68t-60 40l-17 11q72 105 127 188t74 114l18 31q67 -51 119.5 -90t72.5 -52l19 -13q-89 -98 -154.5 -172.5t-86.5 -99.5z" />
    <glyph glyph-name="racute" unicode="&#x155;" horiz-adv-x="626" 
d="M45 -8q4 523 -4 1034q53 -4 299 2q-6 -76 -8 -180q40 91 123.5 149t171.5 56q-11 -100 -15 -369q-111 -18 -157 -82t-49 -182q-2 -90 -1.5 -185t1.5 -168l2 -73q-94 2 -363 -2zM403 1065q-49 38 -91 68t-59 41l-17 10q72 105 127 188.5t73 114.5l19 31q67 -51 119.5 -90
t71.5 -52l20 -14q-89 -98 -155 -172.5t-87 -99.5z" />
    <glyph glyph-name="Rcommaaccent" unicode="&#x156;" horiz-adv-x="937" 
d="M573 -45q-47 202 -133 516q-14 -2 -28 -2l8 -440q-160 2 -379 -2q1 61 2.5 175t4 480.5t1.5 749.5q182 34 328 34q280 0 414.5 -129.5t134.5 -386.5q0 -249 -172 -372q65 -216 204 -598q-139 -11 -385 -25zM412 717q127 3 127 207q0 111 -33 172t-100 55zM594 -205
q0 -137 -195 -293l-110 84q57 54 82 105q-37 12 -58.5 43.5t-21.5 75.5q0 56 42.5 91.5t110.5 35.5q67 0 108.5 -37.5t41.5 -104.5z" />
    <glyph glyph-name="rcommaaccent" unicode="&#x157;" horiz-adv-x="626" 
d="M45 -8q4 523 -4 1034q53 -4 299 2q-6 -76 -8 -180q40 91 123.5 149t171.5 56q-11 -100 -15 -369q-111 -18 -157 -82t-49 -182q-2 -90 -1.5 -185t1.5 -168l2 -73q-94 2 -363 -2zM367 -195q0 -136 -195 -292q-70 57 -111 84q58 55 82 104q-37 12 -58.5 43.5t-21.5 75.5
q0 56 42.5 91.5t111.5 35.5q67 0 108.5 -37.5t41.5 -104.5z" />
    <glyph glyph-name="Rcaron" unicode="&#x158;" horiz-adv-x="937" 
d="M573 -45q-47 202 -133 516q-14 -2 -28 -2l8 -440q-160 2 -379 -2q1 61 2.5 175t4 480.5t1.5 749.5q182 34 328 34q280 0 414.5 -129.5t134.5 -386.5q0 -249 -172 -372q65 -216 204 -598q-139 -11 -385 -25zM412 717q127 3 127 207q0 111 -33 172t-100 55zM340 1516
q-56 57 -244 221q56 50 150 159q53 -53 200 -172q62 51 187 174q38 -41 151 -133q-67 -63 -221 -229q-51 0 -223 -20z" />
    <glyph glyph-name="rcaron" unicode="&#x159;" horiz-adv-x="626" 
d="M45 -8q4 523 -4 1034q53 -4 299 2q-6 -76 -8 -180q40 91 123.5 149t171.5 56q-11 -100 -15 -369q-111 -18 -157 -82t-49 -182q-2 -90 -1.5 -185t1.5 -168l2 -73q-94 2 -363 -2zM266 1090q-55 57 -243 221q55 50 149 159q54 -53 201 -172q61 52 186 175q39 -42 152 -134
q-68 -63 -222 -229q-51 0 -223 -20z" />
    <glyph glyph-name="Sacute" unicode="&#x15a;" horiz-adv-x="905" 
d="M455 -27q-255 0 -358 135.5t-85 401.5q152 -4 381 -4q-18 -240 60 -240q30 0 42.5 25t12.5 90q0 60 -37.5 105.5t-138.5 97.5q-177 89 -246.5 198t-69.5 279q0 105 33.5 182t94.5 122.5t140.5 67t178.5 21.5q234 0 336 -138t75 -405q-188 17 -370 21q12 86 6.5 137.5
t-19 72.5t-34.5 21q-54 0 -54 -119q0 -131 142 -194q140 -63 215.5 -127.5t105 -142t29.5 -195.5q0 -211 -117 -311.5t-323 -100.5zM487 1516q-49 38 -91 67.5t-60 40.5l-17 10q72 105 127 188.5t74 114.5l19 31q67 -51 119.5 -90t71.5 -52l20 -14q-89 -98 -155 -172
t-87 -99z" />
    <glyph glyph-name="sacute" unicode="&#x15b;" horiz-adv-x="819" 
d="M420 -31q-416 0 -410 412q115 0 344 -14q-2 -72 12 -106t54 -34q22 0 36.5 17t14.5 49q0 35 -31 61t-118 52q-165 49 -233.5 124.5t-68.5 200.5q0 141 106 230.5t292 89.5q190 0 289.5 -111.5t93.5 -304.5q-16 1 -45 2.5t-115 4t-168 1.5q7 139 -59 139
q-29 0 -43.5 -17.5t-14.5 -41.5q0 -75 140 -119q170 -52 241.5 -125t71.5 -188q0 -84 -31 -147.5t-85.5 -100.5t-123 -55.5t-149.5 -18.5zM444 1085q-49 38 -91 68t-59 41l-18 10q72 105 127 188.5t74 114.5l19 31q67 -51 119.5 -90t72.5 -52l19 -14q-89 -98 -155 -172.5
t-87 -99.5z" />
    <glyph glyph-name="Scircumflex" unicode="&#x15c;" horiz-adv-x="905" 
d="M455 -27q-255 0 -358 135.5t-85 401.5q152 -4 381 -4q-18 -240 60 -240q30 0 42.5 25t12.5 90q0 60 -37.5 105.5t-138.5 97.5q-177 89 -246.5 198t-69.5 279q0 105 33.5 182t94.5 122.5t140.5 67t178.5 21.5q234 0 336 -138t75 -405q-188 17 -370 21q12 86 6.5 137.5
t-19 72.5t-34.5 21q-54 0 -54 -119q0 -131 142 -194q140 -63 215.5 -127.5t105 -142t29.5 -195.5q0 -211 -117 -311.5t-323 -100.5zM260 1495q-38 41 -151 133q67 64 221 230q51 0 223 20q56 -57 244 -221q-56 -51 -150 -160q-54 53 -201 172q-61 -51 -186 -174z" />
    <glyph glyph-name="scircumflex" unicode="&#x15d;" horiz-adv-x="819" 
d="M420 -31q-416 0 -410 412q115 0 344 -14q-2 -72 12 -106t54 -34q22 0 36.5 17t14.5 49q0 35 -31 61t-118 52q-165 49 -233.5 124.5t-68.5 200.5q0 141 106 230.5t292 89.5q190 0 289.5 -111.5t93.5 -304.5q-16 1 -45 2.5t-115 4t-168 1.5q7 139 -59 139
q-29 0 -43.5 -17.5t-14.5 -41.5q0 -75 140 -119q170 -52 241.5 -125t71.5 -188q0 -84 -31 -147.5t-85.5 -100.5t-123 -55.5t-149.5 -18.5zM217 1065q-38 41 -151 133q67 63 221 229q51 1 223 21q56 -57 244 -221q-56 -51 -150 -160q-54 53 -201 172q-61 -51 -186 -174z" />
    <glyph glyph-name="Scedilla" unicode="&#x15e;" horiz-adv-x="905" 
d="M403 1044q0 -131 142 -194q140 -63 215.5 -127.5t105 -142t29.5 -195.5q0 -193 -99 -293.5t-274 -114.5l-4 -59q96 -4 150.5 -46.5t54.5 -111.5q0 -91 -73 -144.5t-195 -53.5q-95 0 -174 28q10 66 20 156q75 -35 164 -35q27 0 45 9.5t18 27.5q0 50 -172 39q21 79 35 188
q-219 17 -307 151t-72 384q152 -4 381 -4q-18 -240 60 -240q30 0 42.5 25t12.5 90q0 60 -37.5 105.5t-138.5 97.5q-177 89 -246.5 198t-69.5 279q0 105 33.5 182t94.5 122.5t140.5 67t178.5 21.5q234 0 336 -138t75 -405q-188 17 -370 21q12 86 6.5 137.5t-19 72.5t-34.5 21
q-54 0 -54 -119z" />
    <glyph glyph-name="scedilla" unicode="&#x15f;" horiz-adv-x="819" 
d="M356 723q0 -75 140 -119q170 -52 241.5 -125t71.5 -188q0 -148 -91 -226.5t-239 -91.5q-4 -32 -4 -55q96 -4 150.5 -46.5t54.5 -111.5q0 -91 -73 -144.5t-195 -53.5q-95 0 -174 28q10 66 20 156q75 -35 164 -35q27 0 45 9.5t18 27.5q0 50 -172 39q21 80 35 186
q-344 32 -338 408q115 0 344 -14q-2 -72 12 -106t54 -34q22 0 36.5 17t14.5 49q0 35 -31 61t-118 52q-165 49 -233.5 124.5t-68.5 200.5q0 141 106 230.5t292 89.5q190 0 289.5 -111.5t93.5 -304.5q-16 1 -45 2.5t-115 4t-168 1.5q7 139 -59 139q-29 0 -43.5 -17.5
t-14.5 -41.5z" />
    <glyph glyph-name="Scaron" unicode="&#x160;" horiz-adv-x="905" 
d="M455 -27q-255 0 -358 135.5t-85 401.5q152 -4 381 -4q-18 -240 60 -240q30 0 42.5 25t12.5 90q0 60 -37.5 105.5t-138.5 97.5q-177 89 -246.5 198t-69.5 279q0 105 33.5 182t94.5 122.5t140.5 67t178.5 21.5q234 0 336 -138t75 -405q-188 17 -370 21q12 86 6.5 137.5
t-19 72.5t-34.5 21q-54 0 -54 -119q0 -131 142 -194q140 -63 215.5 -127.5t105 -142t29.5 -195.5q0 -211 -117 -311.5t-323 -100.5zM352 1505q-55 57 -243 221q55 51 149 160q54 -53 201 -172q61 51 186 174q39 -41 152 -133q-68 -63 -222 -229q-51 -1 -223 -21z" />
    <glyph glyph-name="scaron" unicode="&#x161;" horiz-adv-x="819" 
d="M420 -31q-416 0 -410 412q115 0 344 -14q-2 -72 12 -106t54 -34q22 0 36.5 17t14.5 49q0 35 -31 61t-118 52q-165 49 -233.5 124.5t-68.5 200.5q0 141 106 230.5t292 89.5q190 0 289.5 -111.5t93.5 -304.5q-16 1 -45 2.5t-115 4t-168 1.5q7 139 -59 139
q-29 0 -43.5 -17.5t-14.5 -41.5q0 -75 140 -119q170 -52 241.5 -125t71.5 -188q0 -84 -31 -147.5t-85.5 -100.5t-123 -55.5t-149.5 -18.5zM309 1083q-55 58 -243 222q55 50 149 159q54 -53 201 -172q61 51 186 174q39 -41 152 -133q-68 -63 -222 -229q-51 -1 -223 -21z" />
    <glyph glyph-name="Tcommaaccent" unicode="&#x162;" horiz-adv-x="827" 
d="M12 1067q4 91 -2 354q278 -1 807 9q-1 -15 -2 -43.5t-3 -123t-1 -196.5q-82 2 -217 2q0 -383 8 -1079q-121 4 -369 -2q4 420 -2 1081zM567 -195q0 -137 -194 -292q-30 24 -58 45t-41 30l-12 9q58 55 82 104q-37 12 -58.5 43.5t-21.5 75.5q0 56 42.5 91.5t111.5 35.5
q66 0 107.5 -37.5t41.5 -104.5z" />
    <glyph glyph-name="tcommaaccent" unicode="&#x163;" horiz-adv-x="657" 
d="M14 682l-4 311q35 -2 99 -2l4 275q115 -2 203 -2t118 1l31 1q-2 -119 -4 -279h157l-2 -307l-157 2q0 -92 4 -244q3 -90 96 -90q25 0 59 6l19 -327q-121 -27 -199 -27q-326 0 -329 334q-3 185 -3 348h-92zM535 -195q0 -136 -195 -292q-70 57 -111 84q58 55 82 104
q-37 12 -58.5 43.5t-21.5 75.5q0 56 42.5 91.5t111.5 35.5q67 0 108.5 -37.5t41.5 -104.5z" />
    <glyph glyph-name="Tcaron" unicode="&#x164;" horiz-adv-x="827" 
d="M12 1067q4 91 -2 354q278 -1 807 9q-1 -15 -2 -43.5t-3 -123t-1 -196.5q-82 2 -217 2q0 -383 8 -1079q-121 4 -369 -2q4 420 -2 1081zM313 1485q-55 57 -243 221q55 51 149 160q54 -53 201 -172q61 51 186 174q39 -41 152 -133q-67 -64 -221 -230q-52 0 -224 -20z" />
    <glyph glyph-name="tcaron" unicode="&#x165;" horiz-adv-x="657" 
d="M14 682l-4 311q35 -2 99 -2l4 275q115 -2 203 -2t118 1l31 1q-2 -119 -4 -279h157l-2 -307l-157 2q0 -92 4 -244q3 -90 96 -90q25 0 59 6l19 -327q-121 -27 -199 -27q-326 0 -329 334q-3 185 -3 348h-92zM825 1337q0 -138 -194 -293q-30 24 -58 45t-41 30l-12 9
q57 54 82 105q-37 12 -58.5 43.5t-21.5 75.5q0 56 42.5 91.5t111.5 35.5q66 0 107.5 -37.5t41.5 -104.5z" />
    <glyph glyph-name="Umacron" unicode="&#x16a;" 
d="M492 -29q-249 0 -360.5 202.5t-111.5 647.5q0 277 46 586q106 -18 354 -49q-33 -280 -33 -520q0 -190 10.5 -306.5t28.5 -162t45 -45.5q26 0 40.5 27.5t24 123.5t9.5 275q0 316 -47 684q139 3 368 30q64 -366 64 -737q0 -389 -106 -572.5t-332 -183.5zM213 1565
q2 63 -4 227q132 -2 532 4q-4 -59 -4 -227q-140 2 -524 -4z" />
    <glyph glyph-name="umacron" unicode="&#x16b;" horiz-adv-x="888" 
d="M324 -20q-103 0 -166 56t-95 186t-32 349q0 230 26 461q88 -14 338 -24q-12 -122 -12 -306q0 -106 3.5 -181t8.5 -120t14.5 -70.5t19 -33.5t22.5 -8q43 0 43 90q2 161 -2 326.5t-8 250.5l-5 86q11 -1 35 -2t118 -3t212 -1q-4 -404 4 -1079q-10 1 -30 1.5t-93.5 1.5
t-163.5 -1q2 77 2 186q-33 -80 -97.5 -122.5t-141.5 -42.5zM176 1155q2 63 -4 227q133 -2 533 4q-5 -59 -5 -227q-140 2 -524 -4z" />
    <glyph glyph-name="Ubreve" unicode="&#x16c;" 
d="M492 -29q-249 0 -360.5 202.5t-111.5 647.5q0 277 46 586q106 -18 354 -49q-33 -280 -33 -520q0 -190 10.5 -306.5t28.5 -162t45 -45.5q26 0 40.5 27.5t24 123.5t9.5 275q0 316 -47 684q139 3 368 30q64 -366 64 -737q0 -389 -106 -572.5t-332 -183.5zM469 1509
q-82 0 -141.5 25t-90.5 67t-44 90.5t-9 102.5q61 0 219 10q-3 -43 16.5 -70.5t55.5 -27.5q32 0 52 28.5t10 88.5q63 -2 225 2q7 -81 -14 -143t-63.5 -99t-97 -55.5t-118.5 -18.5z" />
    <glyph glyph-name="ubreve" unicode="&#x16d;" horiz-adv-x="888" 
d="M324 -20q-103 0 -166 56t-95 186t-32 349q0 230 26 461q88 -14 338 -24q-12 -122 -12 -306q0 -106 3.5 -181t8.5 -120t14.5 -70.5t19 -33.5t22.5 -8q43 0 43 90q2 161 -2 326.5t-8 250.5l-5 86q11 -1 35 -2t118 -3t212 -1q-4 -404 4 -1079q-10 1 -30 1.5t-93.5 1.5
t-163.5 -1q2 77 2 186q-33 -80 -97.5 -122.5t-141.5 -42.5zM434 1110q-82 0 -141 25t-90 67t-44 90.5t-9 102.5q61 0 219 10q-3 -44 16 -71t55 -27q33 0 52.5 28t9.5 88q63 -2 225 2q7 -81 -14 -143t-63.5 -98.5t-97 -55t-118.5 -18.5z" />
    <glyph glyph-name="Uring" unicode="&#x16e;" 
d="M492 -29q-249 0 -360.5 202.5t-111.5 647.5q0 277 46 586q106 -18 354 -49q-33 -280 -33 -520q0 -190 10.5 -306.5t28.5 -162t45 -45.5q26 0 40.5 27.5t24 123.5t9.5 275q0 316 -47 684q139 3 368 30q64 -366 64 -737q0 -389 -106 -572.5t-332 -183.5zM473 1503
q-103 0 -159 59.5t-56 151.5q0 93 60.5 148t156.5 55q102 0 160.5 -58.5t58.5 -144.5q0 -109 -63 -160t-158 -51zM477 1626q34 0 51 24t17 64q0 36 -18.5 62t-49.5 26q-33 0 -50 -26t-17 -64q0 -37 18.5 -61.5t48.5 -24.5z" />
    <glyph glyph-name="uring" unicode="&#x16f;" horiz-adv-x="888" 
d="M324 -20q-103 0 -166 56t-95 186t-32 349q0 230 26 461q88 -14 338 -24q-12 -122 -12 -306q0 -106 3.5 -181t8.5 -120t14.5 -70.5t19 -33.5t22.5 -8q43 0 43 90q2 161 -2 326.5t-8 250.5l-5 86q11 -1 35 -2t118 -3t212 -1q-4 -404 4 -1079q-10 1 -30 1.5t-93.5 1.5
t-163.5 -1q2 77 2 186q-33 -80 -97.5 -122.5t-141.5 -42.5zM436 1104q-103 0 -159 59.5t-56 151.5q0 93 60.5 148t156.5 55q102 0 160.5 -58.5t58.5 -144.5q0 -109 -63 -160t-158 -51zM440 1227q34 0 51 24t17 64q0 36 -18.5 62t-49.5 26q-33 0 -50 -26t-17 -64
q0 -37 18.5 -61.5t48.5 -24.5z" />
    <glyph glyph-name="Uhungarumlaut" unicode="&#x170;" 
d="M492 -29q-249 0 -360.5 202.5t-111.5 647.5q0 277 46 586q106 -18 354 -49q-33 -280 -33 -520q0 -190 10.5 -306.5t28.5 -162t45 -45.5q26 0 40.5 27.5t24 123.5t9.5 275q0 316 -47 684q139 3 368 30q64 -366 64 -737q0 -389 -106 -572.5t-332 -183.5zM645 1499
q-53 33 -95.5 57.5t-58.5 32.5l-16 8q64 106 113.5 192.5t67.5 120.5l18 34l200 -121q-78 -108 -135.5 -189t-75.5 -108zM348 1505q-53 33 -95 56t-57 29l-16 7q60 112 104.5 200t59.5 119l14 32q71 -44 122 -73.5t66 -37.5l15 -8z" />
    <glyph glyph-name="uhungarumlaut" unicode="&#x171;" horiz-adv-x="888" 
d="M324 -20q-103 0 -166 56t-95 186t-32 349q0 230 26 461q88 -14 338 -24q-12 -122 -12 -306q0 -106 3.5 -181t8.5 -120t14.5 -70.5t19 -33.5t22.5 -8q43 0 43 90q2 161 -2 326.5t-8 250.5l-5 86q11 -1 35 -2t118 -3t212 -1q-4 -404 4 -1079q-10 1 -30 1.5t-93.5 1.5
t-163.5 -1q2 77 2 186q-33 -80 -97.5 -122.5t-141.5 -42.5zM608 1087q-53 33 -95.5 57.5t-58.5 33.5l-16 8q64 106 113.5 192.5t67.5 119.5l18 34l201 -121q-78 -108 -135.5 -189t-76.5 -108zM311 1094q-53 33 -95 56t-58 30l-15 6q60 112 105 199.5t60 118.5l14 32
q71 -44 121.5 -73.5t65.5 -37.5l15 -8z" />
    <glyph glyph-name="Uogonek" unicode="&#x172;" 
d="M631 -426q-155 -15 -240.5 41.5t-85.5 177.5q0 108 94 187q-199 33 -289 236t-90 605q0 277 46 586q106 -18 354 -49q-33 -280 -33 -520q0 -190 10.5 -306.5t28.5 -162t45 -45.5q26 0 40.5 27.5t24 123.5t9.5 275q0 316 -47 684q139 3 368 30q64 -366 64 -737
q0 -356 -90 -540t-277 -210q-57 -51 -57 -100q0 -89 141 -86q-10 -59 -16 -217z" />
    <glyph glyph-name="uogonek" unicode="&#x173;" horiz-adv-x="888" 
d="M324 -20q-103 0 -166 56t-95 186t-32 349q0 230 26 461q88 -14 338 -24q-12 -122 -12 -306q0 -106 3.5 -181t8.5 -120t14.5 -70.5t19 -33.5t22.5 -8q43 0 43 90q2 161 -2 326.5t-8 250.5l-5 86q11 -1 35 -2t118 -3t212 -1q-4 -404 4 -1079q-53 2 -133 4q-39 -42 -39 -84
q0 -89 141 -86q-10 -59 -16 -217q-155 -15 -240.5 41.5t-85.5 177.5q0 104 86 178q0 1 1 60t1 114q-33 -80 -97.5 -122.5t-141.5 -42.5z" />
    <glyph glyph-name="Ydieresis" unicode="&#x178;" horiz-adv-x="983" 
d="M315 -31q6 42 -4 307q-65 287 -311 1106q68 -1 403 13q23 -194 99 -615q55 327 100 656q11 -1 36 -2t123 -3t222 -1q-127 -450 -301 -1145q-4 -28 6 -314q-75 6 -373 -2zM311 1513q-72 0 -110.5 48.5t-38.5 117.5q0 72 42 118t109 46q74 0 111 -47t37 -117
q0 -85 -42.5 -125.5t-107.5 -40.5zM676 1522q-65 0 -104.5 46t-39.5 122q0 67 39 111t109 44q68 0 104.5 -46.5t36.5 -115.5q0 -76 -39.5 -118.5t-105.5 -42.5z" />
    <glyph glyph-name="Zacute" unicode="&#x179;" horiz-adv-x="786" 
d="M760 -10q-219 7 -404 11t-260 5h-76q3 117 3.5 210.5t0.5 127.5l-1 35q230 428 350 674l-346 -13q1 142 0.5 225t-1.5 115l-1 33l733 19q2 -60 3.5 -124t2 -112.5t0.5 -88v-60.5v-21q-197 -379 -338 -678q71 -4 155.5 -6.5t133.5 -3.5h49q-4 -126 -5 -213t0 -111z
M428 1475q-49 38 -91 67.5t-59 39.5l-18 11q72 105 126.5 188.5t73.5 114.5l19 31q67 -51 119.5 -90t71.5 -52l20 -13q-89 -98 -154.5 -172.5t-86.5 -99.5z" />
    <glyph glyph-name="zacute" unicode="&#x17a;" horiz-adv-x="749" 
d="M725 4q-214 9 -390 13t-245 3h-70q4 76 5 140t1 90l-1 26q98 128 170.5 230t96.5 140l23 38q-91 0 -160 -2t-93 -4l-23 -2q-1 110 -3.5 193.5t-4.5 112.5l-2 28q208 1 381.5 5t243.5 7l69 4q-1 -108 0.5 -179.5t3.5 -89.5l2 -18q-103 -136 -177.5 -242t-97.5 -144
l-24 -38q104 -4 178.5 -5t97.5 0l23 1q-4 -121 -5 -197.5t0 -93.5zM412 1065q-49 38 -91 68t-59 41l-18 10q72 105 127 188.5t73 114.5l19 31q67 -51 119.5 -90t71.5 -52l20 -14q-89 -98 -154.5 -172.5t-86.5 -99.5z" />
    <glyph glyph-name="Zdotaccent" unicode="&#x17b;" horiz-adv-x="786" 
d="M760 -10q-219 7 -404 11t-260 5h-76q3 117 3.5 210.5t0.5 127.5l-1 35q230 428 350 674l-346 -13q1 142 0.5 225t-1.5 115l-1 33l733 19q2 -60 3.5 -124t2 -112.5t0.5 -88v-60.5v-21q-197 -379 -338 -678q71 -4 155.5 -6.5t133.5 -3.5h49q-4 -126 -5 -213t0 -111z
M393 1509q-88 0 -135 55t-47 126q0 73 48.5 124.5t133.5 51.5q86 0 134 -53t48 -123q0 -88 -51.5 -134.5t-130.5 -46.5z" />
    <glyph glyph-name="zdotaccent" unicode="&#x17c;" horiz-adv-x="749" 
d="M725 4q-214 9 -390 13t-245 3h-70q4 76 5 140t1 90l-1 26q98 128 170.5 230t96.5 140l23 38q-91 0 -160 -2t-93 -4l-23 -2q-1 110 -3.5 193.5t-4.5 112.5l-2 28q208 1 381.5 5t243.5 7l69 4q-1 -108 0.5 -179.5t3.5 -89.5l2 -18q-103 -136 -177.5 -242t-97.5 -144
l-24 -38q104 -4 178.5 -5t97.5 0l23 1q-4 -121 -5 -197.5t0 -93.5zM375 1100q-88 0 -135 54.5t-47 125.5q0 73 48.5 124.5t133.5 51.5q86 0 134 -53t48 -123q0 -88 -51 -134t-131 -46z" />
    <glyph glyph-name="Zcaron" unicode="&#x17d;" horiz-adv-x="786" 
d="M760 -10q-219 7 -404 11t-260 5h-76q3 117 3.5 210.5t0.5 127.5l-1 35q230 428 350 674l-346 -13q1 142 0.5 225t-1.5 115l-1 33l733 19q2 -60 3.5 -124t2 -112.5t0.5 -88v-60.5v-21q-197 -379 -338 -678q71 -4 155.5 -6.5t133.5 -3.5h49q-4 -126 -5 -213t0 -111z
M293 1489q-56 57 -244 221q56 51 150 160q53 -53 200 -172q62 51 187 174q38 -41 151 -133q-67 -64 -221 -230q-51 0 -223 -20z" />
    <glyph glyph-name="zcaron" unicode="&#x17e;" horiz-adv-x="749" 
d="M725 4q-214 9 -390 13t-245 3h-70q4 76 5 140t1 90l-1 26q98 128 170.5 230t96.5 140l23 38q-91 0 -160 -2t-93 -4l-23 -2q-1 110 -3.5 193.5t-4.5 112.5l-2 28q208 1 381.5 5t243.5 7l69 4q-1 -108 0.5 -179.5t3.5 -89.5l2 -18q-103 -136 -177.5 -242t-97.5 -144
l-24 -38q104 -4 178.5 -5t97.5 0l23 1q-4 -121 -5 -197.5t0 -93.5zM274 1071q-55 57 -243 221q55 51 149 160q54 -53 201 -172q61 51 186 174q39 -41 152 -133q-67 -63 -221 -229q-52 -1 -224 -21z" />
    <glyph glyph-name="florin" unicode="&#x192;" horiz-adv-x="942" 
d="M836 604l-170 4q-68 -434 -84 -520q-39 -211 -150 -305t-297 -94q-67 0 -104 4q2 73 14 334q101 -6 142 29.5t57 125.5q27 138 69 432h-118l4 326l159 -4l19 113q33 192 123.5 284t257.5 92q76 0 153 -14q-7 -101 -11 -180.5t-4 -108.5l-1 -30q-72 9 -111.5 -16
t-52.5 -91l-10 -53h110q0 -124 1.5 -206t2.5 -102z" />
    <glyph glyph-name="Scommaaccent" unicode="&#x218;" horiz-adv-x="905" 
d="M455 -27q-255 0 -358 135.5t-85 401.5q152 -4 381 -4q-18 -240 60 -240q30 0 42.5 25t12.5 90q0 60 -37.5 105.5t-138.5 97.5q-177 89 -246.5 198t-69.5 279q0 105 33.5 182t94.5 122.5t140.5 67t178.5 21.5q234 0 336 -138t75 -405q-188 17 -370 21q12 86 6.5 137.5
t-19 72.5t-34.5 21q-54 0 -54 -119q0 -131 142 -194q140 -63 215.5 -127.5t105 -142t29.5 -195.5q0 -211 -117 -311.5t-323 -100.5zM606 -211q0 -138 -194 -293q-30 24 -58 45l-40 30l-13 9q57 54 82 105q-37 12 -58.5 43t-21.5 75q0 56 42.5 91.5t111.5 35.5q67 0 108 -37
t41 -104z" />
    <glyph glyph-name="scommaaccent" unicode="&#x219;" horiz-adv-x="819" 
d="M420 -31q-416 0 -410 412q115 0 344 -14q-2 -72 12 -106t54 -34q22 0 36.5 17t14.5 49q0 35 -31 61t-118 52q-165 49 -233.5 124.5t-68.5 200.5q0 141 106 230.5t292 89.5q190 0 289.5 -111.5t93.5 -304.5q-16 1 -45 2.5t-115 4t-168 1.5q7 139 -59 139
q-29 0 -43.5 -17.5t-14.5 -41.5q0 -75 140 -119q170 -52 241.5 -125t71.5 -188q0 -84 -31 -147.5t-85.5 -100.5t-123 -55.5t-149.5 -18.5zM563 -213q0 -138 -194 -293q-70 57 -111 84q57 54 82 105q-37 12 -58.5 43t-21.5 75q0 56 42.5 91.5t111.5 35.5q67 0 108 -37
t41 -104z" />
    <glyph glyph-name="uni0237" unicode="&#x237;" horiz-adv-x="454" 
d="M-174 -469q8 125 8 336q14 -2 43 -2q96 0 135 44t41 138q3 193 3 412t-2 396l-3 177l350 2q2 -44 4 -125.5t6 -355.5t-1 -553q-2 -109 -27.5 -192t-82 -147.5t-154.5 -98t-236 -33.5q-55 0 -84 2z" />
    <glyph glyph-name="circumflex" unicode="&#x2c6;" horiz-adv-x="915" 
d="M266 1055q-38 41 -151 133q67 63 221 229q51 1 223 21q56 -57 244 -221q-56 -51 -150 -160q-53 53 -200 172q-62 -51 -187 -174z" />
    <glyph glyph-name="caron" unicode="&#x2c7;" horiz-adv-x="915" 
d="M358 1055q-55 57 -243 221q55 51 149 160q54 -53 201 -172q61 51 186 174q39 -41 152 -133q-67 -64 -221 -230q-52 0 -224 -20z" />
    <glyph glyph-name="breve" unicode="&#x2d8;" horiz-adv-x="915" 
d="M453 1090q-82 0 -141.5 24.5t-90.5 66.5t-44 90.5t-9 102.5q61 0 219 10q-3 -43 16.5 -70.5t55.5 -27.5q32 0 51.5 28t9.5 89q63 -2 225 2q7 -81 -14 -143t-63.5 -98.5t-96.5 -55t-118 -18.5z" />
    <glyph glyph-name="dotaccent" unicode="&#x2d9;" horiz-adv-x="915" 
d="M459 1100q-88 0 -135.5 54.5t-47.5 125.5q0 73 49 124.5t134 51.5q86 0 134 -53t48 -123q0 -88 -51 -134t-131 -46z" />
    <glyph glyph-name="ring" unicode="&#x2da;" horiz-adv-x="915" 
d="M455 1083q-103 0 -159 59.5t-56 151.5q0 93 60.5 148t156.5 55q102 0 160.5 -58.5t58.5 -144.5q0 -109 -63 -160t-158 -51zM459 1206q67 0 67 88q0 36 -18 62t-49 26q-33 0 -50.5 -26t-17.5 -64q0 -37 19 -61.5t49 -24.5z" />
    <glyph glyph-name="ogonek" unicode="&#x2db;" horiz-adv-x="915" 
d="M592 -426q-155 -15 -240.5 41.5t-85.5 177.5q0 150 185 242l145 -10q-61 -31 -95 -72t-34 -76q0 -89 141 -86q-10 -59 -16 -217z" />
    <glyph glyph-name="tilde" unicode="&#x2dc;" horiz-adv-x="915" 
d="M322 1098q-54 0 -191 -8q-8 144 43.5 234.5t157.5 90.5q36 0 68.5 -15.5t52.5 -34.5t46 -34.5t50 -15.5q32 0 46.5 19.5t8.5 70.5q51 0 174 12q24 -154 -23 -239.5t-147 -85.5q-44 0 -80 14t-56.5 30t-46 30t-50.5 14q-29 0 -43.5 -22.5t-9.5 -59.5z" />
    <glyph glyph-name="hungarumlaut" unicode="&#x2dd;" horiz-adv-x="915" 
d="M575 1081q-53 33 -95 57.5t-58 33.5l-16 8q64 106 113.5 192.5t66.5 119.5l18 34l201 -121q-78 -108 -135.5 -189t-75.5 -108zM279 1087q-53 33 -95 56t-58 30l-15 7q60 112 104.5 199.5t58.5 118.5l15 32q71 -44 122 -73.5t66 -37.5l15 -8z" />
    <glyph glyph-name="endash" unicode="&#x2013;" horiz-adv-x="608" 
d="M588 508q-141 3 -283 4t-213 0h-72l7 295q117 -2 257 -2t221 1l81 1z" />
    <glyph glyph-name="emdash" unicode="&#x2014;" horiz-adv-x="731" 
d="M27 508q1 43 -7 295q375 -2 691 4q-2 -82 -2 -299q-419 4 -682 0z" />
    <glyph glyph-name="quoteleft" unicode="&#x2018;" horiz-adv-x="385" 
d="M186 909q-73 0 -119.5 54.5t-46.5 140.5q0 166 211 352q41 -27 74.5 -50.5t46.5 -33.5l13 -10q-73 -73 -103 -141q43 -18 67.5 -58t24.5 -84q0 -76 -47 -123t-121 -47z" />
    <glyph glyph-name="quoteright" unicode="&#x2019;" horiz-adv-x="403" 
d="M158 909q-36 27 -70.5 51t-51.5 34l-16 10q79 97 107 151q-37 19 -60.5 60.5t-23.5 93.5q0 80 46 129t128 49q76 0 121 -57t45 -138q0 -176 -225 -383z" />
    <glyph glyph-name="quotesinglbase" unicode="&#x201a;" horiz-adv-x="403" 
d="M158 -252q-36 27 -70.5 50.5t-51.5 33.5l-16 10q72 88 107 152q-38 19 -61 60.5t-23 92.5q0 80 46 129.5t128 49.5q76 0 121 -57t45 -138q0 -176 -225 -383z" />
    <glyph glyph-name="quotedblleft" unicode="&#x201c;" horiz-adv-x="751" 
d="M186 909q-76 0 -121 57t-45 138q0 175 226 383q36 -27 70.5 -50.5t50.5 -33.5l16 -10q-79 -93 -107 -152q37 -21 60.5 -62t23.5 -92q0 -80 -46 -129t-128 -49zM553 866q-73 0 -119.5 55.5t-46.5 143.5q0 168 211 360q41 -27 74 -51t46 -34l13 -11q-73 -76 -102 -145
q43 -18 67.5 -58t24.5 -86q0 -79 -47 -126.5t-121 -47.5z" />
    <glyph glyph-name="quotedblright" unicode="&#x201d;" horiz-adv-x="745" 
d="M502 901q-36 27 -69.5 51t-49.5 34l-16 11q72 86 104 152q-37 21 -59.5 62.5t-22.5 93.5q0 78 46 128t126 50q75 0 119.5 -58t44.5 -137q0 -179 -223 -387zM154 909q-41 27 -74.5 51t-46.5 34l-13 10q76 76 103 141q-44 16 -68 56t-24 85q0 76 47 123t121 47t120 -54
t46 -140q0 -167 -211 -353z" />
    <glyph glyph-name="quotedblbase" unicode="&#x201e;" horiz-adv-x="745" 
d="M502 -240q-36 27 -69.5 51.5t-49.5 34.5l-16 11q76 94 104 151q-37 21 -59.5 62.5t-22.5 93.5q0 78 46 128t126 50q75 0 119.5 -58t44.5 -137q0 -179 -223 -387zM154 -231q-41 27 -74.5 50.5t-46.5 33.5l-13 10q73 73 103 141q-44 16 -68 56t-24 85q0 76 47 123t121 47
t120 -54t46 -140q0 -166 -211 -352z" />
    <glyph glyph-name="dagger" unicode="&#x2020;" horiz-adv-x="575" 
d="M10 1024q4 68 4 244q58 -2 152 -4q2 65 0 178q74 -4 248 4q-2 -80 -2 -184q49 -2 151 0q-2 -97 2 -244q-63 2 -151 4q0 -207 6 -471q-11 1 -31.5 2t-88.5 2t-142 0q4 179 6 469h-154z" />
    <glyph glyph-name="daggerdbl" unicode="&#x2021;" horiz-adv-x="575" 
d="M14 1098q0 78 -1 128.5t-2 61.5l-1 12h148q0 93 -2 146q11 -1 31.5 -2t88.5 -2t142 0q-2 -49 -4 -139l151 4l-2 -203h-151l-2 -193h155q-4 -26 -4 -202q-57 2 -151 4v-158q-74 4 -248 -4q2 66 0 164h-150q2 56 -2 203q64 -3 152 -5q0 119 -2 189z" />
    <glyph glyph-name="bullet" unicode="&#x2022;" horiz-adv-x="546" 
d="M276 418q-121 0 -188.5 80t-67.5 204q0 128 68.5 203.5t183.5 75.5q124 0 189 -79.5t65 -194.5q0 -140 -68.5 -214.5t-181.5 -74.5z" />
    <glyph glyph-name="ellipsis" unicode="&#x2026;" horiz-adv-x="1247" 
d="M207 16q-91 0 -139 59t-48 146q0 94 51.5 148.5t137.5 54.5q87 0 136.5 -57t49.5 -146q0 -104 -52 -154.5t-136 -50.5zM621 -27q-89 0 -137 61t-48 152q0 95 50.5 151t134.5 56q86 0 135 -58.5t49 -148.5q0 -110 -50.5 -161.5t-133.5 -51.5zM1036 -4q-90 0 -138 58.5
t-48 146.5q0 93 51.5 146.5t138.5 53.5t137 -56.5t50 -143.5q0 -106 -52.5 -155.5t-138.5 -49.5z" />
    <glyph glyph-name="perthousand" unicode="&#x2030;" horiz-adv-x="2031" 
d="M330 868q21 0 33 15.5t19 63t7 134.5q0 85 -6 129.5t-18 61t-35 16.5q-32 0 -46 -45.5t-14 -155.5q0 -88 6.5 -135.5t19 -65.5t34.5 -18zM328 702q-89 0 -153 30.5t-99 87.5t-50.5 127t-15.5 161q0 167 82.5 261.5t239.5 94.5q160 0 239.5 -100.5t79.5 -286.5
q0 -375 -323 -375zM326 -8l-168 12q248 409 457.5 763.5t294.5 504.5l85 151q47 -4 91 -5t64 -1h21q-339 -562 -550 -918t-253 -431zM1010 141q21 0 32.5 15.5t18 62.5t6.5 133q0 122 -12 165.5t-45 43.5q-32 0 -45 -42.5t-13 -153.5q0 -91 7 -141.5t19 -66.5t32 -16z
M1008 -25q-320 0 -320 398q0 165 84 264.5t240 99.5q165 0 243 -103t78 -278q0 -381 -325 -381zM1702 156q33 0 46 45t13 174q0 110 -14 155t-45 45q-34 0 -47 -41.5t-13 -164.5q0 -126 14 -169.5t46 -43.5zM1704 -10q-324 0 -324 375q0 178 81 282.5t239 104.5
q164 0 242.5 -95.5t78.5 -261.5q0 -194 -80 -299.5t-237 -105.5z" />
    <glyph glyph-name="guilsinglleft" unicode="&#x2039;" horiz-adv-x="428" 
d="M160 324q-47 120 -160 368q62 109 166 328q62 -8 252 -10q-55 -101 -168 -332q43 -104 164 -350q-66 4 -254 -4z" />
    <glyph glyph-name="guilsinglright" unicode="&#x203a;" horiz-adv-x="423" 
d="M258 317q-58 9 -248 11q62 111 168 340q-45 110 -164 358q62 -4 250 4q45 -122 160 -377q-60 -111 -166 -336z" />
    <glyph glyph-name="fraction" unicode="&#x2044;" horiz-adv-x="931" 
d="M127 -8l-168 12q248 409 457.5 763.5t295.5 504.5l85 151q47 -4 91 -5t64 -1h21q-339 -562 -550.5 -918t-253.5 -431z" />
    <glyph glyph-name="Euro" unicode="&#x20ac;" horiz-adv-x="1038" 
d="M2 725q2 31 0 168h111q26 291 145 433t340 142q107 0 190.5 -41t135 -111.5t78 -161t24.5 -193.5l-399 2q-1 74 -8 116t-17 56t-27 14q-30 0 -44 -52t-17 -196l399 8q-4 -27 -4 -170q-95 0 -395 -4v-59l404 8q-6 -31 0 -168q-92 0 -402 -4q2 -99 8.5 -148t16.5 -64
t30 -15q57 0 54 172q108 0 208.5 -1.5t147.5 -3.5l47 -1q-11 -229 -131 -358t-324 -128q-214 0 -322.5 130.5t-135.5 408.5q-41 -2 -115 -2q2 23 2 170h104v55q-67 0 -104 -2z" />
    <glyph glyph-name="servicemark" unicode="&#x2120;" horiz-adv-x="1202" 
d="M492 782q16 243 24 598q146 -2 277 4q16 -153 41 -329q5 46 32 377q146 -11 279 -11q8 -254 37 -663q-86 0 -203 -8q0 220 -12 526q-25 -211 -41 -428q-98 0 -178 4q-15 157 -56 414q0 -307 8 -492q-81 8 -208 8zM250 737q-126 0 -183.5 63t-50.5 195q64 -4 187 -4
q-4 -65 5.5 -89.5t33.5 -24.5q34 0 34 57q0 29 -20.5 50.5t-87.5 51.5q-139 61 -139 211q0 197 225 197q124 0 175 -69t38 -189q-74 8 -172 10q19 109 -31 109q-15 0 -27 -13t-12 -45t22.5 -56t80.5 -46q84 -33 115.5 -81.5t31.5 -117.5q0 -100 -60.5 -154.5t-164.5 -54.5z
" />
    <glyph glyph-name="trademark" unicode="&#x2122;" horiz-adv-x="1140" 
d="M430 788q17 229 25 584q145 -2 276 4q14 -137 39 -305l35 354q145 -10 278 -10q8 -254 37 -663q-85 -1 -202 -9q-3 214 -15 506q-28 -230 -39 -395q-98 0 -178 4q-14 135 -53 381q0 -267 8 -455q-84 4 -211 4zM10 1231q4 59 4 186q160 0 406 6l-2 -192q-41 2 -92 2
q0 -237 6 -479q-74 4 -213 0l2 479z" />
    <glyph glyph-name="minus" unicode="&#x2212;" horiz-adv-x="608" 
d="M586 795q-1 -98 -0.5 -160t1.5 -91l1 -28q-164 4 -306 5t-202 0l-60 -1q4 77 5.5 146t1.5 99v30q195 -4 334.5 -4t182.5 2z" />
    <glyph glyph-name="Pcircle" unicode="&#x24c5;" horiz-adv-x="1146" 
d="M594 1448q261 0 396.5 -178.5t135.5 -569.5q0 -371 -136 -554t-427 -183q-151 0 -258 52.5t-168.5 153t-89 230.5t-27.5 301q0 134 15.5 242t42 185t68 134.5t88 93t107.5 56.5t120.5 29t132.5 8zM582 1350q-89 0 -154.5 -15t-125 -56.5t-97 -112.5t-59 -186.5
t-21.5 -274.5q0 -154 22.5 -268t73 -199.5t137 -128.5t209.5 -43q242 0 348.5 158.5t106.5 482.5q0 329 -100.5 486t-339.5 157zM285 211q1 37 2.5 110t4 331t1.5 554q130 19 217 19q231 0 327.5 -102.5t96.5 -317.5q0 -386 -369 -389l6 -205q-116 4 -286 0zM561 985
q-4 -115 0 -369q55 6 76.5 43t21.5 136q0 114 -21 155t-77 35z" />
    <glyph glyph-name="Pcircle" unicode="&#x24df;" horiz-adv-x="1146" 
d="M594 1448q261 0 396.5 -178.5t135.5 -569.5q0 -371 -136 -554t-427 -183q-151 0 -258 52.5t-168.5 153t-89 230.5t-27.5 301q0 134 15.5 242t42 185t68 134.5t88 93t107.5 56.5t120.5 29t132.5 8zM582 1350q-89 0 -154.5 -15t-125 -56.5t-97 -112.5t-59 -186.5
t-21.5 -274.5q0 -154 22.5 -268t73 -199.5t137 -128.5t209.5 -43q242 0 348.5 158.5t106.5 482.5q0 329 -100.5 486t-339.5 157zM285 211q1 37 2.5 110t4 331t1.5 554q130 19 217 19q231 0 327.5 -102.5t96.5 -317.5q0 -386 -369 -389l6 -205q-116 4 -286 0zM561 985
q-4 -115 0 -369q55 6 76.5 43t21.5 136q0 114 -21 155t-77 35z" />
    <glyph glyph-name="commaaccent" horiz-adv-x="915" 
d="M610 -195q0 -137 -194 -292q-30 24 -58 45l-40 30l-13 9q58 55 82 104q-37 12 -58.5 43.5t-21.5 75.5q0 56 42.5 91.5t111.5 35.5q66 0 107.5 -37.5t41.5 -104.5z" />
    <glyph glyph-name="L_A" horiz-adv-x="1593" 
d="M53 -10q0 567 -12 1403q121 -4 369 0q-6 -207 8 -1067q215 -7 260 -7q69 445 162 1129q132 5 263 7t196 1h65q94 -690 229 -1468q-151 4 -391 -2q-4 67 -16 229q-39 2 -172 2l-13 -172q-100 4 -286 4v-67q-75 3 -240.5 5t-293.5 3h-128zM1098 1145q-40 -372 -62 -629h125
q-16 179 -31.5 336.5t-23.5 225.5z" />
    <glyph glyph-name="L_Aacute" horiz-adv-x="1593" 
d="M53 -10q0 567 -12 1403q121 -4 369 0q-6 -207 8 -1067q215 -7 260 -7q69 445 162 1129q132 5 263 7t196 1h65q94 -690 229 -1468q-151 4 -391 -2q-4 67 -16 229q-39 2 -172 2l-13 -172q-100 4 -286 4v-67q-75 3 -240.5 5t-293.5 3h-128zM1098 1145q-40 -372 -62 -629h125
q-16 179 -31.5 336.5t-23.5 225.5zM1139 1505q-49 38 -91 68t-60 41l-17 10q72 105 126.5 188.5t73.5 114.5l19 31q67 -51 119.5 -90t72.5 -52l19 -14q-89 -98 -154.5 -172.5t-86.5 -99.5z" />
    <glyph glyph-name="L_Abreve" horiz-adv-x="1593" 
d="M53 -10q0 567 -12 1403q121 -4 369 0q-6 -207 8 -1067q215 -7 260 -7q69 445 162 1129q132 5 263 7t196 1h65q94 -690 229 -1468q-151 4 -391 -2q-4 67 -16 229q-39 2 -172 2l-13 -172q-100 4 -286 4v-67q-75 3 -240.5 5t-293.5 3h-128zM1098 1145q-40 -372 -62 -629h125
q-16 179 -31.5 336.5t-23.5 225.5zM1096 1530q-82 0 -141.5 25t-90.5 67t-44 90.5t-9 102.5q61 0 219 10q-3 -44 16.5 -71.5t55.5 -27.5q32 0 51.5 28t9.5 89q64 -2 226 2q7 -81 -14 -143t-63.5 -98.5t-97 -55t-118.5 -18.5z" />
    <glyph glyph-name="L_Acircumflex" horiz-adv-x="1593" 
d="M53 -10q0 567 -12 1403q121 -4 369 0q-6 -207 8 -1067q215 -7 260 -7q69 445 162 1129q132 5 263 7t196 1h65q94 -690 229 -1468q-151 4 -391 -2q-4 67 -16 229q-39 2 -172 2l-13 -172q-100 4 -286 4v-67q-75 3 -240.5 5t-293.5 3h-128zM1098 1145q-40 -372 -62 -629h125
q-16 179 -31.5 336.5t-23.5 225.5zM909 1495q-38 41 -151 133q67 64 221 230q51 0 223 20q56 -57 244 -221q-56 -51 -150 -160q-53 53 -200 172q-62 -51 -187 -174z" />
    <glyph glyph-name="L_Adieresis" horiz-adv-x="1593" 
d="M53 -10q0 567 -12 1403q121 -4 369 0q-6 -207 8 -1067q215 -7 260 -7q69 445 162 1129q132 5 263 7t196 1h65q94 -690 229 -1468q-151 4 -391 -2q-4 67 -16 229q-39 2 -172 2l-13 -172q-100 4 -286 4v-67q-75 3 -240.5 5t-293.5 3h-128zM1098 1145q-40 -372 -62 -629h125
q-16 179 -31.5 336.5t-23.5 225.5zM922 1544q-72 0 -111 49t-39 117q0 72 42.5 118t109.5 46q73 0 110 -47t37 -117q0 -85 -42 -125.5t-107 -40.5zM1286 1552q-65 0 -104 46t-39 122q0 67 39 111.5t108 44.5q68 0 105 -46.5t37 -115.5q0 -76 -40 -119t-106 -43z" />
    <glyph glyph-name="L_Agrave" horiz-adv-x="1593" 
d="M53 -10q0 567 -12 1403q121 -4 369 0q-6 -207 8 -1067q215 -7 260 -7q69 445 162 1129q132 5 263 7t196 1h65q94 -690 229 -1468q-151 4 -391 -2q-4 67 -16 229q-39 2 -172 2l-13 -172q-100 4 -286 4v-67q-75 3 -240.5 5t-293.5 3h-128zM1098 1145q-40 -372 -62 -629h125
q-16 179 -31.5 336.5t-23.5 225.5zM1092 1505q-62 76 -263 297q61 41 211 156q58 -98 220 -334q-57 -33 -168 -119z" />
    <glyph glyph-name="L_Amacron" horiz-adv-x="1593" 
d="M53 -10q0 567 -12 1403q121 -4 369 0q-6 -207 8 -1067q215 -7 260 -7q69 445 162 1129q132 5 263 7t196 1h65q94 -690 229 -1468q-151 4 -391 -2q-4 67 -16 229q-39 2 -172 2l-13 -172q-100 4 -286 4v-67q-75 3 -240.5 5t-293.5 3h-128zM1098 1145q-40 -372 -62 -629h125
q-16 179 -31.5 336.5t-23.5 225.5zM840 1575q2 63 -4 227q132 -2 532 4q-4 -59 -4 -227q-140 2 -524 -4z" />
    <glyph glyph-name="L_Aogonek" horiz-adv-x="1593" 
d="M1389 -426q-155 -15 -240.5 41.5t-85.5 177.5q0 132 137 215l-14 207q-39 2 -172 2l-13 -172q-100 4 -286 4v-67q-75 3 -240.5 5t-293.5 3h-128q0 567 -12 1403q121 -4 369 0q-6 -207 8 -1067q215 -7 260 -7q69 445 162 1129q132 5 263 7t196 1h65q94 -690 229 -1468
l-258 2q-71 -56 -71 -113q0 -89 141 -86q-10 -59 -16 -217zM1098 1145q-40 -372 -62 -629h125q-16 179 -31.5 336.5t-23.5 225.5z" />
    <glyph glyph-name="L_Aring" horiz-adv-x="1593" 
d="M53 -10q0 567 -12 1403q121 -4 369 0q-6 -207 8 -1067q215 -7 260 -7q69 445 162 1129q132 5 263 7t196 1h65q94 -690 229 -1468q-151 4 -391 -2q-4 67 -16 229q-39 2 -172 2l-13 -172q-100 4 -286 4v-67q-75 3 -240.5 5t-293.5 3h-128zM1098 1145q-40 -372 -62 -629h125
q-16 179 -31.5 336.5t-23.5 225.5zM1100 1524q-103 0 -159 59.5t-56 151.5q0 93 60.5 147.5t156.5 54.5q102 0 160.5 -58t58.5 -144q0 -109 -63 -160t-158 -51zM1104 1647q67 0 67 88q0 36 -18 62t-49 26q-33 0 -50.5 -26t-17.5 -64q0 -37 19 -61.5t49 -24.5z" />
    <glyph glyph-name="L_Atilde" horiz-adv-x="1593" 
d="M53 -10q0 567 -12 1403q121 -4 369 0q-6 -207 8 -1067q215 -7 260 -7q69 445 162 1129q132 5 263 7t196 1h65q94 -690 229 -1468q-151 4 -391 -2q-4 67 -16 229q-39 2 -172 2l-13 -172q-100 4 -286 4v-67q-75 3 -240.5 5t-293.5 3h-128zM1098 1145q-40 -372 -62 -629h125
q-16 179 -31.5 336.5t-23.5 225.5zM965 1538q-54 0 -191 -8q-8 144 43.5 234.5t157.5 90.5q36 0 68.5 -15.5t52.5 -34.5t46 -34.5t50 -15.5q32 0 46.5 19.5t8.5 70.5q51 1 174 13q24 -154 -23 -240t-147 -86q-44 0 -80 14t-56.5 30t-46 30t-50.5 14q-29 0 -43.5 -22.5
t-9.5 -59.5z" />
    <glyph glyph-name="T_h" horiz-adv-x="1640" 
d="M1141 1430q-6 -243 -6 -533q84 141 237 141q107 0 166 -86t64 -231q4 -146 5.5 -336t0.5 -307v-117q-125 4 -363 4q4 357 0 680q0 37 -10.5 52.5t-32.5 15.5q-24 0 -34.5 -14.5t-10.5 -53.5l-2 -602q-112 2 -364 -2q2 33 3.5 104t4.5 336.5t-2 605.5q-70 0 -203 -2
q0 -374 8 -1095q-121 4 -369 -2q4 422 -2 1087l-219 -8q4 91 -2 354q602 -1 1131 9z" />
    <glyph glyph-name="zero.numerator" horiz-adv-x="690" 
d="M344 608q-164 0 -244 104t-80 328q0 209 79.5 314.5t244.5 105.5q169 0 247.5 -98.5t78.5 -317.5q0 -231 -81.5 -333.5t-244.5 -102.5zM342 782q10 0 17 4t15.5 19t13 43t8 79.5t3.5 123.5q0 235 -57 235q-17 0 -28 -15t-20 -73.5t-9 -163.5q0 -252 57 -252z" />
    <glyph glyph-name="one.numerator" horiz-adv-x="512" 
d="M182 637q3 383 0 504l-110 -49l-72 231l281 129l161 -16q0 -183 2 -382.5t4 -307.5l3 -107z" />
    <glyph glyph-name="two.numerator" horiz-adv-x="620" 
d="M586 641l-559 6l-11 246q143 50 241.5 133.5t98.5 179.5q0 76 -43 76q-63 0 -47 -180q-111 0 -252 -4q-21 179 59 273.5t244 94.5q133 0 213 -66t80 -181q0 -114 -83 -211t-218 -160l279 16z" />
    <glyph glyph-name="three.numerator" horiz-adv-x="663" 
d="M334 612q-181 0 -258.5 83t-63.5 245q109 -8 250 -16q-4 -61 12.5 -94t49.5 -33q25 0 41 17.5t16 55.5q0 56 -35 74q-43 24 -137 17q-2 54 -8 163q41 -4 80 1t59 16q35 21 35 71q0 38 -17 54t-39 16q-67 0 -55 -117l-252 -12q-9 86 13.5 150.5t70 101.5t108 54.5
t134.5 17.5q128 0 210.5 -65.5t82.5 -174.5q0 -68 -31 -113.5t-88 -64.5q62 -21 96.5 -73t34.5 -118q0 -121 -89 -188.5t-220 -67.5z" />
    <glyph glyph-name="four.numerator" horiz-adv-x="679" 
d="M362 641q0 72 3 139q-119 0 -349 -4q0 39 -6 201l209 483q109 -5 206 -7.5t139 -2.5h42q-2 -209 -2 -481q35 2 55 2q-2 -50 -2 -189h-51l2 -141q-76 -3 -137.5 -3t-84.5 2zM367 1303q0 -1 -131 -334q51 -2 131 0v334z" />
    <glyph glyph-name="five.numerator" horiz-adv-x="677" 
d="M342 618q-172 0 -245.5 78t-65.5 226q52 -4 115 -7.5t100 -4.5l37 -1q0 -125 61 -125q53 0 53 119q0 81 -13 113.5t-44 32.5q-53 0 -57 -103q-109 13 -252 21q8 220 12 479q302 2 584 8q-2 -41 -2 -201q-162 2 -342 -2q-2 -66 -2 -123q27 36 68 56t85 20
q110 0 166.5 -81.5t56.5 -200.5q0 -152 -86.5 -228t-228.5 -76z" />
    <glyph glyph-name="six.numerator" horiz-adv-x="684" 
d="M348 614q-162 0 -245 108t-83 314q0 204 79.5 319t250.5 115q151 0 228 -72.5t77 -205.5l-249 6q-2 41 -15 65.5t-35 24.5q-19 0 -31 -10.5t-23.5 -55t-14.5 -126.5q66 63 174 63q95 0 149 -66.5t54 -177.5q0 -77 -25.5 -136.5t-70 -94.5t-100 -52.5t-120.5 -17.5z
M348 1001q-32 0 -61 -22q4 -103 22.5 -144.5t50.5 -41.5q52 0 52 112q0 46 -17.5 71t-46.5 25z" />
    <glyph glyph-name="seven.numerator" horiz-adv-x="552" 
d="M102 623q-9 191 37 343t129 248l-258 -6l4 242q164 1 296 3t182 3l49 2q-1 -89 -0.5 -142t1.5 -75l1 -22q-92 -114 -135.5 -258.5t-36.5 -346.5z" />
    <glyph glyph-name="eight.numerator" horiz-adv-x="704" 
d="M360 614q-160 0 -250 63.5t-90 176.5q0 62 33.5 112.5t98.5 71.5q-117 64 -117 201q0 109 88 173.5t235 64.5q152 0 236 -63.5t84 -174.5q0 -133 -125 -192q131 -54 131 -189q0 -122 -91.5 -183t-232.5 -61zM360 1110q24 15 40 45t16 62q0 38 -17.5 59.5t-46.5 21.5
q-28 0 -45.5 -19t-17.5 -54q0 -37 19 -68.5t52 -46.5zM350 788q66 0 66 74q0 67 -70 101q-63 -40 -63 -97q0 -39 18.5 -58.5t48.5 -19.5z" />
    <glyph glyph-name="nine.numerator" horiz-adv-x="677" 
d="M330 616q-151 0 -231.5 82.5t-69.5 225.5q68 -7 130 -12t89 -6l28 -1q-3 -55 13 -82.5t45 -27.5q33 0 45.5 36t13.5 150q-50 -39 -133 -39q-123 0 -181.5 70t-58.5 190q0 123 79.5 195.5t228.5 72.5q179 0 254 -102.5t75 -333.5q0 -120 -23.5 -203.5t-68.5 -129.5
t-101.5 -65.5t-133.5 -19.5zM348 1069q26 0 45 8q-1 130 -14 180t-43 50q-62 0 -62 -111q0 -61 20.5 -94t53.5 -33z" />
    <glyph glyph-name="zero.denominator" horiz-adv-x="690" 
d="M344 -39q-164 0 -244 104t-80 328q0 209 79.5 314.5t244.5 105.5q169 0 247.5 -98.5t78.5 -317.5q0 -231 -81.5 -333.5t-244.5 -102.5zM342 135q10 0 17 3.5t15.5 19t13 43t8 79t3.5 123.5q0 236 -57 236q-17 0 -28 -15t-20 -73.5t-9 -163.5q0 -252 57 -252z" />
    <glyph glyph-name="one.denominator" horiz-adv-x="512" 
d="M182 -10q3 383 0 504l-110 -50l-72 232l281 129l161 -17q0 -183 2 -382t4 -306l3 -108z" />
    <glyph glyph-name="two.denominator" horiz-adv-x="620" 
d="M586 -6l-559 6l-11 246q143 50 241.5 133.5t98.5 179.5q0 76 -43 76q-63 0 -47 -180q-111 0 -252 -4q-21 179 59 273.5t244 94.5q132 0 212.5 -66.5t80.5 -181.5q0 -114 -82.5 -210.5t-218.5 -159.5l279 16z" />
    <glyph glyph-name="three.denominator" horiz-adv-x="663" 
d="M334 -35q-181 0 -258.5 83t-63.5 245q109 -9 250 -17q-4 -60 12.5 -93t49.5 -33q25 0 41 17.5t16 55.5q0 56 -35 74q-41 23 -137 16q-2 55 -8 164q41 -4 80 1t59 16q35 21 35 71q0 38 -17 54t-39 16q-67 0 -55 -117l-252 -12q-9 86 13.5 150.5t70 101t108 54t134.5 17.5
q128 0 210.5 -65t82.5 -174q0 -68 -31 -113.5t-88 -64.5q62 -21 96.5 -73t34.5 -118q0 -121 -89 -188.5t-220 -67.5z" />
    <glyph glyph-name="four.denominator" horiz-adv-x="679" 
d="M362 -6q0 72 3 139q-119 0 -349 -4q0 39 -6 201l209 483q109 -5 206 -7.5t139 -2.5h42q-2 -209 -2 -481q35 2 55 2q-2 -50 -2 -189h-51l2 -141q-76 -3 -137.5 -3t-84.5 1zM367 655q-10 -24 -131 -333q51 -2 131 0v333z" />
    <glyph glyph-name="five.denominator" horiz-adv-x="677" 
d="M342 -29q-172 0 -245.5 78t-65.5 225q52 -4 115 -7t100 -4l37 -1q0 -125 61 -125q53 0 53 119q0 81 -13 113t-44 32q-53 0 -57 -102q-109 12 -252 20q8 221 12 480q302 2 584 8q-2 -41 -2 -201q-162 2 -342 -2q-2 -66 -2 -123q27 36 68 56t85 20q110 0 166.5 -82
t56.5 -201q0 -152 -86 -227.5t-229 -75.5z" />
    <glyph glyph-name="six.denominator" horiz-adv-x="684" 
d="M348 -33q-162 0 -245 108t-83 314q0 204 79.5 319t250.5 115q151 0 228 -72.5t77 -205.5l-249 6q-2 41 -15 65.5t-35 24.5q-19 0 -31 -10.5t-23.5 -55t-14.5 -126.5q66 63 174 63q95 0 149 -66.5t54 -177.5q0 -77 -25.5 -136.5t-70 -94.5t-100 -52.5t-120.5 -17.5z
M348 354q-32 0 -61 -22q4 -103 22.5 -145t50.5 -42q52 0 52 113q0 46 -17.5 71t-46.5 25z" />
    <glyph glyph-name="seven.denominator" horiz-adv-x="552" 
d="M102 -25q-9 191 37 343.5t129 248.5l-258 -6l4 242q164 1 295.5 3t181.5 4l50 1q-1 -89 -0.5 -142.5t1.5 -75.5l1 -22q-92 -114 -135.5 -258.5t-36.5 -345.5z" />
    <glyph glyph-name="eight.denominator" horiz-adv-x="704" 
d="M360 -33q-160 0 -250 63.5t-90 176.5q0 62 33.5 112.5t98.5 71.5q-117 65 -117 201q0 108 88 172.5t235 64.5q153 0 236.5 -63t83.5 -174q0 -134 -125 -193q131 -54 131 -188q0 -122 -91.5 -183t-232.5 -61zM360 463q24 15 40 44.5t16 61.5q0 38 -17.5 60t-46.5 22
q-28 0 -45.5 -19t-17.5 -54q0 -37 19 -68.5t52 -46.5zM350 141q66 0 66 74q0 66 -70 100q-63 -40 -63 -96q0 -39 18.5 -58.5t48.5 -19.5z" />
    <glyph glyph-name="nine.denominator" horiz-adv-x="677" 
d="M330 -31q-151 0 -231.5 82t-69.5 225q68 -7 130 -11.5t89 -5.5l28 -1q-3 -55 13 -83t45 -28q33 0 45.5 36.5t13.5 150.5q-50 -39 -133 -39q-123 0 -181.5 70t-58.5 190q0 123 79.5 195.5t228.5 72.5q179 0 254 -102.5t75 -333.5q0 -120 -23.5 -203.5t-68.5 -129.5
t-101.5 -65.5t-133.5 -19.5zM348 422q26 0 45 8q-1 130 -14 179.5t-43 49.5q-62 0 -62 -110q0 -61 20.5 -94t53.5 -33z" />
    <glyph glyph-name="dollar.titling" horiz-adv-x="753" 
d="M522 305l-274 4q8 114 8 131q-121 27 -179 109.5t-54 228.5q98 -8 303 -16q-22 -129 57 -129q55 0 55 63q0 38 -28.5 63t-114.5 50q-149 41 -206.5 109.5t-57.5 181.5q0 104 59.5 170t171.5 86l-8 145l268 4q-9 -93 -12 -157q220 -55 211 -330q-105 8 -293 12
q7 62 -8.5 95.5t-44.5 33.5q-49 0 -49 -65q0 -39 29.5 -66t99.5 -43q160 -35 219 -96t59 -170q0 -226 -217 -275q0 -37 1.5 -72t2.5 -51z" />
    <glyph glyph-name="cent.titling" horiz-adv-x="765" 
d="M256 299q8 122 8 139q-244 73 -244 459q0 396 252 455l-8 153l268 4q-4 -45 -10 -166q243 -72 221 -389q-96 4 -172.5 5t-104.5 0l-28 -1q6 199 -51 199q-32 0 -40.5 -51.5t-8.5 -187.5q0 -122 5.5 -183.5t17 -82.5t34.5 -21q58 0 45 203q108 -4 303 4q17 -338 -221 -400
l10 -139q-81 2 -150 2t-98 -1z" />
    <glyph glyph-name="Euro.titling" horiz-adv-x="833" 
d="M12 913q4 39 0 127h80q22 197 115 295.5t268 98.5q90 0 158 -27t108 -74t59 -107t17 -130l-309 2q-1 62 -12 86t-35 24q-26 0 -38.5 -31.5t-16.5 -129.5l319 6q-2 -31 -2 -129q-78 0 -320 -4v-54l324 6q-4 -31 0 -127q-73 0 -321 -4q6 -90 18 -117.5t37 -27.5
q48 0 45 102q83 -3 161 -4t115 0h37q-9 -153 -109 -238t-253 -83q-164 0 -252 88t-111 276l-84 -2q0 3 0.5 11t1.5 39.5t0 78.5h74v51z" />
    <glyph glyph-name="sterling.titling" horiz-adv-x="790" 
d="M33 731q2 77 1.5 126t-2.5 72l-1 23l69 -2q-1 3 -6.5 18t-7 19t-6 17t-6 19t-5 18t-4.5 20t-3 19.5t-2.5 22t-0.5 21.5q0 144 88.5 227t274.5 83q87 0 152.5 -22t105 -60.5t63 -91.5t25.5 -115t-6 -131q-115 4 -303 4q11 104 -1.5 154.5t-43.5 50.5q-49 0 -49 -101
q0 -64 34 -172l269 4q0 -74 1.5 -129t2.5 -73l2 -19h-260q-14 -44 -47 -82q208 -4 393 -2q-1 -7 -2 -22t-2 -79.5t0 -150.5q-241 6 -723 6q1 9 2 26.5t2 71.5t0 109q72 59 92 123z" />
    <glyph glyph-name="yen.titling" horiz-adv-x="790" 
d="M68 698q1 33 -5 158q38 -2 138 0q-73 225 -191 541q61 0 318 10q14 -108 75 -412q41 205 78 441q9 -1 29 -2t97 -2t173 0q-67 -190 -178 -568l125 4q-4 -34 0 -157q-55 0 -188 -2v-58q44 0 192 4q-2 -22 2 -149q-57 0 -192 -2l6 -115q-56 4 -285 -2q2 58 2 113
q-51 0 -203 -4q0 4 0.5 13t1.5 46t0 92q58 -2 199 0l-2 55q-44 0 -192 -4z" />
    <glyph glyph-name="zero.titling" horiz-adv-x="776" 
d="M385 381q-186 0 -275.5 130.5t-89.5 401.5q0 265 89 393t276 128q193 0 282 -122.5t89 -391.5q0 -281 -90.5 -410t-280.5 -129zM383 590q20 0 31.5 18.5t19.5 95t8 222.5q0 297 -59 297q-19 0 -30.5 -20.5t-19 -92t-7.5 -203.5q0 -125 8 -197.5t19.5 -96t29.5 -23.5z" />
    <glyph glyph-name="one.titling" horiz-adv-x="585" 
d="M207 418q5 484 2 639l-129 -58q-19 70 -39 138t-31 101l-10 32l330 151l172 -20q0 -226 2.5 -471t5.5 -378l2 -132z" />
    <glyph glyph-name="two.titling" horiz-adv-x="704" 
d="M666 422q-137 4 -296 6t-249 2h-90l-13 299q164 68 274.5 171.5t110.5 221.5q0 95 -47 95q-36 0 -49.5 -51.5t-3.5 -176.5q-109 0 -285 -6q-26 225 63.5 341t280.5 116q156 0 244 -82t88 -228q0 -138 -94 -259t-248 -195q88 1 166.5 4t113.5 6l34 2v-266z" />
    <glyph glyph-name="three.titling" horiz-adv-x="741" 
d="M375 387q-405 0 -361 401q111 -8 287 -18q-14 -162 61 -162q62 0 62 97q0 68 -37 94q-46 27 -151 18q-3 66 -11 201q109 -9 156 22q37 26 37 90q0 49 -17 72t-41 23q-73 0 -57 -158l-287 -14q-12 107 10.5 185.5t74.5 124.5t122 67.5t160 21.5q148 0 238 -82.5t90 -214.5
q0 -161 -138 -217q71 -26 112.5 -90t41.5 -148q0 -149 -101.5 -231t-250.5 -82z" />
    <glyph glyph-name="four.titling" horiz-adv-x="763" 
d="M399 422q0 115 2 170q-121 0 -383 -4q-2 49 -8 248l242 598l428 -15q-2 -258 -2 -594q42 2 67 2q-2 -59 -2 -233q-22 2 -63 0l2 -172q-93 -4 -163.5 -4t-94.5 2zM403 1210q-72 -198 -133 -385h133v385z" />
    <glyph glyph-name="five.titling" horiz-adv-x="753" 
d="M381 395q-200 0 -282.5 96.5t-69.5 276.5q64 -5 136 -8.5t112 -4.5l40 -1q0 -83 15.5 -119.5t48.5 -36.5q55 0 55 145q0 97 -14 139t-45 42q-57 0 -60 -125q-128 12 -288 24q10 272 14 590q306 2 655 12q-4 -46 -4 -243q-162 2 -379 -2v-154q66 90 179 90q64 0 112 -28.5
t75.5 -78.5t40.5 -110t13 -131q0 -184 -94 -278.5t-260 -94.5z" />
    <glyph glyph-name="six.titling" horiz-adv-x="759" 
d="M389 391q-369 0 -369 518q0 537 375 537q174 0 257.5 -91.5t78.5 -252.5q-48 2 -94.5 3.5t-79.5 2t-59 0.5h-39h-13q0 57 -13 89t-36 32q-21 0 -34 -15t-23 -72.5t-12 -162.5q75 82 188 82q112 0 168.5 -81.5t56.5 -219.5q0 -96 -28 -168.5t-77 -115.5t-111 -64t-136 -21
zM387 864q-23 0 -59 -20q4 -134 20.5 -185t50.5 -51q54 0 54 140q0 116 -66 116z" />
    <glyph glyph-name="seven.titling" horiz-adv-x="622" 
d="M119 397q-12 247 42 440.5t154 307.5l-305 -6l6 280q202 2 350.5 4.5t195.5 4.5l48 2q-1 -109 -0.5 -174.5t1.5 -93.5l1 -27q-105 -138 -152 -316.5t-38 -429.5z" />
    <glyph glyph-name="eight.titling" horiz-adv-x="780" 
d="M399 389q-191 0 -288 79t-97 216q0 78 39 137t113 86q-133 84 -133 252q0 135 99 214t265 79q173 0 267 -78t94 -215q0 -158 -148 -239q156 -67 156 -232q0 -79 -28.5 -138t-80 -93.5t-116 -51t-142.5 -16.5zM399 1006q25 19 41.5 55.5t16.5 75.5q0 49 -18 75.5t-50 26.5
q-29 0 -47 -25t-18 -67q0 -45 19.5 -83t55.5 -58zM387 596q70 0 70 90q0 85 -74 125q-68 -43 -68 -119q0 -48 20 -72t52 -24z" />
    <glyph glyph-name="nine.titling" horiz-adv-x="755" 
d="M362 391q-177 0 -264 102.5t-69 276.5q84 -9 155 -15t100 -8l29 -2q-6 -70 10 -104.5t48 -34.5q24 0 36 18.5t18 68.5t7 149q-55 -49 -139 -49q-143 0 -210 86t-67 235q0 153 91.5 242.5t259.5 89.5q196 0 282 -126t86 -413q0 -117 -17.5 -206t-48.5 -147.5t-78 -95
t-102.5 -52t-126.5 -15.5zM387 950q19 0 45 11q-1 168 -14 227t-45 59q-64 0 -64 -141q0 -77 21 -116.5t57 -39.5z" />
    <glyph glyph-name="questiondown.cap" horiz-adv-x="899" 
d="M426 -45q-103 0 -184 31t-131 85.5t-75.5 125.5t-25.5 155q0 367 326 457l-2 113q110 -3 191.5 -2t128.5 4l46 2q0 -88 2 -172t4 -124l1 -40q-173 3 -236 -39t-63 -158q0 -147 51 -147q39 0 48.5 52t6.5 175q154 6 369 12q30 -276 -83.5 -403t-373.5 -127zM520 983
q-113 0 -171 61t-58 168q0 98 60.5 159t162.5 61q116 0 177 -63.5t61 -164.5q0 -102 -65.5 -161.5t-166.5 -59.5z" />
    <glyph glyph-name="exclamdown.cap" horiz-adv-x="479" 
d="M43 -23q21 338 41 941q14 -1 39.5 -2t108.5 -2t161 1q18 -437 51 -938q-159 4 -401 0zM238 983q-112 0 -170 65.5t-58 159.5q0 99 62 160.5t161 61.5q109 0 172.5 -61t63.5 -167q0 -97 -61 -158t-170 -61z" />
    <glyph glyph-name="parenleft.cap" horiz-adv-x="589" 
d="M268 -111q-237 367 -237 803q0 516 258 838l301 -92q-89 -165 -133.5 -344t-44.5 -398q0 -315 178 -721q-89 -21 -169.5 -42.5t-116.5 -32.5z" />
    <glyph glyph-name="parenright.cap" horiz-adv-x="589" 
d="M326 -129q-125 41 -326 88q178 425 178 743q0 426 -178 756q108 31 307 94q125 -162 188.5 -380t63.5 -459q0 -201 -56.5 -419.5t-176.5 -422.5z" />
    <glyph glyph-name="bracketleft.cap" horiz-adv-x="581" 
d="M551 -98q-23 1 -64 2t-167 3t-250 1q3 383 -9 1591q121 -2 482 4q-2 -112 6 -307q-43 0 -119 -6q-8 -419 0 -957q45 -4 131 -4q-6 -98 -10 -327z" />
    <glyph glyph-name="bracketright.cap" horiz-adv-x="581" 
d="M31 -90q-2 102 -4.5 184.5t-4.5 113.5l-2 32l132 4q4 240 4.5 483t-0.5 367l-2 123h-121l2 307l485 -4q-8 -536 -11 -936.5t-2 -533.5l1 -132q-76 1 -195 -1t-201 -5z" />
    <glyph glyph-name="braceleft.cap" horiz-adv-x="661" 
d="M633 -82q-119 -29 -213 -29q-150 0 -213.5 76.5t-63.5 241.5q0 34 3.5 97t3.5 89q0 97 -30.5 133.5t-109.5 36.5q1 12 2 36.5t2 107.5t0 176q75 -4 105.5 31.5t30.5 119.5q-1 24 -7 98t-6 115q0 136 71 204.5t234 68.5q85 0 191 -25q-1 -108 1 -183.5t4 -97.5l3 -22
q-88 8 -116.5 -9.5t-28.5 -80.5q0 -23 7 -86.5t7 -95.5q0 -72 -34 -118t-107 -81q76 -33 106.5 -83.5t30.5 -139.5q0 -28 -4 -83t-4 -79q0 -76 27.5 -98.5t115.5 -16.5q-5 -94 -7 -169.5t-2 -104.5z" />
    <glyph glyph-name="braceright.cap" horiz-adv-x="661" 
d="M29 -94q3 84 -9 295q80 -8 114 13t34 85q0 26 -7 98t-7 111q0 92 37.5 147.5t119.5 81.5q-79 25 -118 69.5t-39 127.5q0 33 8 92.5t8 83.5q0 60 -31.5 77.5t-118.5 12.5q1 8 3 25.5t4.5 96.5t1.5 187q91 21 174 21q173 0 247 -66.5t74 -197.5q0 -40 -8 -116.5t-8 -109.5
q0 -82 30 -112.5t109 -30.5q-1 -93 0 -170.5t3 -108.5l1 -32q-84 4 -115.5 -30.5t-31.5 -125.5l14 -256q0 -148 -67 -224t-222 -73q-78 0 -200 29z" />
    <glyph glyph-name="slash.cap" horiz-adv-x="720" 
d="M-10 -102q112 409 219 811.5t158 600.5l51 199q104 -2 182 -2t104 1l27 1q-153 -562 -259.5 -964.5t-136.5 -524.5l-30 -122q-96 2 -174.5 2t-109.5 -1z" />
    <glyph glyph-name="backslash.cap" horiz-adv-x="720" 
d="M731 -102q-100 4 -315 0q-83 349 -426 1611q80 -4 313 0q176 -693 428 -1611z" />
    <glyph glyph-name="bar.cap" horiz-adv-x="452" 
d="M68 -100q3 751 -7 1609q13 -1 39 -2t111.5 -3t179.5 -1q-1 -65 -2.5 -188t-4 -544t0.5 -867q-94 6 -317 -4z" />
    <glyph glyph-name="at.cap" horiz-adv-x="1349" 
d="M868 -27q-411 -79 -629.5 101.5t-218.5 627.5q0 357 178.5 554.5t479.5 197.5q167 0 292.5 -52t203.5 -150t116.5 -232.5t38.5 -306.5q0 -114 -12 -200.5t-34 -144t-55.5 -93.5t-73.5 -51t-91 -15q-149 0 -191 145q-38 -73 -108 -106t-152 -33q-142 0 -218.5 81.5
t-76.5 207.5q0 136 98 205.5t306 72.5v27q0 145 -49 145t-41 -137q-109 -2 -289 -12q-19 173 73.5 284t276.5 111q161 0 248.5 -105t95.5 -264q6 -102 0 -311q0 -114 43 -114q18 0 30 21.5t20 91t8 190.5q0 296 -108 439.5t-349 143.5q-223 0 -346 -154.5t-123 -432.5
q0 -117 14.5 -207.5t45.5 -162t80.5 -117t119.5 -71.5t161.5 -26t207.5 20q10 -72 28 -168zM737 584v61q-133 -19 -133 -129q0 -32 16 -52t46 -20q32 0 49.5 29.5t21.5 110.5z" />
    <glyph glyph-name="A.alt" horiz-adv-x="954" 
d="M0 4q92 533 213 1403q132 5 262 7t194 2l64 -1q86 -623 221 -1401q-145 4 -385 -2q-2 53 -10 172q-19 0 -78 1t-100 1l-12 -186q-13 1 -39 2t-121.5 2t-208.5 0zM471 1108q-48 -444 -65 -631q52 -2 126 0q-30 336 -61 631z" />
    <glyph glyph-name="B.alt" horiz-adv-x="937" 
d="M59 -10q-4 666 -18 1415q183 26 332 29q286 3 412 -91.5t126 -285.5q0 -110 -57.5 -191.5t-155.5 -126.5q122 -40 181 -131t59 -219q0 -212 -158.5 -309.5t-490.5 -97.5q-121 0 -230 8zM422 244q80 -2 114.5 38.5t34.5 135.5q0 85 -37 124.5t-120 39.5q1 -105 3 -189.5
t3 -116.5zM414 1147q-2 -87 -2 -165t1 -113l1 -35q74 -2 111.5 36.5t37.5 126.5q0 87 -33 120t-116 30z" />
    <glyph glyph-name="C.alt" horiz-adv-x="960" 
d="M489 -23q-86 0 -154 20.5t-128.5 71.5t-100.5 133t-63 211t-23 300q0 374 115.5 555.5t374.5 181.5q115 0 201 -41.5t138.5 -118.5t76.5 -182t20 -236q-106 0 -204.5 -1.5t-144.5 -2.5l-46 -2q1 88 -3 144.5t-12.5 84.5t-18.5 38t-25 10q-39 0 -54 -96t-12 -336
q0 -167 7 -259.5t20 -125.5t36 -33q24 0 36.5 19t19 79t4.5 176q93 2 193 6.5t154 8.5l54 4q3 -316 -108 -463t-353 -146z" />
    <glyph glyph-name="D.alt" horiz-adv-x="954" 
d="M418 272q22 0 35.5 4t28.5 18t23.5 42t16 74.5t10.5 118.5t3 171q0 162 -14.5 251.5t-41.5 121.5t-73 31q1 -193 4 -401t6 -319zM41 2l2 1387q140 20 266 20q175 0 295.5 -44t193 -137t104.5 -225.5t32 -320.5q0 -251 -71.5 -405t-212 -222.5t-363.5 -68.5
q-105 0 -246 16z" />
    <glyph glyph-name="E.alt" horiz-adv-x="722" 
d="M57 27q-4 553 -16 1376q173 0 657 12q-2 -149 4 -362q-163 -5 -294 -13q-2 -73 0 -194q162 0 243 2q-2 -135 2 -336l-237 2q0 -68 6 -158q106 0 276 4q-4 -115 -4 -342q-292 5 -637 9z" />
    <glyph glyph-name="F.alt" horiz-adv-x="729" 
d="M57 23q0 551 -16 1376q266 0 668 8q-4 -123 -4 -367q-82 4 -293 -2q0 -104 2 -290q164 0 268 4q-2 -138 2 -349q-78 4 -266 0q5 -260 8 -378z" />
    <glyph glyph-name="G.alt" horiz-adv-x="962" 
d="M487 -27q-88 0 -156.5 20t-128 70.5t-99 132t-61.5 208.5t-22 296q0 365 113.5 548.5t366.5 183.5q114 0 199.5 -40.5t135.5 -114t73.5 -169.5t21.5 -215q-180 -7 -377 -19q3 137 -13 195.5t-53 58.5q-28 0 -43 -35.5t-22 -129t-6 -267.5q1 -188 11 -287t27 -130t48 -31
q21 0 34.5 20t21.5 75.5t7 148.5q-41 -1 -90 -7q2 103 -2 293q262 0 471 6q6 -188 -9 -326t-49.5 -231t-92.5 -149.5t-132 -80.5t-174 -24z" />
    <glyph glyph-name="H.alt" horiz-adv-x="929" 
d="M516 12v375q-59 0 -102 -2l6 -399q-156 6 -371 -2q2 653 -8 1452q87 -2 365 2q2 -313 6 -740q16 -2 102 -2q0 116 -2.5 373t-3.5 346q133 -2 375 2q0 -571 6 -1407q-16 1 -45.5 2t-129 2t-198.5 -2z" />
    <glyph glyph-name="I.alt" horiz-adv-x="483" 
d="M59 31q2 542 -8 1337q127 0 371 2q4 -601 10 -1339q-123 2 -373 0z" />
    <glyph glyph-name="J.alt" horiz-adv-x="858" 
d="M414 0q-404 0 -404 477q0 111 25 250q104 -8 327 -16q-12 -83 -12 -166q0 -84 7 -132t18.5 -64.5t30.5 -16.5q15 0 23.5 7t17.5 33.5t13.5 78.5t7.5 141t3 221q0 257 -37 573q134 13 361 29q43 -340 43 -622q0 -182 -18 -318t-52 -226.5t-87 -146t-117.5 -79
t-149.5 -23.5z" />
    <glyph glyph-name="K.alt" horiz-adv-x="954" 
d="M569 -35q-50 343 -65 430q-66 -183 -88 -250l4 -135q-135 2 -219 1.5t-122 -1.5l-38 -2q3 346 3 684t-2 503l-1 165l377 -2q-6 -393 -6 -666q55 231 95.5 413.5t54.5 248.5l13 67q111 -5 206 -8t134 -3l39 -1q-56 -190 -184 -637q46 -208 91.5 -399t68.5 -278l22 -87
q-101 -7 -196.5 -18t-141.5 -18z" />
    <glyph glyph-name="L.alt" horiz-adv-x="696" 
d="M53 33q0 522 -12 1358q121 -4 369 0q-6 -171 8 -1031q74 -3 143.5 -4t102.5 0h32l-2 -338q-161 5 -321 9t-240 5z" />
    <glyph glyph-name="M.alt" horiz-adv-x="1402" 
d="M20 12q36 660 54 1438q236 -4 516 6q45 -372 100 -768q55 394 98 752q278 -11 535 -19q10 -524 59 -1415q-197 -10 -381 -16q2 396 -14 1003q-64 -413 -106 -796q-191 2 -365 10q-37 324 -115 821q0 -604 9 -1024q-234 6 -390 8z" />
    <glyph glyph-name="N.alt" horiz-adv-x="999" 
d="M47 -20q8 606 -6 1431q141 -6 354 0q84 -257 244 -682q-10 191 -51 711q14 -1 41 -2t114 -3t179 -1q9 -496 36 -1407q-113 -2 -340 -25q-104 304 -258 715q8 -345 33 -744q-135 7 -346 7z" />
    <glyph glyph-name="O.alt" horiz-adv-x="974" 
d="M487 1438q128 0 218.5 -45.5t144.5 -137.5t78.5 -220t25.5 -304q0 -266 -53.5 -432t-154.5 -238.5t-257 -72.5q-134 0 -225 45t-144.5 140.5t-76.5 229.5t-23 326q3 376 110.5 542.5t356.5 166.5zM483 1147q-22 0 -34 -29t-18.5 -126.5t-6.5 -289.5q0 -190 8 -286.5
t20 -121t35 -24.5q26 0 37.5 23t19 121t7.5 303q0 186 -8 281t-21 122t-39 27z" />
    <glyph glyph-name="P.alt" horiz-adv-x="921" 
d="M41 -23q1 61 2.5 174t4 478t1.5 747q133 13 223 13q339 0 489 -130.5t150 -408.5q0 -255 -133 -388.5t-368 -135.5q1 -71 10 -346q-160 3 -379 -3zM406 1069q-4 -159 0 -465q67 8 98 57.5t31 176.5q0 118 -30.5 175t-98.5 56z" />
    <glyph glyph-name="Q.alt" horiz-adv-x="970" 
d="M588 -295q-55 188 -86 275h-29q-217 0 -335 168.5t-118 515.5q0 396 105.5 574.5t345.5 178.5q181 0 282.5 -70t149 -237.5t47.5 -468.5q0 -393 -170 -553q35 -63 68.5 -120t49.5 -83l17 -26q-111 -48 -193 -86.5t-108 -52.5zM483 1133q-18 0 -27.5 -14t-17.5 -63
t-11 -143.5t-3 -255.5q0 -106 3 -180.5t7.5 -118t13 -67.5t17 -31.5t20.5 -7.5q25 0 36.5 21.5t18.5 108t7 269.5q0 215 -8 322t-20 133.5t-36 26.5z" />
    <glyph glyph-name="R.alt" 
d="M594 -59q-64 226 -156 536q-18 -2 -26 -2q0 -33 8 -479q-160 2 -379 -2q1 61 2.5 175.5t4 481.5t1.5 750q184 26 299 26q158 0 270.5 -32.5t179.5 -97t97.5 -152t30.5 -205.5q0 -244 -176 -362q21 -52 221 -594q-168 -12 -377 -43zM412 711q66 1 96.5 54t30.5 159
q0 100 -32 151t-101 45z" />
    <glyph glyph-name="S.alt" horiz-adv-x="905" 
d="M455 -16q-240 0 -350.5 122.5t-92.5 393.5q145 -2 381 6q-9 -122 5.5 -176t54.5 -54q29 0 42 29.5t13 95.5q0 59 -38.5 99.5t-154.5 87.5q-160 64 -229.5 164.5t-69.5 265.5q0 196 112.5 306t334.5 110q451 0 411 -523q-161 2 -370 -2q12 86 6.5 138t-19 74t-34.5 22
q-54 0 -54 -129q0 -64 40 -110t143 -85q178 -68 243.5 -164t65.5 -249q0 -422 -440 -422z" />
    <glyph glyph-name="T.alt" horiz-adv-x="806" 
d="M12 1034q4 92 -2 355q258 -2 787 8q-1 -15 -2 -43.5t-3 -123t-1 -196.5q-76 2 -207 2q0 -357 8 -1009q-121 4 -369 -2q4 367 -2 1011q-143 0 -209 -2z" />
    <glyph glyph-name="U.alt" 
d="M492 12q-159 0 -261.5 78.5t-156.5 259t-54 471.5q0 276 48 615q122 -13 370 -29q-39 -331 -39 -569q0 -122 4 -210t10.5 -140.5t18 -83t23 -40.5t28.5 -10q29 0 43.5 24.5t22.5 111t8 260.5q0 261 -33 632q119 5 359 19q47 -335 47 -674q0 -256 -50.5 -415.5
t-145.5 -229.5t-242 -70z" />
    <glyph glyph-name="V.alt" horiz-adv-x="903" 
d="M168 18q-41 385 -83 730.5t-63 499.5l-22 153l373 -2q27 -598 67 -1084q28 346 48 624.5t26 384.5l6 106l383 -9q-73 -524 -121 -876.5t-60 -443.5l-11 -91q-259 -2 -543 8z" />
    <glyph glyph-name="W.alt" horiz-adv-x="1413" 
d="M776 14q-29 393 -67 785l-113 -822q-104 6 -190.5 9.5t-135.5 4.5t-83.5 1.5t-46.5 -0.5h-13q-27 388 -56.5 741t-44.5 513l-16 159l400 8q0 -404 10 -1024q52 334 85.5 558t40.5 281l7 56q101 2 172.5 0.5t110.5 -4.5l38 -2q68 -557 130 -913q4 352 5 617.5t0 355.5
l-1 89q96 -4 195 -6.5t149 -2.5l51 -1l-115 -1388q-169 -10 -297 -14t-171 -3z" />
    <glyph glyph-name="X.alt" horiz-adv-x="1032" 
d="M436 -12q-125 7 -234 11.5t-156 5.5l-46 1q106 319 213 670q-121 501 -184 749q111 1 397 13q27 -186 88 -547q20 157 35.5 289.5t20.5 186.5l5 54q108 -4 212.5 -6.5t154.5 -2.5l51 -1q-76 -306 -164 -700q62 -219 112.5 -390.5t70.5 -233.5l20 -62q-145 -9 -254 -17.5
t-146 -13.5l-36 -4q-19 186 -64 518q-24 -121 -48 -251t-36 -199z" />
    <glyph glyph-name="Y.alt" horiz-adv-x="987" 
d="M322 -51q5 24 -5 289q-79 348 -317 1167q68 -2 403 12q29 -255 105 -676q53 341 98 670q11 -1 36 -2t123 -3t222 -1q-125 -464 -299 -1159q-4 -9 6 -295q-74 6 -372 -2z" />
    <glyph glyph-name="Z.alt" horiz-adv-x="776" 
d="M750 12q-219 7 -401.5 11t-255.5 4h-73q3 117 3.5 210t0.5 127l-1 35q220 406 335 631l-331 -8q1 142 0.5 225t-1.5 115l-1 33l723 10q2 -60 3.5 -124t2 -112.5t0.5 -88v-60.5v-21q-204 -390 -328 -637q71 -3 153 -3.5t129 0.5l46 1q-4 -126 -5 -213t0 -111z" />
    <glyph glyph-name="a.alt" horiz-adv-x="866" 
d="M301 -47q-122 0 -206.5 78t-84.5 217q0 172 118.5 259t350.5 83v28q-1 81 -13 111.5t-36 30.5q-26 0 -38 -29.5t-15 -97.5q-131 8 -338 12q14 173 115.5 269t289.5 96q380 0 390 -416q3 -136 3 -298.5t-1 -257.5l-2 -95q-81 -2 -269 -4q6 75 8 165q-68 -151 -272 -151z
M426 197q36 0 53 46.5t17 164.5v22q-74 -9 -105 -46.5t-31 -100.5q0 -36 18 -61t48 -25z" />
    <glyph glyph-name="b.alt" horiz-adv-x="948" 
d="M45 25q2 432 -4 1417q12 0 38.5 -0.5t122 -1.5t214.5 0q-15 -247 -19 -555q83 135 228 135q303 0 303 -510q0 -231 -96 -363.5t-254 -132.5q-82 0 -152 39t-100 119q0 -31 4 -145q-99 0 -285 -2zM473 231q62 0 62 285q0 147 -15 204.5t-51 57.5q-33 0 -47 -56t-14 -198
q0 -124 7 -187.5t20 -84.5t38 -21z" />
    <glyph glyph-name="c.alt" horiz-adv-x="899" 
d="M467 -33q-216 0 -331.5 124t-115.5 403q0 247 112 382.5t349 135.5q198 0 306 -110t102 -318l-367 -13q6 189 -57 189q-32 0 -48 -63t-16 -216q0 -239 68 -239q62 0 51 190q115 5 369 19q6 -243 -103 -363.5t-319 -120.5z" />
    <glyph glyph-name="d.alt" horiz-adv-x="940" 
d="M893 18q-105 2 -289 2q2 48 4 132q-37 -79 -98 -121.5t-139 -42.5q-351 0 -351 536q0 230 84.5 361t239.5 131q122 0 197 -123q-4 229 -23 557q75 -6 381 2q-1 -72 -2.5 -196t-4 -515t0.5 -723zM473 231q21 0 32.5 20.5t18 80.5t6.5 172q0 252 -63 252q-18 0 -29.5 -24.5
t-17.5 -85t-6 -163.5q0 -252 59 -252z" />
    <glyph glyph-name="e.alt" horiz-adv-x="911" 
d="M461 -27q-211 0 -326 131t-115 398q0 111 26 202t78 161t137.5 108.5t197.5 38.5q243 0 345 -151t81 -443q-184 0 -492 -6q4 -109 20 -149t50 -40q55 0 61 127q164 -16 367 -22q-20 -152 -135.5 -253.5t-294.5 -101.5zM457 788q-33 0 -47 -39t-17 -159q33 0 119 4
q1 111 -11 152.5t-44 41.5z" />
    <glyph glyph-name="f.alt" horiz-adv-x="628" 
d="M612 618q-49 3 -129 3v-594q-149 0 -352 -2q-4 256 -6 589l-113 -2q4 86 -2 328q45 -2 117 -6v33q2 222 79 322t247 100q75 0 186 -19q-13 -68 -21 -301q-76 4 -103.5 -21t-27.5 -87v-37q43 -2 131 -2q-1 -12 -2 -35t-3 -102t-1 -167z" />
    <glyph glyph-name="g.alt" horiz-adv-x="849" 
d="M426 -504q-190 0 -301 61t-111 187q0 66 46 117.5t120 79.5q-78 60 -78 149q0 46 32.5 97.5t86.5 82.5q-211 88 -211 381q0 178 112 285.5t310 107.5l23 -2q9 147 14 332q99 -24 324 -61q-52 -107 -140 -318q92 -47 140.5 -136.5t48.5 -207.5q0 -201 -106 -310.5
t-283 -109.5q-51 0 -76 2q-25 -16 -25 -34q0 -17 30.5 -26.5t117.5 -16.5q110 -9 186.5 -35.5t118 -68t59 -89t17.5 -108.5q0 -113 -63 -196t-165 -123t-227 -40zM430 422q10 0 17 3t15.5 14t14 30.5t9 55t3.5 85.5q0 197 -59 197q-20 0 -33.5 -13t-24 -58.5t-10.5 -123.5
q0 -79 10 -122.5t23.5 -55.5t34.5 -12zM551 -213q0 69 -150 82q-59 -40 -59 -88q0 -32 25 -49t69 -17q49 0 82 19t33 53z" />
    <glyph glyph-name="h.alt" horiz-adv-x="888" 
d="M41 -6q1 76 2.5 202.5t4 519t-2.5 703.5q104 -2 348 2q-8 -253 -8 -547q84 142 238 142q107 0 165.5 -86t63.5 -232q4 -146 5.5 -317t0.5 -269v-98q-124 4 -362 4q4 282 0 605q0 37 -10 52t-33 15q-24 0 -34.5 -14.5t-10.5 -52.5l-2 -627q-113 2 -365 -2z" />
    <glyph glyph-name="i.alt" horiz-adv-x="444" 
d="M45 27q2 226 -6 977q118 -2 358 2q-1 -308 9 -977q-154 0 -361 -2zM223 1079q-97 0 -155 57.5t-58 172.5q0 96 57 153.5t156 57.5q96 0 148.5 -64t52.5 -151q0 -107 -56.5 -166.5t-144.5 -59.5z" />
    <glyph glyph-name="j.alt" horiz-adv-x="444" 
d="M223 1071q-97 0 -150 59t-53 162q0 97 52 158t155 61q97 0 152 -60.5t55 -150.5q0 -107 -62 -168t-149 -61zM-174 -442q8 125 8 336q24 -3 45 -3q97 0 134.5 44t39.5 139q3 190 3 391.5t-2 358.5l-3 157l350 2q2 -35 4 -105t6 -318t-1 -533q-2 -112 -27 -194t-82 -146.5
t-159 -97.5t-248 -33q-43 0 -68 2z" />
    <glyph glyph-name="k.alt" horiz-adv-x="942" 
d="M555 -18q-64 262 -78 315l-74 -141l3 -144l-365 4q3 420 3 776t-2 502l-1 146q115 -4 206.5 -5t126.5 0l34 1q-5 -453 -5 -820q37 123 67 227t41 147l11 42l393 -51q-34 -67 -180 -375q55 -168 106.5 -322t76.5 -224l24 -70q-118 -1 -215 -3t-135 -3z" />
    <glyph glyph-name="l.alt" horiz-adv-x="444" 
d="M403 4q-66 2 -127.5 3.5t-102 2t-71.5 0.5h-45h-14q3 468 2.5 781t-2.5 471l-2 157q106 -4 196.5 -6.5t128.5 -2.5l37 -1q-4 -447 -4 -798.5t2 -478.5z" />
    <glyph glyph-name="m.alt" horiz-adv-x="1347" 
d="M47 14q0 401 -6 971l295 -2q-2 -59 -4 -139q42 80 111.5 128t158.5 48q92 0 147.5 -50.5t77.5 -131.5q37 72 103.5 114.5t156.5 42.5q219 0 226 -284q3 -158 4 -332.5t1 -269.5l-1 -95q-123 2 -361 0q-2 292 -6 592q0 82 -41 82q-47 0 -47 -92q-2 -124 -2 -275t1 -240
l1 -89q-173 0 -368 -2q1 41 2 108.5t3 232.5t1 279q0 88 -47 88t-47 -98q-1 -110 0.5 -256.5t3.5 -237.5l2 -92q-193 2 -365 0z" />
    <glyph glyph-name="n.alt" horiz-adv-x="886" 
d="M492 10q4 283 4 606q0 36 -10 52t-33 16q-25 0 -34 -16t-11 -52q-2 -67 -2.5 -224t0.5 -280v-124q-164 2 -365 0q1 46 2 128t3 349t-1 516q119 -4 283 2l-2 -168q36 83 112 137t164 54q119 0 182 -79t68 -225l4 -690z" />
    <glyph glyph-name="o.alt" horiz-adv-x="923" 
d="M465 1016q205 0 321.5 -133.5t116.5 -403.5q0 -143 -50 -256t-152 -180.5t-242 -67.5q-210 0 -324.5 144.5t-114.5 376.5q0 249 122.5 384.5t322.5 135.5zM461 776q-19 0 -31.5 -19.5t-20.5 -84.5t-8 -180q0 -106 7 -168.5t20 -86.5t33 -24q21 0 33.5 22t20 81t7.5 161
q0 121 -7 187t-19.5 89t-34.5 23z" />
    <glyph glyph-name="p.alt" horiz-adv-x="944" 
d="M41 -367q4 284 4 631t-2 552l-2 206q81 -2 146 -1.5t106 1.5l41 2q-6 -129 -6 -209q36 101 103.5 156t158.5 55q163 0 248.5 -140t85.5 -384q0 -253 -83.5 -376.5t-224.5 -123.5q-63 0 -125.5 31t-93.5 84q4 -167 8.5 -287.5t7.5 -157.5l3 -37q-132 3 -215.5 3t-121.5 -2
zM473 242q19 0 30 16t19 79t8 181q0 65 -3 112t-7.5 74.5t-12 43.5t-15 21t-17.5 5q-34 0 -47.5 -51.5t-13.5 -198.5q0 -126 8 -189.5t19 -78t32 -14.5z" />
    <glyph glyph-name="q.alt" horiz-adv-x="946" 
d="M535 -401q12 360 12 512q-60 -111 -199 -111q-328 0 -328 528q0 143 37.5 254.5t118.5 179.5t195 68q82 0 143.5 -49t97.5 -125l-6 139q107 -2 181.5 -2t96.5 1l21 1q-4 -405 -4 -753.5t2 -494.5l2 -146zM475 240q32 0 46 64.5t14 223.5q0 242 -60 242q-34 0 -48.5 -59
t-14.5 -195q0 -150 15.5 -213t47.5 -63z" />
    <glyph glyph-name="r.alt" horiz-adv-x="626" 
d="M45 39q4 445 -4 956q53 -4 299 2q-6 -59 -8 -151q40 98 123.5 161.5t171.5 61.5q-11 -100 -15 -369q-111 -18 -157 -82t-49 -182q-2 -89 -1.5 -177t1.5 -153l2 -65q-94 2 -363 -2z" />
    <glyph glyph-name="s.alt" horiz-adv-x="819" 
d="M420 -29q-94 0 -167.5 21t-129.5 66t-85 120.5t-28 179.5q129 -1 344 7q-2 -71 12 -103.5t54 -32.5q22 0 36.5 17t14.5 49q0 36 -33.5 61.5t-118.5 49.5q-158 44 -228.5 114t-70.5 195q0 140 106 228.5t292 88.5q129 0 219 -53t129 -139t35 -195q-140 0 -328 -12
q3 66 -10.5 98.5t-48.5 32.5q-29 0 -43.5 -15.5t-14.5 -39.5q0 -37 32.5 -64t109.5 -51q177 -55 244 -120.5t67 -176.5q0 -84 -31 -148t-85.5 -102t-123 -57t-149.5 -19z" />
    <glyph glyph-name="t.alt" horiz-adv-x="647" 
d="M14 662l-4 301q35 -2 99 -2l4 266q115 -2 203 -2t118 1l31 1q-2 -115 -4 -271h147l-2 -297l-147 3q0 -101 4 -269q2 -51 40 -73.5t105 -10.5l19 -313q-111 -29 -206 -25t-164 36t-108 107t-40 189q-3 190 -3 359q-31 2 -92 0z" />
    <glyph glyph-name="u.alt" horiz-adv-x="888" 
d="M324 4q-104 0 -166.5 52t-94.5 177t-32 338q0 228 22 424q88 -14 338 -24q-8 -82 -8 -269q0 -106 3.5 -179t8.5 -114t14.5 -63t18.5 -27.5t23 -5.5q43 0 43 90q2 161 -1 311.5t-7 221.5l-3 70q11 -1 35 -2.5t118 -3.5t212 -1q-8 -336 0 -1011q-10 1 -30 1.5t-93.5 1.5
t-163.5 -1q2 74 2 180q-33 -80 -97.5 -123t-141.5 -43z" />
    <glyph glyph-name="v.alt" horiz-adv-x="849" 
d="M702 55q-152 -5 -289 -8t-198 -3l-61 -1q-41 271 -80.5 509t-58.5 340l-19 103q93 0 185.5 2.5t138.5 5.5l47 3q14 -240 27 -419t20 -237l6 -59q29 261 47 446.5t21 240.5l4 54q99 -6 187.5 -9t127.5 -3h39z" />
    <glyph glyph-name="w.alt" horiz-adv-x="1343" 
d="M729 33q-16 168 -31.5 304t-22.5 189l-7 52q-21 -176 -35 -320t-17 -200l-4 -56q-146 6 -262.5 8t-160.5 1l-44 -1q-37 284 -73.5 537.5t-53.5 364.5l-18 112l367 6q7 -221 17 -402t16 -251l6 -70q31 221 52 389.5t26 226.5l5 58q120 3 209.5 3t118.5 -2l29 -1
q36 -254 61 -415.5t32 -196.5l7 -35q13 275 17.5 452.5t2.5 217.5l-1 40q111 -4 205.5 -5t133.5 -1h39q-45 -320 -77.5 -571t-41.5 -341l-10 -91q-169 2 -277 1.5t-158 -2.5z" />
    <glyph glyph-name="x.alt" horiz-adv-x="942" 
d="M922 1006q-99 -276 -172 -492l192 -530q-110 4 -205 4t-135 -2l-39 -2l-90 335q-21 -80 -39 -158.5t-26 -116.5l-7 -38q-130 3 -219 2t-136 -4l-46 -2q121 285 199 496q-50 144 -96 269t-67 177l-20 53q119 -4 213 -4.5t128 1.5l34 1q28 -123 78 -319q29 116 49 200
t26 110l5 26q120 -4 213.5 -5.5t126.5 -0.5h33z" />
    <glyph glyph-name="y.alt" horiz-adv-x="927" 
d="M602 -498l-356 43l53 336q-79 307 -154 584t-110 401l-35 123q108 0 207.5 4.5t145.5 8.5l46 4q17 -187 36.5 -351t30.5 -235l11 -70q21 208 33 376t14 232l2 64q74 -4 174.5 -8t163.5 -6l64 -2q-123 -535 -204.5 -911t-101.5 -485z" />
    <glyph glyph-name="z.alt" horiz-adv-x="735" 
d="M711 23q-214 9 -386.5 13t-238.5 4l-66 -1q4 76 5 140t1 90l-1 26q102 129 171 219t87 116l18 25l-262 4q-1 110 -3.5 193.5t-4.5 111.5l-2 29q208 -1 378 0t236 3l66 1q-1 -108 0.5 -179.5t3.5 -89.5l2 -17q-108 -130 -182.5 -224.5t-95.5 -123.5l-21 -29
q104 -4 178.5 -5t97.5 0l23 1q-4 -121 -5 -197.5t0 -92.5z" />
    <glyph glyph-name="dotlessi.alt" horiz-adv-x="444" 
d="M45 27q2 226 -6 977q118 -2 358 2q-1 -308 9 -977q-154 0 -361 -2z" />
    <glyph glyph-name="Aacute.alt" horiz-adv-x="954" 
d="M0 4q92 533 213 1403q132 5 262 7t194 2l64 -1q86 -623 221 -1401q-145 4 -385 -2q-2 53 -10 172q-19 0 -78 1t-100 1l-12 -186q-13 1 -39 2t-121.5 2t-208.5 0zM471 1108q-48 -444 -65 -631q52 -2 126 0q-30 336 -61 631zM514 1477q-49 38 -91 67.5t-59 39.5l-18 11
q72 105 127 188.5t73 114.5l19 31q67 -51 119.5 -90t71.5 -52l20 -13q-89 -98 -154.5 -172.5t-86.5 -99.5z" />
    <glyph glyph-name="Abreve.alt" horiz-adv-x="954" 
d="M0 4q92 533 213 1403q132 5 262 7t194 2l64 -1q86 -623 221 -1401q-145 4 -385 -2q-2 53 -10 172q-19 0 -78 1t-100 1l-12 -186q-13 1 -39 2t-121.5 2t-208.5 0zM471 1108q-48 -444 -65 -631q52 -2 126 0q-30 336 -61 631zM471 1501q-82 0 -141.5 25t-90.5 67t-44 90.5
t-9 102.5q62 0 220 10q-3 -44 16 -71t55 -27q32 0 52 28.5t10 88.5q63 -2 225 2q7 -81 -14 -143t-63.5 -99t-97 -55.5t-118.5 -18.5z" />
    <glyph glyph-name="Acircumflex.alt" horiz-adv-x="954" 
d="M0 4q92 533 213 1403q132 5 262 7t194 2l64 -1q86 -623 221 -1401q-145 4 -385 -2q-2 53 -10 172q-19 0 -78 1t-100 1l-12 -186q-13 1 -39 2t-121.5 2t-208.5 0zM471 1108q-48 -444 -65 -631q52 -2 126 0q-30 336 -61 631zM285 1475q-39 41 -152 133q67 63 221 229
q52 1 224 21q55 -58 243 -222q-55 -50 -149 -159q-54 53 -201 172q-61 -51 -186 -174z" />
    <glyph glyph-name="Adieresis.alt" horiz-adv-x="954" 
d="M0 4q92 533 213 1403q132 5 262 7t194 2l64 -1q86 -623 221 -1401q-145 4 -385 -2q-2 53 -10 172q-19 0 -78 1t-100 1l-12 -186q-13 1 -39 2t-121.5 2t-208.5 0zM471 1108q-48 -444 -65 -631q52 -2 126 0q-30 336 -61 631zM297 1518q-72 0 -111 48.5t-39 116.5
q0 72 42.5 118t109.5 46q73 0 110 -47t37 -117q0 -85 -42 -125t-107 -40zM662 1526q-65 0 -104.5 46t-39.5 122q0 67 39 111t109 44q68 0 104.5 -46t36.5 -115q0 -77 -39.5 -119.5t-105.5 -42.5z" />
    <glyph glyph-name="Agrave.alt" horiz-adv-x="954" 
d="M0 4q92 533 213 1403q132 5 262 7t194 2l64 -1q86 -623 221 -1401q-145 4 -385 -2q-2 53 -10 172q-19 0 -78 1t-100 1l-12 -186q-13 1 -39 2t-121.5 2t-208.5 0zM471 1108q-48 -444 -65 -631q52 -2 126 0q-30 336 -61 631zM467 1481q-61 76 -262 297q61 40 211 155
q57 -98 219 -334q-57 -32 -168 -118z" />
    <glyph glyph-name="Amacron.alt" horiz-adv-x="954" 
d="M0 4q92 533 213 1403q132 5 262 7t194 2l64 -1q86 -623 221 -1401q-145 4 -385 -2q-2 53 -10 172q-19 0 -78 1t-100 1l-12 -186q-13 1 -39 2t-121.5 2t-208.5 0zM471 1108q-48 -444 -65 -631q52 -2 126 0q-30 336 -61 631zM215 1554q2 64 -4 228q132 -2 532 4
q-4 -59 -4 -227q-140 1 -524 -5z" />
    <glyph glyph-name="Aogonek.alt" horiz-adv-x="954" 
d="M729 -426q-155 -15 -240.5 41.5t-85.5 177.5q0 144 166 232q-1 42 -3.5 81.5t-4.5 58.5l-2 19q-19 0 -78 1t-100 1l-12 -186q-13 1 -39 2t-121.5 2t-208.5 0q92 533 213 1403q132 5 262 7t194 2l64 -1q86 -623 221 -1401q-94 2 -239 0q-53 -30 -82 -67t-29 -70
q0 -89 141 -86q-10 -59 -16 -217zM471 1108q-48 -444 -65 -631q52 -2 126 0q-30 336 -61 631z" />
    <glyph glyph-name="Aring.alt" horiz-adv-x="954" 
d="M0 4q92 533 213 1403q132 5 262 7t194 2l64 -1q86 -623 221 -1401q-145 4 -385 -2q-2 53 -10 172q-19 0 -78 1t-100 1l-12 -186q-13 1 -39 2t-121.5 2t-208.5 0zM471 1108q-48 -444 -65 -631q52 -2 126 0q-30 336 -61 631zM475 1499q-103 0 -159 59.5t-56 151.5
q0 93 60.5 148t156.5 55q102 0 160.5 -58.5t58.5 -144.5q0 -109 -63 -160t-158 -51zM479 1622q34 0 51 24t17 64q0 36 -18.5 62t-49.5 26q-33 0 -50 -26t-17 -64q0 -37 18.5 -61.5t48.5 -24.5z" />
    <glyph glyph-name="Atilde.alt" horiz-adv-x="954" 
d="M0 4q92 533 213 1403q132 5 262 7t194 2l64 -1q86 -623 221 -1401q-145 4 -385 -2q-2 53 -10 172q-19 0 -78 1t-100 1l-12 -186q-13 1 -39 2t-121.5 2t-208.5 0zM471 1108q-48 -444 -65 -631q52 -2 126 0q-30 336 -61 631zM340 1516q-53 -1 -190 -9q-8 145 43 235.5
t157 90.5q36 0 68.5 -15.5t52.5 -34.5t46 -34.5t50 -15.5q32 0 47 19.5t9 70.5q51 0 174 12q24 -154 -23 -240t-147 -86q-44 0 -80.5 13.5t-56.5 30.5t-46 30.5t-51 13.5q-29 0 -43.5 -22t-9.5 -59z" />
    <glyph glyph-name="Cacute.alt" horiz-adv-x="960" 
d="M489 -23q-86 0 -154 20.5t-128.5 71.5t-100.5 133t-63 211t-23 300q0 374 115.5 555.5t374.5 181.5q115 0 201 -41.5t138.5 -118.5t76.5 -182t20 -236q-106 0 -204.5 -1.5t-144.5 -2.5l-46 -2q1 88 -3 144.5t-12.5 84.5t-18.5 38t-25 10q-39 0 -54 -96t-12 -336
q0 -167 7 -259.5t20 -125.5t36 -33q24 0 36.5 19t19 79t4.5 176q93 2 193 6.5t154 8.5l54 4q3 -316 -108 -463t-353 -146zM522 1505q-49 38 -91 68t-59 41l-18 10q72 105 127 188.5t73 114.5l19 31q67 -51 119.5 -90t71.5 -52l20 -14q-89 -98 -154.5 -172.5t-86.5 -99.5z
" />
    <glyph glyph-name="Ccaron.alt" horiz-adv-x="960" 
d="M489 -23q-86 0 -154 20.5t-128.5 71.5t-100.5 133t-63 211t-23 300q0 374 115.5 555.5t374.5 181.5q115 0 201 -41.5t138.5 -118.5t76.5 -182t20 -236q-106 0 -204.5 -1.5t-144.5 -2.5l-46 -2q1 88 -3 144.5t-12.5 84.5t-18.5 38t-25 10q-39 0 -54 -96t-12 -336
q0 -167 7 -259.5t20 -125.5t36 -33q24 0 36.5 19t19 79t4.5 176q93 2 193 6.5t154 8.5l54 4q3 -316 -108 -463t-353 -146zM385 1495q-56 57 -244 221q56 51 150 160q54 -53 201 -172q61 51 186 174q38 -41 151 -133q-67 -63 -221 -229q-51 -1 -223 -21z" />
    <glyph glyph-name="Ccedilla.alt" horiz-adv-x="960" 
d="M950 586q3 -292 -92.5 -439.5t-300.5 -164.5q-4 -39 -4 -64q96 -4 150.5 -46.5t54.5 -111.5q0 -90 -73.5 -144t-195.5 -54q-95 0 -174 28q11 66 21 156q75 -35 164 -35q27 0 45 9.5t18 27.5q0 50 -172 39q21 84 37 195q-76 7 -136 33t-112 79.5t-86.5 134.5t-54 203
t-19.5 281q0 374 115.5 555.5t374.5 181.5q115 0 201 -41.5t138.5 -118.5t76.5 -182t20 -236q-106 0 -204.5 -1.5t-144.5 -2.5l-46 -2q1 88 -3 144.5t-12.5 84.5t-18.5 38t-25 10q-38 0 -52 -93.5t-14 -338.5q0 -167 7 -259.5t20 -125.5t36 -33q24 0 36.5 19t19 79t4.5 176
q93 2 193 6.5t154 8.5z" />
    <glyph glyph-name="Ccircumflex.alt" horiz-adv-x="960" 
d="M489 -23q-86 0 -154 20.5t-128.5 71.5t-100.5 133t-63 211t-23 300q0 374 115.5 555.5t374.5 181.5q115 0 201 -41.5t138.5 -118.5t76.5 -182t20 -236q-106 0 -204.5 -1.5t-144.5 -2.5l-46 -2q1 88 -3 144.5t-12.5 84.5t-18.5 38t-25 10q-39 0 -54 -96t-12 -336
q0 -167 7 -259.5t20 -125.5t36 -33q24 0 36.5 19t19 79t4.5 176q93 2 193 6.5t154 8.5l54 4q3 -316 -108 -463t-353 -146zM293 1495q-39 41 -152 133q67 64 221 230q52 0 224 20q55 -57 243 -221q-55 -51 -149 -160q-54 53 -201 172q-61 -51 -186 -174z" />
    <glyph glyph-name="Dcaron.alt" horiz-adv-x="954" 
d="M418 272q22 0 35.5 4t28.5 18t23.5 42t16 74.5t10.5 118.5t3 171q0 162 -14.5 251.5t-41.5 121.5t-73 31q1 -193 4 -401t6 -319zM41 2l2 1387q140 20 266 20q175 0 295.5 -44t193 -137t104.5 -225.5t32 -320.5q0 -251 -71.5 -405t-212 -222.5t-363.5 -68.5
q-105 0 -246 16zM317 1475q-55 57 -243 221q55 50 149 159q54 -53 201 -172q61 52 186 175q39 -42 152 -134q-67 -63 -221 -229q-52 0 -224 -20z" />
    <glyph glyph-name="Eacute.alt" horiz-adv-x="722" 
d="M57 27q-4 553 -16 1376q173 0 657 12q-2 -149 4 -362q-163 -5 -294 -13q-2 -73 0 -194q162 0 243 2q-2 -135 2 -336l-237 2q0 -68 6 -158q106 0 276 4q-4 -115 -4 -342q-292 5 -637 9zM408 1485q-49 38 -91 68t-59 41l-18 10q72 105 126.5 188t73.5 114l19 31
q67 -51 119.5 -90t71.5 -52l20 -13q-89 -98 -154.5 -172.5t-86.5 -99.5z" />
    <glyph glyph-name="Ecaron.alt" horiz-adv-x="722" 
d="M57 27q-4 553 -16 1376q173 0 657 12q-2 -149 4 -362q-163 -5 -294 -13q-2 -73 0 -194q162 0 243 2q-2 -135 2 -336l-237 2q0 -68 6 -158q106 0 276 4q-4 -115 -4 -342q-292 5 -637 9zM270 1475q-55 57 -243 221q55 50 149 159q54 -53 201 -172q61 52 186 175
q39 -42 152 -134q-67 -63 -221 -229q-52 0 -224 -20z" />
    <glyph glyph-name="Ecircumflex.alt" horiz-adv-x="722" 
d="M57 27q-4 553 -16 1376q173 0 657 12q-2 -149 4 -362q-163 -5 -294 -13q-2 -73 0 -194q162 0 243 2q-2 -135 2 -336l-237 2q0 -68 6 -158q106 0 276 4q-4 -115 -4 -342q-292 5 -637 9zM178 1475q-38 41 -151 133q67 63 221 229q51 1 223 21q56 -58 244 -222
q-56 -50 -150 -159q-53 53 -200 172q-62 -51 -187 -174z" />
    <glyph glyph-name="Edieresis.alt" horiz-adv-x="722" 
d="M57 27q-4 553 -16 1376q173 0 657 12q-2 -149 4 -362q-163 -5 -294 -13q-2 -73 0 -194q162 0 243 2q-2 -135 2 -336l-237 2q0 -68 6 -158q106 0 276 4q-4 -115 -4 -342q-292 5 -637 9zM190 1524q-72 0 -110.5 48.5t-38.5 117.5q0 72 42.5 117.5t109.5 45.5
q74 0 110.5 -46.5t36.5 -116.5q0 -85 -42.5 -125.5t-107.5 -40.5zM555 1532q-65 0 -104 46t-39 122q0 67 38.5 111t108.5 44q68 0 104.5 -46t36.5 -115q0 -77 -39.5 -119.5t-105.5 -42.5z" />
    <glyph glyph-name="Edotaccent.alt" horiz-adv-x="722" 
d="M57 27q-4 553 -16 1376q173 0 657 12q-2 -149 4 -362q-163 -5 -294 -13q-2 -73 0 -194q162 0 243 2q-2 -135 2 -336l-237 2q0 -68 6 -158q106 0 276 4q-4 -115 -4 -342q-292 5 -637 9zM371 1520q-88 0 -135.5 54.5t-47.5 125.5q0 73 49 124.5t134 51.5q86 0 134 -53
t48 -123q0 -88 -51 -134t-131 -46z" />
    <glyph glyph-name="Egrave.alt" horiz-adv-x="722" 
d="M57 27q-4 553 -16 1376q173 0 657 12q-2 -149 4 -362q-163 -5 -294 -13q-2 -73 0 -194q162 0 243 2q-2 -135 2 -336l-237 2q0 -68 6 -158q106 0 276 4q-4 -115 -4 -342q-292 5 -637 9zM360 1485q-61 76 -262 297q61 40 211 155q57 -97 219 -333q-57 -33 -168 -119z" />
    <glyph glyph-name="Emacron.alt" horiz-adv-x="722" 
d="M57 27q-4 553 -16 1376q173 0 657 12q-2 -149 4 -362q-163 -5 -294 -13q-2 -73 0 -194q162 0 243 2q-2 -135 2 -336l-237 2q0 -68 6 -158q106 0 276 4q-4 -115 -4 -342q-292 5 -637 9zM109 1554q1 64 -5 228q133 -2 533 4q-4 -59 -4 -227q-140 1 -524 -5z" />
    <glyph glyph-name="Eogonek.alt" horiz-adv-x="722" 
d="M690 -416q-149 -14 -237 40.5t-88 172.5q0 149 165 223l-473 7q-4 553 -16 1376q173 0 657 12q-2 -149 4 -362q-163 -5 -294 -13q-2 -73 0 -194q162 0 243 2q-2 -135 2 -336l-237 2q2 -72 6 -158q106 0 276 4q-4 -115 -4 -342q-129 -54 -129 -131q0 -89 142 -86
q-11 -59 -17 -217z" />
    <glyph glyph-name="Gbreve.alt" horiz-adv-x="962" 
d="M487 -27q-88 0 -156.5 20t-128 70.5t-99 132t-61.5 208.5t-22 296q0 365 113.5 548.5t366.5 183.5q114 0 199.5 -40.5t135.5 -114t73.5 -169.5t21.5 -215q-180 -7 -377 -19q3 137 -13 195.5t-53 58.5q-28 0 -43 -35.5t-22 -129t-6 -267.5q1 -188 11 -287t27 -130t48 -31
q21 0 34.5 20t21.5 75.5t7 148.5q-41 -1 -90 -7q2 103 -2 293q262 0 471 6q6 -188 -9 -326t-49.5 -231t-92.5 -149.5t-132 -80.5t-174 -24zM477 1485q-82 0 -141 24.5t-90 66.5t-44 90.5t-9 102.5q61 1 219 11q-3 -44 16 -71.5t55 -27.5q32 0 52 28.5t10 88.5q63 -2 225 2
q7 -81 -14 -143t-63.5 -98.5t-97 -55t-118.5 -18.5z" />
    <glyph glyph-name="Gcircumflex.alt" horiz-adv-x="962" 
d="M487 -27q-88 0 -156.5 20t-128 70.5t-99 132t-61.5 208.5t-22 296q0 365 113.5 548.5t366.5 183.5q114 0 199.5 -40.5t135.5 -114t73.5 -169.5t21.5 -215q-180 -7 -377 -19q3 137 -13 195.5t-53 58.5q-28 0 -43 -35.5t-22 -129t-6 -267.5q1 -188 11 -287t27 -130t48 -31
q21 0 34.5 20t21.5 75.5t7 148.5q-41 -1 -90 -7q2 103 -2 293q262 0 471 6q6 -188 -9 -326t-49.5 -231t-92.5 -149.5t-132 -80.5t-174 -24zM289 1462q-39 41 -152 133q67 64 221 230q52 0 224 20q55 -57 243 -221q-55 -51 -149 -160q-54 53 -201 172q-61 -51 -186 -174z" />
    <glyph glyph-name="Gcommaaccent.alt" horiz-adv-x="962" 
d="M487 -27q-88 0 -156.5 20t-128 70.5t-99 132t-61.5 208.5t-22 296q0 365 113.5 548.5t366.5 183.5q114 0 199.5 -40.5t135.5 -114t73.5 -169.5t21.5 -215q-180 -7 -377 -19q3 137 -13 195.5t-53 58.5q-28 0 -43 -35.5t-22 -129t-6 -267.5q1 -188 11 -287t27 -130t48 -31
q21 0 34.5 20t21.5 75.5t7 148.5q-41 -1 -90 -7q2 103 -2 293q262 0 471 6q6 -188 -9 -326t-49.5 -231t-92.5 -149.5t-132 -80.5t-174 -24zM635 -225q0 -137 -195 -293l-110 84q58 55 82 104q-37 12 -58.5 43.5t-21.5 75.5q0 56 42.5 91.5t110.5 35.5q67 0 108.5 -37
t41.5 -104z" />
    <glyph glyph-name="Hcircumflex.alt" horiz-adv-x="929" 
d="M516 12v375q-59 0 -102 -2l6 -399q-156 6 -371 -2q2 653 -8 1452q87 -2 365 2q2 -313 6 -740q16 -2 102 -2q0 116 -2.5 373t-3.5 346q133 -2 375 2q0 -571 6 -1407q-16 1 -45.5 2t-129 2t-198.5 -2zM272 1495q-38 41 -151 133q67 64 221 230q51 0 223 20q56 -57 244 -221
q-56 -51 -150 -160q-53 53 -200 172q-62 -51 -187 -174z" />
    <glyph glyph-name="Iacute.alt" horiz-adv-x="483" 
d="M59 31q2 542 -8 1337q127 0 371 2q4 -601 10 -1339q-123 2 -373 0zM279 1454q-49 38 -91 68t-60 40l-17 11q72 105 127 188.5t74 114.5l18 31q67 -51 119.5 -90t72.5 -53l19 -13q-89 -98 -154.5 -172.5t-86.5 -99.5z" />
    <glyph glyph-name="Icircumflex.alt" horiz-adv-x="483" 
d="M59 31q2 542 -8 1337q127 0 371 2q4 -601 10 -1339q-123 2 -373 0zM49 1444q-38 41 -151 133q67 63 221 229q51 1 223 21q56 -57 244 -221q-56 -51 -150 -160q-53 53 -200 172q-62 -51 -187 -174z" />
    <glyph glyph-name="Idieresis.alt" horiz-adv-x="483" 
d="M59 31q2 542 -8 1337q127 0 371 2q4 -601 10 -1339q-123 2 -373 0zM61 1493q-72 0 -110.5 48.5t-38.5 117.5q0 72 42 118t109 46q74 0 111 -47t37 -117q0 -85 -42.5 -125.5t-107.5 -40.5zM426 1501q-65 0 -104 46t-39 122q0 67 39 111.5t108 44.5q68 0 104.5 -46.5
t36.5 -115.5q0 -77 -39.5 -119.5t-105.5 -42.5z" />
    <glyph glyph-name="Idotaccent.alt" horiz-adv-x="483" 
d="M59 31q2 542 -8 1337q127 0 371 2q4 -601 10 -1339q-123 2 -373 0zM242 1489q-88 0 -135.5 54.5t-47.5 125.5q0 73 49 124.5t134 51.5q86 0 134 -53t48 -123q0 -88 -51 -134t-131 -46z" />
    <glyph glyph-name="Igrave.alt" horiz-adv-x="483" 
d="M59 31q2 542 -8 1337q127 0 371 2q4 -601 10 -1339q-123 2 -373 0zM231 1454q-61 76 -262 297q61 41 211 156q57 -98 219 -334q-57 -33 -168 -119z" />
    <glyph glyph-name="Imacron.alt" horiz-adv-x="483" 
d="M59 31q2 542 -8 1337q127 0 371 2q4 -601 10 -1339q-123 2 -373 0zM-20 1513q1 64 -5 228q133 -2 533 4q-4 -59 -4 -227q-140 1 -524 -5z" />
    <glyph glyph-name="Iogonek.alt" horiz-adv-x="483" 
d="M354 -401q-155 -15 -240 41.5t-85 177.5q0 129 135 213q-33 2 -105 0q2 542 -8 1337q127 0 371 2q4 -601 10 -1339q-40 2 -106 0q-46 -28 -71.5 -63.5t-25.5 -65.5q0 -89 142 -86q-11 -59 -17 -217z" />
    <glyph glyph-name="Jcircumflex.alt" horiz-adv-x="858" 
d="M414 0q-404 0 -404 477q0 111 25 250q104 -8 327 -16q-12 -83 -12 -166q0 -84 7 -132t18.5 -64.5t30.5 -16.5q15 0 23.5 7t17.5 33.5t13.5 78.5t7.5 141t3 221q0 257 -37 573q134 13 361 29q43 -340 43 -622q0 -182 -18 -318t-52 -226.5t-87 -146t-117.5 -79
t-149.5 -23.5zM428 1464q-39 41 -152 133q68 64 222 230q51 0 223 20q56 -57 244 -221q-56 -51 -150 -160q-54 53 -201 172q-61 -51 -186 -174z" />
    <glyph glyph-name="Kcommaaccent.alt" horiz-adv-x="954" 
d="M569 -35q-50 343 -65 430q-66 -183 -88 -250l4 -135q-135 2 -219 1.5t-122 -1.5l-38 -2q3 346 3 684t-2 503l-1 165l377 -2q-6 -393 -6 -666q55 231 95.5 413.5t54.5 248.5l13 67q111 -5 206 -8t134 -3l39 -1q-56 -190 -184 -637q46 -208 91.5 -399t68.5 -278l22 -87
q-101 -7 -196.5 -18t-141.5 -18zM651 -215q0 -138 -194 -293q-30 24 -58 45t-41 30l-12 9q57 54 82 105q-37 12 -58.5 43t-21.5 75q0 56 42.5 91.5t111.5 35.5q67 0 108 -37t41 -104z" />
    <glyph glyph-name="Lacute.alt" horiz-adv-x="696" 
d="M53 33q0 522 -12 1358q121 -4 369 0q-6 -171 8 -1031q74 -3 143.5 -4t102.5 0h32l-2 -338q-161 5 -321 9t-240 5zM252 1444q-49 38 -91 68t-59 40l-18 11q72 105 127 188t73 114l19 31q67 -51 119.5 -90t71.5 -52l20 -13q-89 -98 -154.5 -172.5t-86.5 -99.5z" />
    <glyph glyph-name="Lcaron.alt" horiz-adv-x="696" 
d="M53 33q0 522 -12 1358q121 -4 369 0q-6 -171 8 -1031q74 -3 143.5 -4t102.5 0h32l-2 -338q-161 5 -321 9t-240 5zM782 1341q0 -137 -194 -292q-70 57 -111 84q58 55 82 104q-37 12 -58.5 43.5t-21.5 75.5q0 56 42.5 91.5t111.5 35.5q66 0 107.5 -37.5t41.5 -104.5z" />
    <glyph glyph-name="Lcommaaccent.alt" horiz-adv-x="696" 
d="M53 33q0 522 -12 1358q121 -4 369 0q-6 -171 8 -1031q74 -3 143.5 -4t102.5 0h32l-2 -338q-161 5 -321 9t-240 5zM522 -184q0 -138 -194 -293q-30 24 -58 45l-40 30l-13 9q58 55 82 104q-37 12 -58.5 43.5t-21.5 75.5q0 56 42.5 91.5t111.5 35.5q67 0 108 -37t41 -104z
" />
    <glyph glyph-name="Nacute.alt" horiz-adv-x="999" 
d="M47 -20q8 606 -6 1431q141 -6 354 0q84 -257 244 -682q-10 191 -51 711q14 -1 41 -2t114 -3t179 -1q9 -496 36 -1407q-113 -2 -340 -25q-104 304 -258 715q8 -345 33 -744q-135 7 -346 7zM537 1485q-49 38 -91 68t-60 41l-17 10q72 105 127 188t74 114l18 31
q67 -51 119.5 -90t72.5 -52l19 -13q-89 -98 -154.5 -172.5t-86.5 -99.5z" />
    <glyph glyph-name="Ncaron.alt" horiz-adv-x="999" 
d="M47 -20q8 606 -6 1431q141 -6 354 0q84 -257 244 -682q-10 191 -51 711q14 -1 41 -2t114 -3t179 -1q9 -496 36 -1407q-113 -2 -340 -25q-104 304 -258 715q8 -345 33 -744q-135 7 -346 7zM399 1485q-55 57 -243 221q55 51 149 160q54 -53 201 -172q61 51 186 174
q39 -41 152 -133q-67 -64 -221 -230q-52 0 -224 -20z" />
    <glyph glyph-name="Ncommaaccent.alt" horiz-adv-x="999" 
d="M47 -20q8 606 -6 1431q141 -6 354 0q84 -257 244 -682q-10 191 -51 711q14 -1 41 -2t114 -3t179 -1q9 -496 36 -1407q-113 -2 -340 -25q-104 304 -258 715q8 -345 33 -744q-135 7 -346 7zM653 -195q0 -137 -194 -292q-30 24 -58 45t-41 30l-12 9q58 55 82 104
q-37 12 -58.5 43.5t-21.5 75.5q0 56 42.5 91.5t111.5 35.5q66 0 107.5 -37.5t41.5 -104.5z" />
    <glyph glyph-name="Ntilde.alt" horiz-adv-x="999" 
d="M47 -20q8 606 -6 1431q141 -6 354 0q84 -257 244 -682q-10 191 -51 711q14 -1 41 -2t114 -3t179 -1q9 -496 36 -1407q-113 -2 -340 -25q-104 304 -258 715q8 -345 33 -744q-135 7 -346 7zM362 1528q-53 0 -190 -8q-8 144 43.5 234.5t157.5 90.5q36 0 68.5 -15.5
t52.5 -34.5t46 -34.5t50 -15.5q32 0 46.5 19.5t8.5 70.5q51 0 174 12q24 -154 -23 -239.5t-147 -85.5q-44 0 -80 14t-56.5 30t-46 30t-50.5 14q-29 0 -44 -22.5t-10 -59.5z" />
    <glyph glyph-name="Oacute.alt" horiz-adv-x="974" 
d="M487 1438q128 0 218.5 -45.5t144.5 -137.5t78.5 -220t25.5 -304q0 -266 -53.5 -432t-154.5 -238.5t-257 -72.5q-134 0 -225 45t-144.5 140.5t-76.5 229.5t-23 326q3 376 110.5 542.5t356.5 166.5zM483 1147q-22 0 -34 -29t-18.5 -126.5t-6.5 -289.5q0 -190 8 -286.5
t20 -121t35 -24.5q26 0 37.5 23t19 121t7.5 303q0 186 -8 281t-21 122t-39 27zM524 1485q-49 38 -91 68t-59 41l-18 10q72 105 126.5 188t73.5 114l19 31q67 -51 119.5 -90t71.5 -52l20 -13q-89 -98 -154.5 -172.5t-86.5 -99.5z" />
    <glyph glyph-name="Ocircumflex.alt" horiz-adv-x="974" 
d="M487 1438q128 0 218.5 -45.5t144.5 -137.5t78.5 -220t25.5 -304q0 -266 -53.5 -432t-154.5 -238.5t-257 -72.5q-134 0 -225 45t-144.5 140.5t-76.5 229.5t-23 326q3 376 110.5 542.5t356.5 166.5zM483 1147q-22 0 -34 -29t-18.5 -126.5t-6.5 -289.5q0 -190 8 -286.5
t20 -121t35 -24.5q26 0 37.5 23t19 121t7.5 303q0 186 -8 281t-21 122t-39 27zM295 1475q-39 41 -152 133q68 63 222 229q51 1 223 21q55 -58 243 -222q-55 -50 -149 -159q-54 53 -201 172q-61 -51 -186 -174z" />
    <glyph glyph-name="Odieresis.alt" horiz-adv-x="974" 
d="M487 1438q128 0 218.5 -45.5t144.5 -137.5t78.5 -220t25.5 -304q0 -266 -53.5 -432t-154.5 -238.5t-257 -72.5q-134 0 -225 45t-144.5 140.5t-76.5 229.5t-23 326q3 376 110.5 542.5t356.5 166.5zM483 1147q-22 0 -34 -29t-18.5 -126.5t-6.5 -289.5q0 -190 8 -286.5
t20 -121t35 -24.5q26 0 37.5 23t19 121t7.5 303q0 186 -8 281t-21 122t-39 27zM307 1524q-72 0 -110.5 48.5t-38.5 117.5q0 72 42 117.5t109 45.5q74 0 111 -46.5t37 -116.5q0 -85 -42.5 -125.5t-107.5 -40.5zM672 1532q-65 0 -104.5 46t-39.5 122q0 67 39 111t109 44
q68 0 104.5 -46t36.5 -115q0 -77 -39.5 -119.5t-105.5 -42.5z" />
    <glyph glyph-name="Ograve.alt" horiz-adv-x="974" 
d="M487 1438q128 0 218.5 -45.5t144.5 -137.5t78.5 -220t25.5 -304q0 -266 -53.5 -432t-154.5 -238.5t-257 -72.5q-134 0 -225 45t-144.5 140.5t-76.5 229.5t-23 326q3 376 110.5 542.5t356.5 166.5zM483 1147q-22 0 -34 -29t-18.5 -126.5t-6.5 -289.5q0 -190 8 -286.5
t20 -121t35 -24.5q26 0 37.5 23t19 121t7.5 303q0 186 -8 281t-21 122t-39 27zM477 1485q-61 76 -262 297q61 40 211 155q57 -97 219 -333q-57 -33 -168 -119z" />
    <glyph glyph-name="Ohungarumlaut.alt" horiz-adv-x="974" 
d="M487 1438q128 0 218.5 -45.5t144.5 -137.5t78.5 -220t25.5 -304q0 -266 -53.5 -432t-154.5 -238.5t-257 -72.5q-134 0 -225 45t-144.5 140.5t-76.5 229.5t-23 326q3 376 110.5 542.5t356.5 166.5zM483 1147q-22 0 -34 -29t-18.5 -126.5t-6.5 -289.5q0 -190 8 -286.5
t20 -121t35 -24.5q26 0 37.5 23t19 121t7.5 303q0 186 -8 281t-21 122t-39 27zM657 1479q-53 33 -95.5 57.5t-58.5 32.5l-16 8q64 106 113.5 192.5t67.5 120.5l18 33l201 -121q-78 -108 -135.5 -188.5t-75.5 -107.5zM360 1485q-53 33 -94.5 56t-57.5 29l-15 7
q60 112 104.5 199.5t58.5 119.5l15 31q71 -44 121.5 -73.5t65.5 -37.5l15 -8z" />
    <glyph glyph-name="Omacron.alt" horiz-adv-x="974" 
d="M487 1438q128 0 218.5 -45.5t144.5 -137.5t78.5 -220t25.5 -304q0 -266 -53.5 -432t-154.5 -238.5t-257 -72.5q-134 0 -225 45t-144.5 140.5t-76.5 229.5t-23 326q3 376 110.5 542.5t356.5 166.5zM483 1147q-22 0 -34 -29t-18.5 -126.5t-6.5 -289.5q0 -190 8 -286.5
t20 -121t35 -24.5q26 0 37.5 23t19 121t7.5 303q0 186 -8 281t-21 122t-39 27zM225 1554q2 64 -4 228q133 -2 533 4q-4 -59 -4 -227q-141 1 -525 -5z" />
    <glyph glyph-name="Otilde.alt" horiz-adv-x="974" 
d="M487 1438q128 0 218.5 -45.5t144.5 -137.5t78.5 -220t25.5 -304q0 -266 -53.5 -432t-154.5 -238.5t-257 -72.5q-134 0 -225 45t-144.5 140.5t-76.5 229.5t-23 326q3 376 110.5 542.5t356.5 166.5zM483 1147q-22 0 -34 -29t-18.5 -126.5t-6.5 -289.5q0 -190 8 -286.5
t20 -121t35 -24.5q26 0 37.5 23t19 121t7.5 303q0 186 -8 281t-21 122t-39 27zM350 1518q-53 -1 -190 -9q-8 145 43 235.5t157 90.5q36 0 68.5 -15.5t52.5 -34.5t46.5 -34.5t50.5 -15.5q32 0 46.5 19.5t8.5 70.5q51 0 174 12q24 -154 -23 -240t-147 -86q-44 0 -80.5 13.5
t-56.5 30.5t-46 30.5t-51 13.5q-29 0 -43.5 -22t-9.5 -59z" />
    <glyph glyph-name="Racute.alt" 
d="M594 -59q-64 226 -156 536q-18 -2 -26 -2q0 -33 8 -479q-160 2 -379 -2q1 61 2.5 175.5t4 481.5t1.5 750q184 26 299 26q158 0 270.5 -32.5t179.5 -97t97.5 -152t30.5 -205.5q0 -244 -176 -362q21 -52 221 -594q-168 -12 -377 -43zM412 711q66 1 96.5 54t30.5 159
q0 100 -32 151t-101 45zM487 1468q-49 38 -91 68t-60 40l-17 11q72 105 127 188.5t74 114.5l19 31q67 -51 119.5 -90t71.5 -53l20 -13q-89 -98 -155 -172.5t-87 -99.5z" />
    <glyph glyph-name="Rcaron.alt" 
d="M594 -59q-64 226 -156 536q-18 -2 -26 -2q0 -33 8 -479q-160 2 -379 -2q1 61 2.5 175.5t4 481.5t1.5 750q184 26 299 26q158 0 270.5 -32.5t179.5 -97t97.5 -152t30.5 -205.5q0 -244 -176 -362q21 -52 221 -594q-168 -12 -377 -43zM412 711q66 1 96.5 54t30.5 159
q0 100 -32 151t-101 45zM350 1479q-56 57 -244 221q56 51 150 160q54 -53 201 -172q61 51 186 174q39 -41 152 -133q-68 -64 -222 -230q-51 0 -223 -20z" />
    <glyph glyph-name="Rcommaaccent.alt" 
d="M594 -59q-64 226 -156 536q-18 -2 -26 -2q0 -33 8 -479q-160 2 -379 -2q1 61 2.5 175.5t4 481.5t1.5 750q184 26 299 26q158 0 270.5 -32.5t179.5 -97t97.5 -152t30.5 -205.5q0 -244 -176 -362q21 -52 221 -594q-168 -12 -377 -43zM412 711q66 1 96.5 54t30.5 159
q0 100 -32 151t-101 45zM604 -215q0 -138 -194 -293q-30 24 -58 45l-40 30l-13 9q57 54 82 105q-37 12 -58.5 43t-21.5 75q0 56 42.5 91.5t111.5 35.5q67 0 108 -37t41 -104z" />
    <glyph glyph-name="Sacute.alt" horiz-adv-x="905" 
d="M455 -16q-240 0 -350.5 122.5t-92.5 393.5q145 -2 381 6q-9 -122 5.5 -176t54.5 -54q29 0 42 29.5t13 95.5q0 59 -38.5 99.5t-154.5 87.5q-160 64 -229.5 164.5t-69.5 265.5q0 196 112.5 306t334.5 110q451 0 411 -523q-161 2 -370 -2q12 86 6.5 138t-19 74t-34.5 22
q-54 0 -54 -129q0 -64 40 -110t143 -85q178 -68 243.5 -164t65.5 -249q0 -422 -440 -422zM487 1485q-49 38 -91 68t-60 41l-17 10q72 105 127 188t74 114l19 31q67 -51 119.5 -90t71.5 -52l20 -13q-89 -98 -155 -172.5t-87 -99.5z" />
    <glyph glyph-name="Scaron.alt" horiz-adv-x="905" 
d="M455 -16q-240 0 -350.5 122.5t-92.5 393.5q145 -2 381 6q-9 -122 5.5 -176t54.5 -54q29 0 42 29.5t13 95.5q0 59 -38.5 99.5t-154.5 87.5q-160 64 -229.5 164.5t-69.5 265.5q0 196 112.5 306t334.5 110q451 0 411 -523q-161 2 -370 -2q12 86 6.5 138t-19 74t-34.5 22
q-54 0 -54 -129q0 -64 40 -110t143 -85q178 -68 243.5 -164t65.5 -249q0 -422 -440 -422zM352 1485q-55 57 -243 221q55 51 149 160q54 -53 201 -172q61 51 186 174q39 -41 152 -133q-68 -64 -222 -230q-51 0 -223 -20z" />
    <glyph glyph-name="Scedilla.alt" horiz-adv-x="905" 
d="M403 1014q0 -64 40 -110t143 -85q178 -68 243.5 -164t65.5 -249q0 -390 -373 -418l-4 -70q96 -4 150.5 -46.5t54.5 -111.5q0 -91 -73 -144.5t-195 -53.5q-95 0 -174 28q10 66 20 156q75 -35 164 -35q27 0 45 9.5t18 27.5q0 50 -172 39q21 86 37 199q-208 14 -303 137
t-78 377q145 -2 381 6q-9 -122 5.5 -176t54.5 -54q29 0 42 29.5t13 95.5q0 59 -38.5 99.5t-154.5 87.5q-160 64 -229.5 164.5t-69.5 265.5q0 196 112.5 306t334.5 110q451 0 411 -523q-161 2 -370 -2q12 86 6.5 138t-19 74t-34.5 22q-54 0 -54 -129z" />
    <glyph glyph-name="Scircumflex.alt" horiz-adv-x="905" 
d="M455 -16q-240 0 -350.5 122.5t-92.5 393.5q145 -2 381 6q-9 -122 5.5 -176t54.5 -54q29 0 42 29.5t13 95.5q0 59 -38.5 99.5t-154.5 87.5q-160 64 -229.5 164.5t-69.5 265.5q0 196 112.5 306t334.5 110q451 0 411 -523q-161 2 -370 -2q12 86 6.5 138t-19 74t-34.5 22
q-54 0 -54 -129q0 -64 40 -110t143 -85q178 -68 243.5 -164t65.5 -249q0 -422 -440 -422zM260 1458q-38 41 -151 133q67 64 221 230q51 0 223 20q56 -57 244 -221q-56 -51 -150 -160q-54 53 -201 172q-61 -51 -186 -174z" />
    <glyph glyph-name="Scommaaccent.alt" horiz-adv-x="905" 
d="M455 -16q-240 0 -350.5 122.5t-92.5 393.5q145 -2 381 6q-9 -122 5.5 -176t54.5 -54q29 0 42 29.5t13 95.5q0 59 -38.5 99.5t-154.5 87.5q-160 64 -229.5 164.5t-69.5 265.5q0 196 112.5 306t334.5 110q451 0 411 -523q-161 2 -370 -2q12 86 6.5 138t-19 74t-34.5 22
q-54 0 -54 -129q0 -64 40 -110t143 -85q178 -68 243.5 -164t65.5 -249q0 -422 -440 -422zM606 -195q0 -137 -194 -292q-30 24 -58 45l-40 30l-13 9q58 55 82 104q-37 12 -58.5 43.5t-21.5 75.5q0 56 42.5 91.5t111.5 35.5q66 0 107.5 -37.5t41.5 -104.5z" />
    <glyph glyph-name="Tcaron.alt" horiz-adv-x="806" 
d="M12 1034q4 92 -2 355q258 -2 787 8q-1 -15 -2 -43.5t-3 -123t-1 -196.5q-76 2 -207 2q0 -357 8 -1009q-121 4 -369 -2q4 367 -2 1011q-143 0 -209 -2zM303 1464q-56 58 -244 222q56 50 150 159q54 -53 201 -172q61 51 186 174q39 -41 152 -133q-68 -63 -222 -229
q-51 -1 -223 -21z" />
    <glyph glyph-name="Tcommaaccent.alt" horiz-adv-x="806" 
d="M12 1034q4 92 -2 355q258 -2 787 8q-1 -15 -2 -43.5t-3 -123t-1 -196.5q-76 2 -207 2q0 -357 8 -1009q-121 4 -369 -2q4 367 -2 1011q-143 0 -209 -2zM557 -174q0 -137 -195 -293l-110 84q58 55 82 104q-37 12 -58.5 43.5t-21.5 75.5q0 56 42.5 91.5t111.5 35.5
q67 0 108 -37t41 -104z" />
    <glyph glyph-name="Uacute.alt" 
d="M492 12q-159 0 -261.5 78.5t-156.5 259t-54 471.5q0 276 48 615q122 -13 370 -29q-39 -331 -39 -569q0 -122 4 -210t10.5 -140.5t18 -83t23 -40.5t28.5 -10q29 0 43.5 24.5t22.5 111t8 260.5q0 261 -33 632q119 5 359 19q47 -335 47 -674q0 -256 -50.5 -415.5
t-145.5 -229.5t-242 -70zM524 1450q-49 38 -91 68t-59 40l-18 11q72 105 127 188.5t73 114.5l19 31q67 -51 119.5 -90t71.5 -53l20 -13q-89 -98 -154.5 -172.5t-86.5 -99.5z" />
    <glyph glyph-name="Ubreve.alt" 
d="M492 12q-159 0 -261.5 78.5t-156.5 259t-54 471.5q0 276 48 615q122 -13 370 -29q-39 -331 -39 -569q0 -122 4 -210t10.5 -140.5t18 -83t23 -40.5t28.5 -10q29 0 43.5 24.5t22.5 111t8 260.5q0 261 -33 632q119 5 359 19q47 -335 47 -674q0 -256 -50.5 -415.5
t-145.5 -229.5t-242 -70zM481 1489q-82 0 -141 25t-90 67t-44 90.5t-9 102.5q61 0 219 10q-3 -44 16 -71t55 -27q33 0 52.5 28t9.5 88q63 -2 225 2q7 -81 -14 -143t-63.5 -98.5t-97 -55t-118.5 -18.5z" />
    <glyph glyph-name="Ucircumflex.alt" 
d="M492 12q-159 0 -261.5 78.5t-156.5 259t-54 471.5q0 276 48 615q122 -13 370 -29q-39 -331 -39 -569q0 -122 4 -210t10.5 -140.5t18 -83t23 -40.5t28.5 -10q29 0 43.5 24.5t22.5 111t8 260.5q0 261 -33 632q119 5 359 19q47 -335 47 -674q0 -256 -50.5 -415.5
t-145.5 -229.5t-242 -70zM295 1454q-39 41 -152 133q68 64 222 230q51 0 223 20q55 -57 243 -221q-55 -51 -149 -160q-54 53 -201 172q-61 -51 -186 -174z" />
    <glyph glyph-name="Udieresis.alt" 
d="M492 12q-159 0 -261.5 78.5t-156.5 259t-54 471.5q0 276 48 615q122 -13 370 -29q-39 -331 -39 -569q0 -122 4 -210t10.5 -140.5t18 -83t23 -40.5t28.5 -10q29 0 43.5 24.5t22.5 111t8 260.5q0 261 -33 632q119 5 359 19q47 -335 47 -674q0 -256 -50.5 -415.5
t-145.5 -229.5t-242 -70zM307 1503q-72 0 -110.5 48.5t-38.5 117.5q0 72 42 118t109 46q74 0 111 -47t37 -117q0 -85 -42.5 -125.5t-107.5 -40.5zM672 1511q-65 0 -104.5 46t-39.5 122q0 67 39 111.5t109 44.5q68 0 104.5 -46.5t36.5 -115.5q0 -77 -39.5 -119.5
t-105.5 -42.5z" />
    <glyph glyph-name="Ugrave.alt" 
d="M492 12q-159 0 -261.5 78.5t-156.5 259t-54 471.5q0 276 48 615q122 -13 370 -29q-39 -331 -39 -569q0 -122 4 -210t10.5 -140.5t18 -83t23 -40.5t28.5 -10q29 0 43.5 24.5t22.5 111t8 260.5q0 261 -33 632q119 5 359 19q47 -335 47 -674q0 -256 -50.5 -415.5
t-145.5 -229.5t-242 -70zM477 1454q-61 76 -262 297q61 41 211 156q57 -98 219 -334q-57 -33 -168 -119z" />
    <glyph glyph-name="Uhungarumlaut.alt" 
d="M492 12q-159 0 -261.5 78.5t-156.5 259t-54 471.5q0 276 48 615q122 -13 370 -29q-39 -331 -39 -569q0 -122 4 -210t10.5 -140.5t18 -83t23 -40.5t28.5 -10q29 0 43.5 24.5t22.5 111t8 260.5q0 261 -33 632q119 5 359 19q47 -335 47 -674q0 -256 -50.5 -415.5
t-145.5 -229.5t-242 -70zM657 1481q-53 33 -95.5 57.5t-58.5 32.5l-16 8q64 106 113.5 192.5t67.5 120.5l18 33l201 -121q-78 -108 -135.5 -188.5t-75.5 -107.5zM360 1487q-53 33 -94.5 56t-57.5 29l-15 7q60 112 104.5 199.5t58.5 119.5l15 31q71 -44 121.5 -73.5
t65.5 -37.5l15 -8z" />
    <glyph glyph-name="Umacron.alt" 
d="M492 12q-159 0 -261.5 78.5t-156.5 259t-54 471.5q0 276 48 615q122 -13 370 -29q-39 -331 -39 -569q0 -122 4 -210t10.5 -140.5t18 -83t23 -40.5t28.5 -10q29 0 43.5 24.5t22.5 111t8 260.5q0 261 -33 632q119 5 359 19q47 -335 47 -674q0 -256 -50.5 -415.5
t-145.5 -229.5t-242 -70zM225 1534q2 63 -4 227q133 -2 533 4q-4 -59 -4 -227q-141 2 -525 -4z" />
    <glyph glyph-name="Uogonek.alt" 
d="M598 -408q-155 -15 -240.5 42t-85.5 178q0 125 125 208q-127 22 -209 109.5t-125 258.5t-43 433q0 276 48 615q122 -13 370 -29q-39 -331 -39 -569q0 -122 4 -210t10.5 -140.5t18 -83t23 -40.5t28.5 -10q29 0 43.5 24.5t22.5 111t8 260.5q0 261 -33 632q119 5 359 19
q47 -335 47 -674q0 -352 -93 -521.5t-282 -191.5q-82 -57 -82 -118q0 -89 141 -86q-10 -60 -16 -218z" />
    <glyph glyph-name="Uring.alt" 
d="M492 12q-159 0 -261.5 78.5t-156.5 259t-54 471.5q0 276 48 615q122 -13 370 -29q-39 -331 -39 -569q0 -122 4 -210t10.5 -140.5t18 -83t23 -40.5t28.5 -10q29 0 43.5 24.5t22.5 111t8 260.5q0 261 -33 632q119 5 359 19q47 -335 47 -674q0 -256 -50.5 -415.5
t-145.5 -229.5t-242 -70zM485 1473q-103 0 -159 59t-56 151q0 93 60.5 148t156.5 55q102 0 161 -58.5t59 -144.5q0 -109 -63.5 -159.5t-158.5 -50.5zM489 1595q34 0 51 24t17 64q0 36 -18.5 62.5t-49.5 26.5q-33 0 -50 -26.5t-17 -64.5q0 -37 18.5 -61.5t48.5 -24.5z" />
    <glyph glyph-name="Yacute.alt" horiz-adv-x="987" 
d="M322 -51q5 24 -5 289q-79 348 -317 1167q68 -2 403 12q29 -255 105 -676q53 341 98 670q11 -1 36 -2t123 -3t222 -1q-125 -464 -299 -1159q-4 -9 6 -295q-74 6 -372 -2zM530 1452q-49 38 -91 68t-59 40l-18 11q72 105 127 188.5t74 114.5l19 31q67 -51 119.5 -90
t72.5 -53l19 -13q-89 -98 -155 -172.5t-87 -99.5z" />
    <glyph glyph-name="Ydieresis.alt" horiz-adv-x="987" 
d="M322 -51q5 24 -5 289q-79 348 -317 1167q68 -2 403 12q29 -255 105 -676q53 341 98 670q11 -1 36 -2t123 -3t222 -1q-125 -464 -299 -1159q-4 -9 6 -295q-74 6 -372 -2zM313 1503q-72 0 -110.5 48.5t-38.5 117.5q0 72 42 118t109 46q74 0 111 -47t37 -117
q0 -85 -42.5 -125.5t-107.5 -40.5zM678 1511q-65 0 -104 46t-39 122q0 67 39 111.5t108 44.5q68 0 104.5 -46.5t36.5 -115.5q0 -77 -39.5 -119.5t-105.5 -42.5z" />
    <glyph glyph-name="Zacute.alt" horiz-adv-x="776" 
d="M750 12q-219 7 -401.5 11t-255.5 4h-73q3 117 3.5 210t0.5 127l-1 35q220 406 335 631l-331 -8q1 142 0.5 225t-1.5 115l-1 33l723 10q2 -60 3.5 -124t2 -112.5t0.5 -88v-60.5v-21q-204 -390 -328 -637q71 -3 153 -3.5t129 0.5l46 1q-4 -126 -5 -213t0 -111zM424 1464
q-49 38 -91 68t-59 40l-18 11q72 105 127 188.5t73 114.5l19 31q67 -51 119.5 -90t71.5 -53l20 -13q-89 -98 -154.5 -172.5t-86.5 -99.5z" />
    <glyph glyph-name="Zcaron.alt" horiz-adv-x="776" 
d="M750 12q-219 7 -401.5 11t-255.5 4h-73q3 117 3.5 210t0.5 127l-1 35q220 406 335 631l-331 -8q1 142 0.5 225t-1.5 115l-1 33l723 10q2 -60 3.5 -124t2 -112.5t0.5 -88v-60.5v-21q-204 -390 -328 -637q71 -3 153 -3.5t129 0.5l46 1q-4 -126 -5 -213t0 -111zM289 1466
q-56 58 -244 222q56 50 150 159q53 -53 200 -172q62 51 187 174q38 -41 151 -133q-67 -63 -221 -229q-51 -1 -223 -21z" />
    <glyph glyph-name="Zdotaccent.alt" horiz-adv-x="776" 
d="M750 12q-219 7 -401.5 11t-255.5 4h-73q3 117 3.5 210t0.5 127l-1 35q220 406 335 631l-331 -8q1 142 0.5 225t-1.5 115l-1 33l723 10q2 -60 3.5 -124t2 -112.5t0.5 -88v-60.5v-21q-204 -390 -328 -637q71 -3 153 -3.5t129 0.5l46 1q-4 -126 -5 -213t0 -111zM389 1499
q-88 0 -135 54.5t-47 125.5q0 73 48.5 124.5t133.5 51.5q86 0 134 -53t48 -123q0 -88 -51 -134t-131 -46z" />
    <glyph glyph-name="aacute.alt" horiz-adv-x="866" 
d="M301 -47q-122 0 -206.5 78t-84.5 217q0 172 118.5 259t350.5 83v28q-1 81 -13 111.5t-36 30.5q-26 0 -38 -29.5t-15 -97.5q-131 8 -338 12q14 173 115.5 269t289.5 96q380 0 390 -416q3 -136 3 -298.5t-1 -257.5l-2 -95q-81 -2 -269 -4q6 75 8 165q-68 -151 -272 -151z
M426 197q36 0 53 46.5t17 164.5v22q-74 -9 -105 -46.5t-31 -100.5q0 -36 18 -61t48 -25zM459 1055q-49 38 -91 68t-60 41l-17 10q72 105 126.5 188t73.5 114l19 31q67 -51 119.5 -90t72.5 -52l19 -13q-89 -98 -154.5 -172.5t-86.5 -99.5z" />
    <glyph glyph-name="abreve.alt" horiz-adv-x="866" 
d="M301 -47q-122 0 -206.5 78t-84.5 217q0 172 118.5 259t350.5 83v28q-1 81 -13 111.5t-36 30.5q-26 0 -38 -29.5t-15 -97.5q-131 8 -338 12q14 173 115.5 269t289.5 96q380 0 390 -416q3 -136 3 -298.5t-1 -257.5l-2 -95q-81 -2 -269 -4q6 75 8 165q-68 -151 -272 -151z
M426 197q36 0 53 46.5t17 164.5v22q-74 -9 -105 -46.5t-31 -100.5q0 -36 18 -61t48 -25zM420 1079q-82 0 -141.5 25t-90.5 67t-44 90.5t-9 102.5q61 0 219 10q-3 -43 16.5 -70.5t55.5 -27.5q32 0 51.5 28t9.5 89q64 -2 226 2q7 -81 -14 -143t-63.5 -99t-97 -55.5
t-118.5 -18.5z" />
    <glyph glyph-name="acircumflex.alt" horiz-adv-x="866" 
d="M301 -47q-122 0 -206.5 78t-84.5 217q0 172 118.5 259t350.5 83v28q-1 81 -13 111.5t-36 30.5q-26 0 -38 -29.5t-15 -97.5q-131 8 -338 12q14 173 115.5 269t289.5 96q380 0 390 -416q3 -136 3 -298.5t-1 -257.5l-2 -95q-81 -2 -269 -4q6 75 8 165q-68 -151 -272 -151z
M426 197q36 0 53 46.5t17 164.5v22q-74 -9 -105 -46.5t-31 -100.5q0 -36 18 -61t48 -25zM231 1044q-38 42 -151 134q67 63 221 229q51 0 223 20q56 -57 244 -221q-56 -50 -150 -159q-53 53 -200 172q-62 -52 -187 -175z" />
    <glyph glyph-name="adieresis.alt" horiz-adv-x="866" 
d="M301 -47q-122 0 -206.5 78t-84.5 217q0 172 118.5 259t350.5 83v28q-1 81 -13 111.5t-36 30.5q-26 0 -38 -29.5t-15 -97.5q-131 8 -338 12q14 173 115.5 269t289.5 96q380 0 390 -416q3 -136 3 -298.5t-1 -257.5l-2 -95q-81 -2 -269 -4q6 75 8 165q-68 -151 -272 -151z
M426 197q36 0 53 46.5t17 164.5v22q-74 -9 -105 -46.5t-31 -100.5q0 -36 18 -61t48 -25zM244 1079q-72 0 -111 49t-39 117q0 72 42.5 118t109.5 46q73 0 110 -47t37 -117q0 -85 -42 -125.5t-107 -40.5zM608 1087q-65 0 -104 46t-39 122q0 67 39 111.5t108 44.5
q68 0 105 -46.5t37 -115.5q0 -76 -40 -119t-106 -43z" />
    <glyph glyph-name="agrave.alt" horiz-adv-x="866" 
d="M301 -47q-122 0 -206.5 78t-84.5 217q0 172 118.5 259t350.5 83v28q-1 81 -13 111.5t-36 30.5q-26 0 -38 -29.5t-15 -97.5q-131 8 -338 12q14 173 115.5 269t289.5 96q380 0 390 -416q3 -136 3 -298.5t-1 -257.5l-2 -95q-81 -2 -269 -4q6 75 8 165q-68 -151 -272 -151z
M426 197q36 0 53 46.5t17 164.5v22q-74 -9 -105 -46.5t-31 -100.5q0 -36 18 -61t48 -25zM414 1055q-61 76 -262 297q60 40 210 155q58 -97 220 -333q-57 -33 -168 -119z" />
    <glyph glyph-name="amacron.alt" horiz-adv-x="866" 
d="M301 -47q-122 0 -206.5 78t-84.5 217q0 172 118.5 259t350.5 83v28q-1 81 -13 111.5t-36 30.5q-26 0 -38 -29.5t-15 -97.5q-131 8 -338 12q14 173 115.5 269t289.5 96q380 0 390 -416q3 -136 3 -298.5t-1 -257.5l-2 -95q-81 -2 -269 -4q6 75 8 165q-68 -151 -272 -151z
M426 197q36 0 53 46.5t17 164.5v22q-74 -9 -105 -46.5t-31 -100.5q0 -36 18 -61t48 -25zM162 1110q2 63 -4 227q132 -2 532 4q-4 -59 -4 -227q-140 2 -524 -4z" />
    </font>
</defs>
</svg>
